M48
;Layer_Color=9474304
;FILE_FORMAT=2:5
INCH,LZ
;TYPE=PLATED
T1F00S00C0.02800
T2F00S00C0.03150
T3F00S00C0.03346
T4F00S00C0.03500
T5F00S00C0.03543
T6F00S00C0.03937
T7F00S00C0.12500
%
T01
X0108Y0134
X0136Y0139
X0153Y0144
X0152Y01505
X0212Y01405
X0217Y0145
X0207Y0135
X02095Y0116
X02575Y0135
X02525Y01405
X02625Y0145
X03325Y01535
X038Y01465
X0391Y01605
X04105Y02145
X03595Y02295
X03525Y02495
X03345Y02245
X0291Y018
X02575Y0165
X0236Y0177
X0224Y0163
X0212Y0182
X02145Y01925
X0209Y02075
X0218Y02125
X02235Y02275
X02575Y0237
X02415Y02575
X02575Y0279
X01845Y0283
Y02575
Y02495
X01745Y0157
X01635Y01615
X02625Y02015
X0131Y02
X013Y01765
X0113Y01795
Y01875
X013Y0252
X0147Y0262
X01505Y02325
X01225Y0292
T02
X0112Y0143205
X0125
X0245205Y016
Y01705
X0270795
Y016
X027Y0184205
X02575Y0184205
Y0209795
X027Y0209795
X02695Y0223705
X02575Y0223705
Y0249295
X02695Y0249295
Y0263705
X02575Y0263705
Y0289295
X02695Y0289295
X0125Y0168795
X0112
T03
X0207Y0299
X0247
T04
X0386Y02145
Y02245
Y02345
Y02445
Y02545
Y02645
Y02745
Y02845
X0296
Y02745
Y02645
Y02545
Y02445
Y02345
Y02245
Y02145
T05
X01445Y0118
Y0128
X01545
Y0118
X01645
Y0128
X01745
Y0118
X01845
Y0128
X02225Y01235
X02325
X02425
X02525
X02625
X02725
X02825
Y01135
X02725
X02625
X02525
X02425
X02325
X02225
X03225Y01295
X03325
X03425
X03525
X03625
X04035Y01555
Y01655
Y01755
Y01855
Y0249
Y0259
Y0269
Y0279
X02415Y02765
Y02715
Y02815
Y0242
Y0237
Y0232
Y02025
Y01975
Y01925
X01985Y01875
Y01775
Y01675
Y01575
Y01975
Y02075
Y02175
Y02275
Y02375
Y02475
Y02575
Y02675
X0215Y0265
Y0255
X01915Y0299
X01815
X01715
X01615
X01515
X01415
X01385Y02675
Y02575
Y02475
Y02375
Y02275
Y02175
Y02075
Y01975
Y01875
Y01775
Y01675
Y01575
X0112Y02
Y021
X01095Y026
Y027
Y028
X01195
Y027
Y026
T06
X0112Y02235
Y02335
T07
X011Y011
X041
Y031
X011
M30
