G04 Layer_Color=32896*
%FSLAX25Y25*%
%MOIN*%
G70*
G01*
G75*
%ADD10C,0.01000*%
%ADD25C,0.00787*%
%ADD27C,0.01200*%
%ADD28C,0.00800*%
%ADD30C,0.00500*%
%ADD45C,0.00100*%
G36*
X312752Y246555D02*
X312909Y246535D01*
X313046Y246515D01*
X313169Y246487D01*
X313265Y246453D01*
X313305Y246439D01*
X313340Y246433D01*
X313374Y246419D01*
X313394Y246412D01*
X313401Y246405D01*
X313408D01*
X313538Y246344D01*
X313654Y246269D01*
X313750Y246194D01*
X313825Y246125D01*
X313886Y246057D01*
X313934Y246002D01*
X313961Y245968D01*
X313968Y245961D01*
Y245954D01*
X314030Y245845D01*
X314077Y245729D01*
X314111Y245627D01*
X314132Y245524D01*
X314146Y245442D01*
X314159Y245381D01*
Y245353D01*
Y245333D01*
Y245326D01*
Y245319D01*
X314153Y245210D01*
X314132Y245101D01*
X314111Y245005D01*
X314077Y244923D01*
X314050Y244855D01*
X314030Y244807D01*
X314009Y244773D01*
X314002Y244759D01*
X313934Y244670D01*
X313859Y244588D01*
X313784Y244520D01*
X313702Y244459D01*
X313633Y244411D01*
X313579Y244377D01*
X313538Y244349D01*
X313531Y244343D01*
X313524D01*
X313476Y244315D01*
X313415Y244295D01*
X313285Y244247D01*
X313142Y244199D01*
X312998Y244151D01*
X312868Y244117D01*
X312814Y244104D01*
X312766Y244090D01*
X312725Y244076D01*
X312691Y244069D01*
X312670Y244063D01*
X312664D01*
X312554Y244035D01*
X312452Y244008D01*
X312356Y243987D01*
X312274Y243967D01*
X312206Y243947D01*
X312138Y243926D01*
X312083Y243912D01*
X312028Y243899D01*
X311987Y243885D01*
X311953Y243871D01*
X311899Y243858D01*
X311871Y243851D01*
X311864Y243844D01*
X311769Y243803D01*
X311680Y243755D01*
X311612Y243714D01*
X311557Y243673D01*
X311516Y243632D01*
X311482Y243605D01*
X311468Y243584D01*
X311461Y243578D01*
X311420Y243516D01*
X311393Y243455D01*
X311366Y243393D01*
X311352Y243332D01*
X311345Y243284D01*
X311338Y243243D01*
Y243216D01*
Y243209D01*
X311345Y243134D01*
X311359Y243065D01*
X311380Y242997D01*
X311400Y242943D01*
X311427Y242895D01*
X311448Y242861D01*
X311461Y242833D01*
X311468Y242826D01*
X311523Y242765D01*
X311584Y242710D01*
X311646Y242662D01*
X311714Y242621D01*
X311769Y242587D01*
X311817Y242567D01*
X311844Y242553D01*
X311858Y242546D01*
X311960Y242512D01*
X312063Y242492D01*
X312158Y242471D01*
X312254Y242464D01*
X312329Y242458D01*
X312397Y242451D01*
X312452D01*
X312588Y242458D01*
X312718Y242471D01*
X312841Y242492D01*
X312937Y242519D01*
X313025Y242540D01*
X313087Y242560D01*
X313128Y242574D01*
X313135Y242581D01*
X313142D01*
X313244Y242635D01*
X313340Y242690D01*
X313415Y242751D01*
X313476Y242806D01*
X313531Y242854D01*
X313565Y242895D01*
X313586Y242922D01*
X313592Y242929D01*
X313640Y243018D01*
X313681Y243106D01*
X313708Y243202D01*
X313736Y243291D01*
X313750Y243373D01*
X313763Y243434D01*
X313770Y243475D01*
Y243482D01*
Y243489D01*
X314330Y243441D01*
X314316Y243277D01*
X314289Y243127D01*
X314248Y242983D01*
X314207Y242867D01*
X314166Y242765D01*
X314146Y242724D01*
X314125Y242690D01*
X314111Y242662D01*
X314098Y242642D01*
X314091Y242635D01*
Y242628D01*
X313995Y242505D01*
X313886Y242396D01*
X313784Y242307D01*
X313674Y242232D01*
X313586Y242171D01*
X313510Y242130D01*
X313483Y242116D01*
X313463Y242102D01*
X313449Y242095D01*
X313442D01*
X313278Y242041D01*
X313107Y242000D01*
X312937Y241966D01*
X312780Y241945D01*
X312704Y241938D01*
X312636Y241932D01*
X312575D01*
X312527Y241925D01*
X312424D01*
X312247Y241932D01*
X312090Y241952D01*
X311940Y241979D01*
X311817Y242014D01*
X311707Y242041D01*
X311666Y242055D01*
X311632Y242068D01*
X311605Y242082D01*
X311584Y242089D01*
X311571Y242095D01*
X311564D01*
X311427Y242171D01*
X311304Y242246D01*
X311202Y242328D01*
X311120Y242410D01*
X311052Y242478D01*
X311011Y242533D01*
X310977Y242574D01*
X310970Y242587D01*
X310901Y242703D01*
X310854Y242826D01*
X310813Y242943D01*
X310792Y243045D01*
X310778Y243134D01*
X310765Y243202D01*
Y243229D01*
Y243250D01*
Y243257D01*
Y243264D01*
X310772Y243393D01*
X310792Y243516D01*
X310826Y243625D01*
X310860Y243714D01*
X310895Y243796D01*
X310929Y243851D01*
X310949Y243885D01*
X310956Y243899D01*
X311031Y243994D01*
X311120Y244083D01*
X311216Y244165D01*
X311311Y244233D01*
X311400Y244281D01*
X311468Y244322D01*
X311496Y244336D01*
X311509Y244349D01*
X311523Y244356D01*
X311530D01*
X311584Y244377D01*
X311653Y244404D01*
X311721Y244431D01*
X311803Y244452D01*
X311967Y244500D01*
X312131Y244548D01*
X312281Y244582D01*
X312349Y244602D01*
X312411Y244616D01*
X312459Y244630D01*
X312493Y244636D01*
X312520Y244643D01*
X312527D01*
X312657Y244677D01*
X312773Y244705D01*
X312875Y244732D01*
X312971Y244766D01*
X313053Y244793D01*
X313121Y244814D01*
X313183Y244841D01*
X313237Y244868D01*
X313285Y244889D01*
X313326Y244903D01*
X313353Y244923D01*
X313374Y244937D01*
X313408Y244957D01*
X313415Y244964D01*
X313470Y245026D01*
X313510Y245087D01*
X313545Y245155D01*
X313565Y245217D01*
X313579Y245271D01*
X313586Y245319D01*
Y245347D01*
Y245360D01*
X313572Y245463D01*
X313545Y245551D01*
X313510Y245634D01*
X313463Y245702D01*
X313422Y245763D01*
X313381Y245804D01*
X313353Y245831D01*
X313347Y245838D01*
X313299Y245872D01*
X313244Y245907D01*
X313121Y245954D01*
X312991Y245989D01*
X312862Y246009D01*
X312745Y246030D01*
X312691D01*
X312650Y246036D01*
X312561D01*
X312377Y246030D01*
X312220Y246002D01*
X312083Y245968D01*
X311974Y245927D01*
X311892Y245886D01*
X311830Y245852D01*
X311796Y245825D01*
X311783Y245818D01*
X311694Y245729D01*
X311618Y245627D01*
X311564Y245524D01*
X311523Y245422D01*
X311496Y245326D01*
X311482Y245251D01*
X311475Y245224D01*
X311468Y245203D01*
Y245189D01*
Y245183D01*
X310901Y245224D01*
X310915Y245367D01*
X310942Y245497D01*
X310983Y245620D01*
X311024Y245722D01*
X311058Y245804D01*
X311093Y245872D01*
X311120Y245914D01*
X311127Y245927D01*
X311209Y246036D01*
X311304Y246132D01*
X311400Y246214D01*
X311496Y246282D01*
X311584Y246330D01*
X311653Y246371D01*
X311680Y246385D01*
X311701Y246392D01*
X311707Y246398D01*
X311714D01*
X311858Y246453D01*
X312008Y246494D01*
X312158Y246521D01*
X312295Y246542D01*
X312411Y246555D01*
X312459D01*
X312506Y246562D01*
X312588D01*
X312752Y246555D01*
D02*
G37*
G36*
X374422Y236555D02*
X374579Y236535D01*
X374716Y236514D01*
X374839Y236487D01*
X374935Y236453D01*
X374975Y236439D01*
X375010Y236433D01*
X375044Y236419D01*
X375064Y236412D01*
X375071Y236405D01*
X375078D01*
X375208Y236344D01*
X375324Y236269D01*
X375419Y236193D01*
X375495Y236125D01*
X375556Y236057D01*
X375604Y236002D01*
X375631Y235968D01*
X375638Y235961D01*
Y235954D01*
X375699Y235845D01*
X375747Y235729D01*
X375781Y235627D01*
X375802Y235524D01*
X375816Y235442D01*
X375829Y235381D01*
Y235353D01*
Y235333D01*
Y235326D01*
Y235319D01*
X375822Y235210D01*
X375802Y235101D01*
X375781Y235005D01*
X375747Y234923D01*
X375720Y234855D01*
X375699Y234807D01*
X375679Y234773D01*
X375672Y234759D01*
X375604Y234670D01*
X375529Y234588D01*
X375454Y234520D01*
X375372Y234459D01*
X375303Y234411D01*
X375249Y234377D01*
X375208Y234349D01*
X375201Y234343D01*
X375194D01*
X375146Y234315D01*
X375085Y234295D01*
X374955Y234247D01*
X374812Y234199D01*
X374668Y234151D01*
X374538Y234117D01*
X374484Y234103D01*
X374436Y234090D01*
X374395Y234076D01*
X374361Y234069D01*
X374340Y234063D01*
X374334D01*
X374224Y234035D01*
X374122Y234008D01*
X374026Y233987D01*
X373944Y233967D01*
X373876Y233946D01*
X373808Y233926D01*
X373753Y233912D01*
X373698Y233898D01*
X373657Y233885D01*
X373623Y233871D01*
X373569Y233858D01*
X373541Y233851D01*
X373534Y233844D01*
X373439Y233803D01*
X373350Y233755D01*
X373282Y233714D01*
X373227Y233673D01*
X373186Y233632D01*
X373152Y233605D01*
X373138Y233584D01*
X373131Y233577D01*
X373090Y233516D01*
X373063Y233455D01*
X373036Y233393D01*
X373022Y233332D01*
X373015Y233284D01*
X373008Y233243D01*
Y233215D01*
Y233209D01*
X373015Y233134D01*
X373029Y233065D01*
X373049Y232997D01*
X373070Y232942D01*
X373097Y232894D01*
X373118Y232860D01*
X373131Y232833D01*
X373138Y232826D01*
X373193Y232765D01*
X373254Y232710D01*
X373316Y232662D01*
X373384Y232621D01*
X373439Y232587D01*
X373487Y232567D01*
X373514Y232553D01*
X373528Y232546D01*
X373630Y232512D01*
X373732Y232492D01*
X373828Y232471D01*
X373924Y232464D01*
X373999Y232457D01*
X374067Y232451D01*
X374122D01*
X374258Y232457D01*
X374388Y232471D01*
X374511Y232492D01*
X374607Y232519D01*
X374695Y232539D01*
X374757Y232560D01*
X374798Y232574D01*
X374805Y232580D01*
X374812D01*
X374914Y232635D01*
X375010Y232690D01*
X375085Y232751D01*
X375146Y232806D01*
X375201Y232854D01*
X375235Y232894D01*
X375255Y232922D01*
X375262Y232929D01*
X375310Y233017D01*
X375351Y233106D01*
X375378Y233202D01*
X375406Y233291D01*
X375419Y233373D01*
X375433Y233434D01*
X375440Y233475D01*
Y233482D01*
Y233489D01*
X376000Y233441D01*
X375986Y233277D01*
X375959Y233127D01*
X375918Y232983D01*
X375877Y232867D01*
X375836Y232765D01*
X375816Y232724D01*
X375795Y232690D01*
X375781Y232662D01*
X375768Y232642D01*
X375761Y232635D01*
Y232628D01*
X375665Y232505D01*
X375556Y232396D01*
X375454Y232307D01*
X375344Y232232D01*
X375255Y232171D01*
X375180Y232130D01*
X375153Y232116D01*
X375133Y232102D01*
X375119Y232095D01*
X375112D01*
X374948Y232041D01*
X374777Y232000D01*
X374607Y231966D01*
X374450Y231945D01*
X374375Y231938D01*
X374306Y231931D01*
X374245D01*
X374197Y231925D01*
X374094D01*
X373917Y231931D01*
X373760Y231952D01*
X373609Y231979D01*
X373487Y232014D01*
X373377Y232041D01*
X373336Y232054D01*
X373302Y232068D01*
X373275Y232082D01*
X373254Y232089D01*
X373241Y232095D01*
X373234D01*
X373097Y232171D01*
X372974Y232246D01*
X372872Y232328D01*
X372790Y232410D01*
X372722Y232478D01*
X372681Y232533D01*
X372646Y232574D01*
X372640Y232587D01*
X372571Y232703D01*
X372523Y232826D01*
X372482Y232942D01*
X372462Y233045D01*
X372448Y233134D01*
X372435Y233202D01*
Y233229D01*
Y233250D01*
Y233257D01*
Y233263D01*
X372442Y233393D01*
X372462Y233516D01*
X372496Y233625D01*
X372530Y233714D01*
X372565Y233796D01*
X372599Y233851D01*
X372619Y233885D01*
X372626Y233898D01*
X372701Y233994D01*
X372790Y234083D01*
X372885Y234165D01*
X372981Y234233D01*
X373070Y234281D01*
X373138Y234322D01*
X373165Y234336D01*
X373179Y234349D01*
X373193Y234356D01*
X373200D01*
X373254Y234377D01*
X373323Y234404D01*
X373391Y234431D01*
X373473Y234452D01*
X373637Y234500D01*
X373801Y234547D01*
X373951Y234581D01*
X374019Y234602D01*
X374081Y234616D01*
X374129Y234629D01*
X374163Y234636D01*
X374190Y234643D01*
X374197D01*
X374327Y234677D01*
X374443Y234704D01*
X374545Y234732D01*
X374641Y234766D01*
X374723Y234793D01*
X374791Y234814D01*
X374853Y234841D01*
X374907Y234868D01*
X374955Y234889D01*
X374996Y234903D01*
X375023Y234923D01*
X375044Y234937D01*
X375078Y234957D01*
X375085Y234964D01*
X375139Y235026D01*
X375180Y235087D01*
X375215Y235155D01*
X375235Y235217D01*
X375249Y235271D01*
X375255Y235319D01*
Y235347D01*
Y235360D01*
X375242Y235463D01*
X375215Y235551D01*
X375180Y235633D01*
X375133Y235702D01*
X375092Y235763D01*
X375051Y235804D01*
X375023Y235831D01*
X375016Y235838D01*
X374969Y235872D01*
X374914Y235907D01*
X374791Y235954D01*
X374661Y235988D01*
X374532Y236009D01*
X374415Y236030D01*
X374361D01*
X374320Y236036D01*
X374231D01*
X374047Y236030D01*
X373889Y236002D01*
X373753Y235968D01*
X373644Y235927D01*
X373562Y235886D01*
X373500Y235852D01*
X373466Y235825D01*
X373452Y235818D01*
X373364Y235729D01*
X373288Y235627D01*
X373234Y235524D01*
X373193Y235422D01*
X373165Y235326D01*
X373152Y235251D01*
X373145Y235224D01*
X373138Y235203D01*
Y235189D01*
Y235183D01*
X372571Y235224D01*
X372585Y235367D01*
X372612Y235497D01*
X372653Y235620D01*
X372694Y235722D01*
X372728Y235804D01*
X372763Y235872D01*
X372790Y235913D01*
X372797Y235927D01*
X372879Y236036D01*
X372974Y236132D01*
X373070Y236214D01*
X373165Y236282D01*
X373254Y236330D01*
X373323Y236371D01*
X373350Y236385D01*
X373370Y236391D01*
X373377Y236398D01*
X373384D01*
X373528Y236453D01*
X373678Y236494D01*
X373828Y236521D01*
X373965Y236542D01*
X374081Y236555D01*
X374129D01*
X374176Y236562D01*
X374258D01*
X374422Y236555D01*
D02*
G37*
G36*
X367592Y232000D02*
X366964D01*
X366479Y233359D01*
X364594D01*
X364075Y232000D01*
X363405D01*
X365229Y236487D01*
X365878D01*
X367592Y232000D01*
D02*
G37*
G36*
X309371Y282000D02*
X308804D01*
Y285524D01*
X306448Y282000D01*
X305840D01*
Y286487D01*
X306407D01*
Y282963D01*
X308770Y286487D01*
X309371D01*
Y282000D01*
D02*
G37*
G36*
X315771Y242000D02*
X315177D01*
Y246487D01*
X315771D01*
Y242000D01*
D02*
G37*
G36*
X313987Y212000D02*
X313420D01*
Y215524D01*
X311064Y212000D01*
X310456D01*
Y216487D01*
X311023D01*
Y212963D01*
X313386Y216487D01*
X313987D01*
Y212000D01*
D02*
G37*
G36*
X314036Y282000D02*
X313408D01*
X312923Y283359D01*
X311038D01*
X310519Y282000D01*
X309849D01*
X311673Y286487D01*
X312322D01*
X314036Y282000D01*
D02*
G37*
G36*
X367128Y242000D02*
X364328D01*
Y242526D01*
X366534D01*
Y246487D01*
X367128D01*
Y242000D01*
D02*
G37*
G36*
X369901Y246549D02*
X370106Y246521D01*
X370290Y246474D01*
X370372Y246453D01*
X370447Y246426D01*
X370515Y246398D01*
X370584Y246378D01*
X370638Y246351D01*
X370679Y246330D01*
X370720Y246316D01*
X370748Y246303D01*
X370761Y246289D01*
X370768D01*
X370939Y246180D01*
X371096Y246050D01*
X371226Y245920D01*
X371328Y245791D01*
X371417Y245674D01*
X371451Y245626D01*
X371479Y245586D01*
X371499Y245545D01*
X371513Y245517D01*
X371526Y245504D01*
Y245497D01*
X371615Y245299D01*
X371683Y245087D01*
X371724Y244882D01*
X371759Y244691D01*
X371772Y244602D01*
X371779Y244527D01*
X371786Y244452D01*
Y244390D01*
X371793Y244342D01*
Y244308D01*
Y244281D01*
Y244274D01*
X371786Y244035D01*
X371759Y243817D01*
X371718Y243612D01*
X371697Y243516D01*
X371677Y243434D01*
X371656Y243352D01*
X371636Y243284D01*
X371615Y243222D01*
X371595Y243168D01*
X371581Y243127D01*
X371567Y243099D01*
X371561Y243079D01*
Y243072D01*
X371465Y242874D01*
X371349Y242703D01*
X371239Y242553D01*
X371123Y242437D01*
X371028Y242341D01*
X370946Y242273D01*
X370912Y242252D01*
X370891Y242232D01*
X370878Y242225D01*
X370871Y242218D01*
X370782Y242164D01*
X370686Y242123D01*
X370495Y242048D01*
X370297Y242000D01*
X370106Y241959D01*
X370024Y241952D01*
X369942Y241938D01*
X369873Y241932D01*
X369812D01*
X369757Y241925D01*
X369689D01*
X369559Y241932D01*
X369436Y241938D01*
X369211Y241986D01*
X369109Y242014D01*
X369006Y242048D01*
X368917Y242082D01*
X368835Y242116D01*
X368760Y242150D01*
X368699Y242184D01*
X368644Y242218D01*
X368596Y242246D01*
X368555Y242273D01*
X368528Y242294D01*
X368514Y242300D01*
X368508Y242307D01*
X368419Y242382D01*
X368337Y242464D01*
X368200Y242642D01*
X368077Y242826D01*
X367988Y243011D01*
X367947Y243093D01*
X367920Y243168D01*
X367893Y243243D01*
X367865Y243298D01*
X367852Y243352D01*
X367838Y243386D01*
X367831Y243414D01*
Y243420D01*
X368425Y243571D01*
X368480Y243373D01*
X368548Y243195D01*
X368630Y243052D01*
X368706Y242929D01*
X368781Y242840D01*
X368842Y242772D01*
X368883Y242731D01*
X368890Y242724D01*
X368897Y242717D01*
X369033Y242621D01*
X369170Y242553D01*
X369313Y242498D01*
X369443Y242464D01*
X369559Y242444D01*
X369614Y242437D01*
X369655D01*
X369689Y242430D01*
X369737D01*
X369887Y242437D01*
X370031Y242464D01*
X370160Y242498D01*
X370270Y242532D01*
X370365Y242573D01*
X370440Y242601D01*
X370468Y242615D01*
X370488Y242628D01*
X370495Y242635D01*
X370502D01*
X370625Y242724D01*
X370727Y242826D01*
X370816Y242929D01*
X370891Y243038D01*
X370946Y243127D01*
X370980Y243209D01*
X370994Y243236D01*
X371007Y243256D01*
X371014Y243270D01*
Y243277D01*
X371069Y243441D01*
X371110Y243612D01*
X371137Y243782D01*
X371158Y243939D01*
X371164Y244008D01*
X371171Y244069D01*
Y244131D01*
X371178Y244179D01*
Y244219D01*
Y244247D01*
Y244267D01*
Y244274D01*
X371171Y244438D01*
X371158Y244595D01*
X371137Y244739D01*
X371110Y244868D01*
X371082Y244978D01*
X371076Y245025D01*
X371062Y245060D01*
X371055Y245094D01*
X371048Y245114D01*
X371041Y245128D01*
Y245135D01*
X370980Y245285D01*
X370905Y245422D01*
X370823Y245531D01*
X370748Y245626D01*
X370673Y245702D01*
X370611Y245756D01*
X370570Y245791D01*
X370563Y245804D01*
X370556D01*
X370420Y245886D01*
X370276Y245948D01*
X370133Y245995D01*
X369996Y246023D01*
X369873Y246043D01*
X369826Y246050D01*
X369778D01*
X369744Y246057D01*
X369696D01*
X369532Y246050D01*
X369389Y246023D01*
X369259Y245988D01*
X369156Y245948D01*
X369068Y245900D01*
X369006Y245866D01*
X368965Y245838D01*
X368951Y245831D01*
X368842Y245736D01*
X368753Y245626D01*
X368671Y245504D01*
X368610Y245388D01*
X368562Y245285D01*
X368542Y245237D01*
X368521Y245196D01*
X368508Y245162D01*
X368501Y245135D01*
X368494Y245121D01*
Y245114D01*
X367906Y245251D01*
X367988Y245469D01*
X368036Y245572D01*
X368084Y245661D01*
X368139Y245749D01*
X368193Y245831D01*
X368241Y245900D01*
X368296Y245968D01*
X368344Y246023D01*
X368391Y246071D01*
X368439Y246118D01*
X368473Y246152D01*
X368508Y246180D01*
X368528Y246200D01*
X368542Y246207D01*
X368548Y246214D01*
X368637Y246275D01*
X368726Y246330D01*
X368822Y246378D01*
X368917Y246419D01*
X369109Y246480D01*
X369286Y246521D01*
X369368Y246535D01*
X369443Y246542D01*
X369512Y246549D01*
X369566Y246555D01*
X369614Y246562D01*
X369682D01*
X369901Y246549D01*
D02*
G37*
G36*
X370174Y275961D02*
X368699D01*
Y272000D01*
X368105D01*
Y275961D01*
X366629D01*
Y276487D01*
X370174D01*
Y275961D01*
D02*
G37*
G36*
X374422Y246555D02*
X374579Y246535D01*
X374716Y246514D01*
X374839Y246487D01*
X374935Y246453D01*
X374975Y246439D01*
X375010Y246432D01*
X375044Y246419D01*
X375064Y246412D01*
X375071Y246405D01*
X375078D01*
X375208Y246344D01*
X375324Y246269D01*
X375419Y246193D01*
X375495Y246125D01*
X375556Y246057D01*
X375604Y246002D01*
X375631Y245968D01*
X375638Y245961D01*
Y245954D01*
X375699Y245845D01*
X375747Y245729D01*
X375781Y245626D01*
X375802Y245524D01*
X375816Y245442D01*
X375829Y245381D01*
Y245353D01*
Y245333D01*
Y245326D01*
Y245319D01*
X375822Y245210D01*
X375802Y245101D01*
X375781Y245005D01*
X375747Y244923D01*
X375720Y244855D01*
X375699Y244807D01*
X375679Y244773D01*
X375672Y244759D01*
X375604Y244670D01*
X375529Y244588D01*
X375454Y244520D01*
X375372Y244459D01*
X375303Y244411D01*
X375249Y244377D01*
X375208Y244349D01*
X375201Y244342D01*
X375194D01*
X375146Y244315D01*
X375085Y244295D01*
X374955Y244247D01*
X374812Y244199D01*
X374668Y244151D01*
X374538Y244117D01*
X374484Y244103D01*
X374436Y244090D01*
X374395Y244076D01*
X374361Y244069D01*
X374340Y244062D01*
X374334D01*
X374224Y244035D01*
X374122Y244008D01*
X374026Y243987D01*
X373944Y243967D01*
X373876Y243946D01*
X373808Y243926D01*
X373753Y243912D01*
X373698Y243899D01*
X373657Y243885D01*
X373623Y243871D01*
X373569Y243858D01*
X373541Y243851D01*
X373534Y243844D01*
X373439Y243803D01*
X373350Y243755D01*
X373282Y243714D01*
X373227Y243673D01*
X373186Y243632D01*
X373152Y243605D01*
X373138Y243584D01*
X373131Y243578D01*
X373090Y243516D01*
X373063Y243455D01*
X373036Y243393D01*
X373022Y243332D01*
X373015Y243284D01*
X373008Y243243D01*
Y243215D01*
Y243209D01*
X373015Y243134D01*
X373029Y243065D01*
X373049Y242997D01*
X373070Y242942D01*
X373097Y242895D01*
X373118Y242860D01*
X373131Y242833D01*
X373138Y242826D01*
X373193Y242765D01*
X373254Y242710D01*
X373316Y242662D01*
X373384Y242621D01*
X373439Y242587D01*
X373487Y242567D01*
X373514Y242553D01*
X373528Y242546D01*
X373630Y242512D01*
X373732Y242492D01*
X373828Y242471D01*
X373924Y242464D01*
X373999Y242457D01*
X374067Y242451D01*
X374122D01*
X374258Y242457D01*
X374388Y242471D01*
X374511Y242492D01*
X374607Y242519D01*
X374695Y242539D01*
X374757Y242560D01*
X374798Y242573D01*
X374805Y242580D01*
X374812D01*
X374914Y242635D01*
X375010Y242690D01*
X375085Y242751D01*
X375146Y242806D01*
X375201Y242853D01*
X375235Y242895D01*
X375255Y242922D01*
X375262Y242929D01*
X375310Y243018D01*
X375351Y243106D01*
X375378Y243202D01*
X375406Y243291D01*
X375419Y243373D01*
X375433Y243434D01*
X375440Y243475D01*
Y243482D01*
Y243489D01*
X376000Y243441D01*
X375986Y243277D01*
X375959Y243127D01*
X375918Y242983D01*
X375877Y242867D01*
X375836Y242765D01*
X375816Y242724D01*
X375795Y242690D01*
X375781Y242662D01*
X375768Y242642D01*
X375761Y242635D01*
Y242628D01*
X375665Y242505D01*
X375556Y242396D01*
X375454Y242307D01*
X375344Y242232D01*
X375255Y242171D01*
X375180Y242130D01*
X375153Y242116D01*
X375133Y242102D01*
X375119Y242095D01*
X375112D01*
X374948Y242041D01*
X374777Y242000D01*
X374607Y241966D01*
X374450Y241945D01*
X374375Y241938D01*
X374306Y241932D01*
X374245D01*
X374197Y241925D01*
X374094D01*
X373917Y241932D01*
X373760Y241952D01*
X373609Y241979D01*
X373487Y242014D01*
X373377Y242041D01*
X373336Y242054D01*
X373302Y242068D01*
X373275Y242082D01*
X373254Y242089D01*
X373241Y242095D01*
X373234D01*
X373097Y242171D01*
X372974Y242246D01*
X372872Y242328D01*
X372790Y242410D01*
X372722Y242478D01*
X372681Y242532D01*
X372646Y242573D01*
X372640Y242587D01*
X372571Y242703D01*
X372523Y242826D01*
X372482Y242942D01*
X372462Y243045D01*
X372448Y243134D01*
X372435Y243202D01*
Y243229D01*
Y243250D01*
Y243256D01*
Y243263D01*
X372442Y243393D01*
X372462Y243516D01*
X372496Y243625D01*
X372530Y243714D01*
X372565Y243796D01*
X372599Y243851D01*
X372619Y243885D01*
X372626Y243899D01*
X372701Y243994D01*
X372790Y244083D01*
X372885Y244165D01*
X372981Y244233D01*
X373070Y244281D01*
X373138Y244322D01*
X373165Y244336D01*
X373179Y244349D01*
X373193Y244356D01*
X373200D01*
X373254Y244377D01*
X373323Y244404D01*
X373391Y244431D01*
X373473Y244452D01*
X373637Y244500D01*
X373801Y244547D01*
X373951Y244582D01*
X374019Y244602D01*
X374081Y244616D01*
X374129Y244629D01*
X374163Y244636D01*
X374190Y244643D01*
X374197D01*
X374327Y244677D01*
X374443Y244705D01*
X374545Y244732D01*
X374641Y244766D01*
X374723Y244793D01*
X374791Y244814D01*
X374853Y244841D01*
X374907Y244868D01*
X374955Y244889D01*
X374996Y244903D01*
X375023Y244923D01*
X375044Y244937D01*
X375078Y244957D01*
X375085Y244964D01*
X375139Y245025D01*
X375180Y245087D01*
X375215Y245155D01*
X375235Y245217D01*
X375249Y245271D01*
X375255Y245319D01*
Y245346D01*
Y245360D01*
X375242Y245463D01*
X375215Y245551D01*
X375180Y245633D01*
X375133Y245702D01*
X375092Y245763D01*
X375051Y245804D01*
X375023Y245831D01*
X375016Y245838D01*
X374969Y245872D01*
X374914Y245907D01*
X374791Y245954D01*
X374661Y245988D01*
X374532Y246009D01*
X374415Y246029D01*
X374361D01*
X374320Y246036D01*
X374231D01*
X374047Y246029D01*
X373889Y246002D01*
X373753Y245968D01*
X373644Y245927D01*
X373562Y245886D01*
X373500Y245852D01*
X373466Y245825D01*
X373452Y245818D01*
X373364Y245729D01*
X373288Y245626D01*
X373234Y245524D01*
X373193Y245422D01*
X373165Y245326D01*
X373152Y245251D01*
X373145Y245224D01*
X373138Y245203D01*
Y245189D01*
Y245183D01*
X372571Y245224D01*
X372585Y245367D01*
X372612Y245497D01*
X372653Y245620D01*
X372694Y245722D01*
X372728Y245804D01*
X372763Y245872D01*
X372790Y245913D01*
X372797Y245927D01*
X372879Y246036D01*
X372974Y246132D01*
X373070Y246214D01*
X373165Y246282D01*
X373254Y246330D01*
X373323Y246371D01*
X373350Y246385D01*
X373370Y246392D01*
X373377Y246398D01*
X373384D01*
X373528Y246453D01*
X373678Y246494D01*
X373828Y246521D01*
X373965Y246542D01*
X374081Y246555D01*
X374129D01*
X374176Y246562D01*
X374258D01*
X374422Y246555D01*
D02*
G37*
G36*
X371622Y232000D02*
X370010D01*
X369860Y232007D01*
X369723Y232014D01*
X369600Y232027D01*
X369498Y232041D01*
X369409Y232054D01*
X369348Y232061D01*
X369307Y232075D01*
X369293D01*
X369177Y232109D01*
X369074Y232143D01*
X368986Y232177D01*
X368911Y232211D01*
X368849Y232246D01*
X368801Y232273D01*
X368767Y232287D01*
X368760Y232294D01*
X368678Y232355D01*
X368603Y232423D01*
X368528Y232492D01*
X368473Y232553D01*
X368419Y232614D01*
X368385Y232662D01*
X368357Y232690D01*
X368350Y232703D01*
X368282Y232806D01*
X368221Y232915D01*
X368166Y233024D01*
X368125Y233127D01*
X368091Y233222D01*
X368063Y233291D01*
X368057Y233318D01*
X368050Y233338D01*
X368043Y233352D01*
Y233359D01*
X368002Y233509D01*
X367975Y233666D01*
X367947Y233823D01*
X367934Y233960D01*
X367927Y234083D01*
Y234138D01*
X367920Y234179D01*
Y234220D01*
Y234247D01*
Y234261D01*
Y234267D01*
X367927Y234486D01*
X367947Y234684D01*
X367975Y234862D01*
X367995Y234944D01*
X368009Y235019D01*
X368023Y235087D01*
X368043Y235148D01*
X368057Y235203D01*
X368070Y235244D01*
X368084Y235278D01*
X368091Y235306D01*
X368098Y235319D01*
Y235326D01*
X368173Y235497D01*
X368255Y235647D01*
X368344Y235777D01*
X368432Y235886D01*
X368508Y235975D01*
X368569Y236043D01*
X368617Y236084D01*
X368624Y236098D01*
X368630D01*
X368740Y236180D01*
X368849Y236248D01*
X368958Y236303D01*
X369061Y236344D01*
X369149Y236378D01*
X369225Y236398D01*
X369252Y236412D01*
X369266D01*
X369279Y236419D01*
X369286D01*
X369395Y236439D01*
X369525Y236460D01*
X369662Y236473D01*
X369785Y236480D01*
X369901Y236487D01*
X371622D01*
Y232000D01*
D02*
G37*
G36*
X308163Y246555D02*
X308333Y246535D01*
X308490Y246501D01*
X308634Y246467D01*
X308770Y246412D01*
X308900Y246364D01*
X309016Y246303D01*
X309126Y246248D01*
X309221Y246187D01*
X309303Y246125D01*
X309371Y246077D01*
X309433Y246030D01*
X309481Y245989D01*
X309515Y245954D01*
X309535Y245934D01*
X309542Y245927D01*
X309645Y245804D01*
X309740Y245674D01*
X309815Y245531D01*
X309884Y245388D01*
X309945Y245244D01*
X309993Y245101D01*
X310027Y244957D01*
X310061Y244821D01*
X310089Y244684D01*
X310102Y244568D01*
X310116Y244459D01*
X310130Y244363D01*
Y244288D01*
X310136Y244227D01*
Y244192D01*
Y244179D01*
X310123Y243960D01*
X310095Y243755D01*
X310054Y243564D01*
X310034Y243482D01*
X310007Y243400D01*
X309986Y243325D01*
X309966Y243257D01*
X309945Y243202D01*
X309925Y243154D01*
X309904Y243113D01*
X309897Y243086D01*
X309884Y243065D01*
Y243059D01*
X309774Y242874D01*
X309658Y242703D01*
X309529Y242567D01*
X309406Y242444D01*
X309296Y242348D01*
X309248Y242314D01*
X309208Y242280D01*
X309173Y242260D01*
X309146Y242239D01*
X309132Y242232D01*
X309126Y242225D01*
X309030Y242171D01*
X308934Y242130D01*
X308736Y242055D01*
X308545Y242000D01*
X308374Y241966D01*
X308292Y241952D01*
X308217Y241938D01*
X308156Y241932D01*
X308101D01*
X308053Y241925D01*
X307992D01*
X307780Y241938D01*
X307575Y241966D01*
X307391Y242014D01*
X307234Y242061D01*
X307159Y242089D01*
X307097Y242109D01*
X307042Y242137D01*
X306995Y242157D01*
X306954Y242171D01*
X306926Y242184D01*
X306913Y242198D01*
X306906D01*
X306728Y242314D01*
X306571Y242444D01*
X306435Y242581D01*
X306325Y242710D01*
X306243Y242826D01*
X306209Y242881D01*
X306175Y242922D01*
X306154Y242963D01*
X306141Y242990D01*
X306127Y243004D01*
Y243011D01*
X306032Y243216D01*
X305963Y243427D01*
X305915Y243632D01*
X305881Y243824D01*
X305868Y243912D01*
X305861Y243987D01*
X305854Y244056D01*
Y244117D01*
X305847Y244165D01*
Y244206D01*
Y244227D01*
Y244233D01*
X305861Y244479D01*
X305888Y244705D01*
X305929Y244910D01*
X305957Y244998D01*
X305977Y245087D01*
X306004Y245162D01*
X306032Y245231D01*
X306052Y245292D01*
X306073Y245340D01*
X306086Y245381D01*
X306100Y245408D01*
X306114Y245429D01*
Y245435D01*
X306223Y245627D01*
X306339Y245791D01*
X306469Y245934D01*
X306592Y246050D01*
X306701Y246139D01*
X306749Y246180D01*
X306790Y246207D01*
X306824Y246234D01*
X306851Y246248D01*
X306865Y246262D01*
X306872D01*
X306967Y246317D01*
X307063Y246364D01*
X307254Y246433D01*
X307445Y246487D01*
X307616Y246528D01*
X307698Y246535D01*
X307766Y246549D01*
X307835Y246555D01*
X307889D01*
X307930Y246562D01*
X307992D01*
X308163Y246555D01*
D02*
G37*
G36*
X312008Y266549D02*
X312213Y266521D01*
X312397Y266474D01*
X312479Y266453D01*
X312555Y266426D01*
X312623Y266398D01*
X312691Y266378D01*
X312746Y266351D01*
X312787Y266330D01*
X312828Y266316D01*
X312855Y266303D01*
X312869Y266289D01*
X312876D01*
X313046Y266180D01*
X313203Y266050D01*
X313333Y265920D01*
X313436Y265791D01*
X313524Y265674D01*
X313559Y265627D01*
X313586Y265586D01*
X313606Y265545D01*
X313620Y265517D01*
X313634Y265504D01*
Y265497D01*
X313722Y265299D01*
X313791Y265087D01*
X313832Y264882D01*
X313866Y264691D01*
X313879Y264602D01*
X313886Y264527D01*
X313893Y264452D01*
Y264390D01*
X313900Y264342D01*
Y264308D01*
Y264281D01*
Y264274D01*
X313893Y264035D01*
X313866Y263817D01*
X313825Y263612D01*
X313804Y263516D01*
X313784Y263434D01*
X313763Y263352D01*
X313743Y263284D01*
X313722Y263222D01*
X313702Y263168D01*
X313688Y263127D01*
X313675Y263099D01*
X313668Y263079D01*
Y263072D01*
X313572Y262874D01*
X313456Y262703D01*
X313347Y262553D01*
X313231Y262437D01*
X313135Y262341D01*
X313053Y262273D01*
X313019Y262252D01*
X312998Y262232D01*
X312985Y262225D01*
X312978Y262218D01*
X312889Y262164D01*
X312793Y262123D01*
X312602Y262048D01*
X312404Y262000D01*
X312213Y261959D01*
X312131Y261952D01*
X312049Y261938D01*
X311981Y261931D01*
X311919D01*
X311865Y261925D01*
X311796D01*
X311667Y261931D01*
X311544Y261938D01*
X311318Y261986D01*
X311216Y262014D01*
X311113Y262048D01*
X311025Y262082D01*
X310943Y262116D01*
X310868Y262150D01*
X310806Y262184D01*
X310751Y262218D01*
X310704Y262246D01*
X310663Y262273D01*
X310635Y262294D01*
X310622Y262300D01*
X310615Y262307D01*
X310526Y262382D01*
X310444Y262464D01*
X310307Y262642D01*
X310185Y262826D01*
X310096Y263011D01*
X310055Y263093D01*
X310027Y263168D01*
X310000Y263243D01*
X309973Y263298D01*
X309959Y263352D01*
X309945Y263386D01*
X309939Y263414D01*
Y263420D01*
X310533Y263571D01*
X310587Y263373D01*
X310656Y263195D01*
X310738Y263052D01*
X310813Y262929D01*
X310888Y262840D01*
X310949Y262772D01*
X310990Y262731D01*
X310997Y262724D01*
X311004Y262717D01*
X311141Y262621D01*
X311277Y262553D01*
X311421Y262498D01*
X311550Y262464D01*
X311667Y262444D01*
X311721Y262437D01*
X311762D01*
X311796Y262430D01*
X311844D01*
X311994Y262437D01*
X312138Y262464D01*
X312268Y262498D01*
X312377Y262532D01*
X312473Y262574D01*
X312548Y262601D01*
X312575Y262614D01*
X312596Y262628D01*
X312602Y262635D01*
X312609D01*
X312732Y262724D01*
X312835Y262826D01*
X312923Y262929D01*
X312998Y263038D01*
X313053Y263127D01*
X313087Y263209D01*
X313101Y263236D01*
X313115Y263257D01*
X313121Y263270D01*
Y263277D01*
X313176Y263441D01*
X313217Y263612D01*
X313244Y263782D01*
X313265Y263939D01*
X313272Y264008D01*
X313279Y264069D01*
Y264131D01*
X313285Y264179D01*
Y264219D01*
Y264247D01*
Y264267D01*
Y264274D01*
X313279Y264438D01*
X313265Y264595D01*
X313244Y264739D01*
X313217Y264868D01*
X313190Y264978D01*
X313183Y265025D01*
X313169Y265060D01*
X313162Y265094D01*
X313156Y265114D01*
X313149Y265128D01*
Y265135D01*
X313087Y265285D01*
X313012Y265422D01*
X312930Y265531D01*
X312855Y265627D01*
X312780Y265702D01*
X312718Y265756D01*
X312677Y265791D01*
X312671Y265804D01*
X312664D01*
X312527Y265886D01*
X312384Y265948D01*
X312240Y265995D01*
X312104Y266023D01*
X311981Y266043D01*
X311933Y266050D01*
X311885D01*
X311851Y266057D01*
X311803D01*
X311639Y266050D01*
X311496Y266023D01*
X311366Y265988D01*
X311264Y265948D01*
X311175Y265900D01*
X311113Y265866D01*
X311072Y265838D01*
X311059Y265831D01*
X310949Y265736D01*
X310861Y265627D01*
X310779Y265504D01*
X310717Y265388D01*
X310669Y265285D01*
X310649Y265237D01*
X310628Y265196D01*
X310615Y265162D01*
X310608Y265135D01*
X310601Y265121D01*
Y265114D01*
X310014Y265251D01*
X310096Y265469D01*
X310143Y265572D01*
X310191Y265661D01*
X310246Y265750D01*
X310301Y265831D01*
X310348Y265900D01*
X310403Y265968D01*
X310451Y266023D01*
X310499Y266071D01*
X310546Y266118D01*
X310581Y266152D01*
X310615Y266180D01*
X310635Y266200D01*
X310649Y266207D01*
X310656Y266214D01*
X310745Y266275D01*
X310833Y266330D01*
X310929Y266378D01*
X311025Y266419D01*
X311216Y266480D01*
X311393Y266521D01*
X311475Y266535D01*
X311550Y266542D01*
X311619Y266549D01*
X311673Y266555D01*
X311721Y266562D01*
X311789D01*
X312008Y266549D01*
D02*
G37*
G36*
X317006Y216549D02*
X317224Y216521D01*
X317429Y216474D01*
X317518Y216446D01*
X317600Y216426D01*
X317675Y216398D01*
X317743Y216371D01*
X317805Y216351D01*
X317853Y216323D01*
X317887Y216309D01*
X317921Y216296D01*
X317934Y216282D01*
X317941D01*
X318037Y216228D01*
X318119Y216166D01*
X318283Y216036D01*
X318413Y215900D01*
X318529Y215763D01*
X318611Y215633D01*
X318645Y215586D01*
X318679Y215538D01*
X318700Y215497D01*
X318713Y215469D01*
X318727Y215449D01*
Y215442D01*
X318816Y215230D01*
X318884Y215012D01*
X318932Y214807D01*
X318966Y214616D01*
X318980Y214534D01*
X318986Y214459D01*
X318993Y214390D01*
Y214329D01*
X319000Y214281D01*
Y214247D01*
Y214226D01*
Y214219D01*
X318986Y213981D01*
X318959Y213755D01*
X318911Y213550D01*
X318891Y213455D01*
X318863Y213373D01*
X318836Y213291D01*
X318816Y213222D01*
X318788Y213161D01*
X318768Y213113D01*
X318754Y213072D01*
X318741Y213045D01*
X318727Y213024D01*
Y213018D01*
X318611Y212833D01*
X318481Y212669D01*
X318351Y212526D01*
X318215Y212410D01*
X318098Y212321D01*
X318051Y212287D01*
X318003Y212259D01*
X317969Y212232D01*
X317934Y212218D01*
X317921Y212211D01*
X317914Y212205D01*
X317709Y212109D01*
X317497Y212041D01*
X317299Y211993D01*
X317108Y211959D01*
X317026Y211945D01*
X316951Y211938D01*
X316883Y211931D01*
X316821D01*
X316773Y211925D01*
X316712D01*
X316534Y211931D01*
X316357Y211952D01*
X316200Y211979D01*
X316056Y212014D01*
X315995Y212027D01*
X315933Y212041D01*
X315885Y212054D01*
X315844Y212068D01*
X315810Y212082D01*
X315783Y212089D01*
X315769Y212095D01*
X315763D01*
X315592Y212171D01*
X315421Y212252D01*
X315271Y212341D01*
X315134Y212423D01*
X315018Y212505D01*
X314970Y212532D01*
X314929Y212567D01*
X314895Y212587D01*
X314875Y212608D01*
X314861Y212614D01*
X314854Y212621D01*
Y214288D01*
X316753D01*
Y213762D01*
X315435D01*
Y212915D01*
X315517Y212854D01*
X315605Y212792D01*
X315694Y212737D01*
X315783Y212690D01*
X315865Y212649D01*
X315933Y212621D01*
X315961Y212608D01*
X315981Y212601D01*
X315988Y212594D01*
X315995D01*
X316131Y212546D01*
X316268Y212512D01*
X316398Y212485D01*
X316507Y212471D01*
X316603Y212457D01*
X316678Y212451D01*
X316746D01*
X316910Y212457D01*
X317067Y212478D01*
X317204Y212512D01*
X317334Y212546D01*
X317436Y212580D01*
X317484Y212601D01*
X317518Y212614D01*
X317545Y212621D01*
X317566Y212635D01*
X317579Y212642D01*
X317586D01*
X317723Y212724D01*
X317846Y212819D01*
X317948Y212922D01*
X318030Y213018D01*
X318092Y213106D01*
X318139Y213175D01*
X318160Y213202D01*
X318174Y213222D01*
X318180Y213236D01*
Y213243D01*
X318249Y213407D01*
X318297Y213571D01*
X318337Y213741D01*
X318358Y213905D01*
X318365Y213974D01*
X318372Y214042D01*
X318378Y214103D01*
Y214151D01*
X318385Y214199D01*
Y214226D01*
Y214247D01*
Y214254D01*
X318378Y214431D01*
X318358Y214602D01*
X318331Y214752D01*
X318297Y214889D01*
X318269Y214998D01*
X318255Y215046D01*
X318242Y215080D01*
X318228Y215114D01*
X318221Y215135D01*
X318215Y215148D01*
Y215155D01*
X318174Y215244D01*
X318133Y215326D01*
X318085Y215401D01*
X318037Y215469D01*
X317996Y215524D01*
X317962Y215565D01*
X317941Y215592D01*
X317934Y215599D01*
X317859Y215674D01*
X317784Y215736D01*
X317702Y215791D01*
X317627Y215838D01*
X317559Y215879D01*
X317504Y215907D01*
X317470Y215920D01*
X317456Y215927D01*
X317340Y215968D01*
X317224Y216002D01*
X317101Y216023D01*
X316992Y216043D01*
X316896Y216050D01*
X316821Y216057D01*
X316753D01*
X316630Y216050D01*
X316514Y216036D01*
X316411Y216016D01*
X316323Y215995D01*
X316248Y215975D01*
X316186Y215954D01*
X316152Y215941D01*
X316138Y215934D01*
X316036Y215886D01*
X315954Y215838D01*
X315879Y215784D01*
X315817Y215736D01*
X315769Y215688D01*
X315735Y215654D01*
X315715Y215627D01*
X315708Y215620D01*
X315653Y215538D01*
X315605Y215449D01*
X315564Y215360D01*
X315530Y215278D01*
X315503Y215196D01*
X315476Y215135D01*
X315469Y215094D01*
X315462Y215087D01*
Y215080D01*
X314922Y215230D01*
X314970Y215394D01*
X315025Y215538D01*
X315080Y215661D01*
X315134Y215763D01*
X315189Y215852D01*
X315230Y215913D01*
X315257Y215948D01*
X315264Y215961D01*
X315353Y216064D01*
X315455Y216146D01*
X315558Y216221D01*
X315660Y216282D01*
X315749Y216337D01*
X315817Y216371D01*
X315844Y216385D01*
X315865Y216391D01*
X315879Y216398D01*
X315885D01*
X316036Y216453D01*
X316186Y216494D01*
X316336Y216521D01*
X316466Y216542D01*
X316582Y216555D01*
X316637D01*
X316678Y216562D01*
X316760D01*
X317006Y216549D01*
D02*
G37*
G36*
X309339Y236555D02*
X309496Y236535D01*
X309633Y236514D01*
X309756Y236487D01*
X309851Y236453D01*
X309892Y236439D01*
X309926Y236433D01*
X309961Y236419D01*
X309981Y236412D01*
X309988Y236405D01*
X309995D01*
X310124Y236344D01*
X310241Y236269D01*
X310336Y236193D01*
X310411Y236125D01*
X310473Y236057D01*
X310521Y236002D01*
X310548Y235968D01*
X310555Y235961D01*
Y235954D01*
X310616Y235845D01*
X310664Y235729D01*
X310698Y235627D01*
X310719Y235524D01*
X310732Y235442D01*
X310746Y235381D01*
Y235353D01*
Y235333D01*
Y235326D01*
Y235319D01*
X310739Y235210D01*
X310719Y235101D01*
X310698Y235005D01*
X310664Y234923D01*
X310637Y234855D01*
X310616Y234807D01*
X310596Y234773D01*
X310589Y234759D01*
X310521Y234670D01*
X310445Y234588D01*
X310370Y234520D01*
X310288Y234459D01*
X310220Y234411D01*
X310166Y234377D01*
X310124Y234349D01*
X310118Y234343D01*
X310111D01*
X310063Y234315D01*
X310002Y234295D01*
X309872Y234247D01*
X309728Y234199D01*
X309585Y234151D01*
X309455Y234117D01*
X309401Y234103D01*
X309353Y234090D01*
X309312Y234076D01*
X309278Y234069D01*
X309257Y234063D01*
X309250D01*
X309141Y234035D01*
X309038Y234008D01*
X308943Y233987D01*
X308861Y233967D01*
X308793Y233946D01*
X308724Y233926D01*
X308670Y233912D01*
X308615Y233898D01*
X308574Y233885D01*
X308540Y233871D01*
X308485Y233858D01*
X308458Y233851D01*
X308451Y233844D01*
X308355Y233803D01*
X308267Y233755D01*
X308198Y233714D01*
X308144Y233673D01*
X308103Y233632D01*
X308069Y233605D01*
X308055Y233584D01*
X308048Y233577D01*
X308007Y233516D01*
X307980Y233455D01*
X307953Y233393D01*
X307939Y233332D01*
X307932Y233284D01*
X307925Y233243D01*
Y233215D01*
Y233209D01*
X307932Y233134D01*
X307946Y233065D01*
X307966Y232997D01*
X307987Y232942D01*
X308014Y232894D01*
X308034Y232860D01*
X308048Y232833D01*
X308055Y232826D01*
X308110Y232765D01*
X308171Y232710D01*
X308233Y232662D01*
X308301Y232621D01*
X308355Y232587D01*
X308403Y232567D01*
X308431Y232553D01*
X308444Y232546D01*
X308547Y232512D01*
X308649Y232492D01*
X308745Y232471D01*
X308840Y232464D01*
X308916Y232457D01*
X308984Y232451D01*
X309038D01*
X309175Y232457D01*
X309305Y232471D01*
X309428Y232492D01*
X309524Y232519D01*
X309612Y232539D01*
X309674Y232560D01*
X309715Y232574D01*
X309721Y232580D01*
X309728D01*
X309831Y232635D01*
X309926Y232690D01*
X310002Y232751D01*
X310063Y232806D01*
X310118Y232854D01*
X310152Y232894D01*
X310172Y232922D01*
X310179Y232929D01*
X310227Y233017D01*
X310268Y233106D01*
X310295Y233202D01*
X310323Y233291D01*
X310336Y233373D01*
X310350Y233434D01*
X310357Y233475D01*
Y233482D01*
Y233489D01*
X310917Y233441D01*
X310903Y233277D01*
X310876Y233127D01*
X310835Y232983D01*
X310794Y232867D01*
X310753Y232765D01*
X310732Y232724D01*
X310712Y232690D01*
X310698Y232662D01*
X310685Y232642D01*
X310678Y232635D01*
Y232628D01*
X310582Y232505D01*
X310473Y232396D01*
X310370Y232307D01*
X310261Y232232D01*
X310172Y232171D01*
X310097Y232130D01*
X310070Y232116D01*
X310049Y232102D01*
X310036Y232095D01*
X310029D01*
X309865Y232041D01*
X309694Y232000D01*
X309524Y231966D01*
X309366Y231945D01*
X309291Y231938D01*
X309223Y231931D01*
X309161D01*
X309114Y231925D01*
X309011D01*
X308834Y231931D01*
X308677Y231952D01*
X308526Y231979D01*
X308403Y232014D01*
X308294Y232041D01*
X308253Y232054D01*
X308219Y232068D01*
X308192Y232082D01*
X308171Y232089D01*
X308157Y232095D01*
X308151D01*
X308014Y232171D01*
X307891Y232246D01*
X307789Y232328D01*
X307707Y232410D01*
X307638Y232478D01*
X307597Y232533D01*
X307563Y232574D01*
X307556Y232587D01*
X307488Y232703D01*
X307440Y232826D01*
X307399Y232942D01*
X307379Y233045D01*
X307365Y233134D01*
X307351Y233202D01*
Y233229D01*
Y233250D01*
Y233257D01*
Y233263D01*
X307358Y233393D01*
X307379Y233516D01*
X307413Y233625D01*
X307447Y233714D01*
X307481Y233796D01*
X307516Y233851D01*
X307536Y233885D01*
X307543Y233898D01*
X307618Y233994D01*
X307707Y234083D01*
X307802Y234165D01*
X307898Y234233D01*
X307987Y234281D01*
X308055Y234322D01*
X308082Y234336D01*
X308096Y234349D01*
X308110Y234356D01*
X308117D01*
X308171Y234377D01*
X308239Y234404D01*
X308308Y234431D01*
X308390Y234452D01*
X308554Y234500D01*
X308717Y234547D01*
X308868Y234581D01*
X308936Y234602D01*
X308998Y234616D01*
X309045Y234629D01*
X309080Y234636D01*
X309107Y234643D01*
X309114D01*
X309243Y234677D01*
X309360Y234704D01*
X309462Y234732D01*
X309558Y234766D01*
X309640Y234793D01*
X309708Y234814D01*
X309769Y234841D01*
X309824Y234868D01*
X309872Y234889D01*
X309913Y234903D01*
X309940Y234923D01*
X309961Y234937D01*
X309995Y234957D01*
X310002Y234964D01*
X310056Y235026D01*
X310097Y235087D01*
X310131Y235155D01*
X310152Y235217D01*
X310166Y235271D01*
X310172Y235319D01*
Y235347D01*
Y235360D01*
X310159Y235463D01*
X310131Y235551D01*
X310097Y235633D01*
X310049Y235702D01*
X310008Y235763D01*
X309967Y235804D01*
X309940Y235831D01*
X309933Y235838D01*
X309886Y235872D01*
X309831Y235907D01*
X309708Y235954D01*
X309578Y235988D01*
X309448Y236009D01*
X309332Y236030D01*
X309278D01*
X309237Y236036D01*
X309148D01*
X308963Y236030D01*
X308806Y236002D01*
X308670Y235968D01*
X308560Y235927D01*
X308478Y235886D01*
X308417Y235852D01*
X308383Y235825D01*
X308369Y235818D01*
X308280Y235729D01*
X308205Y235627D01*
X308151Y235524D01*
X308110Y235422D01*
X308082Y235326D01*
X308069Y235251D01*
X308062Y235224D01*
X308055Y235203D01*
Y235189D01*
Y235183D01*
X307488Y235224D01*
X307502Y235367D01*
X307529Y235497D01*
X307570Y235620D01*
X307611Y235722D01*
X307645Y235804D01*
X307679Y235872D01*
X307707Y235913D01*
X307714Y235927D01*
X307796Y236036D01*
X307891Y236132D01*
X307987Y236214D01*
X308082Y236282D01*
X308171Y236330D01*
X308239Y236371D01*
X308267Y236385D01*
X308287Y236391D01*
X308294Y236398D01*
X308301D01*
X308444Y236453D01*
X308595Y236494D01*
X308745Y236521D01*
X308881Y236542D01*
X308998Y236555D01*
X309045D01*
X309093Y236562D01*
X309175D01*
X309339Y236555D01*
D02*
G37*
G36*
X313799D02*
X313970Y236535D01*
X314127Y236501D01*
X314270Y236467D01*
X314407Y236412D01*
X314537Y236364D01*
X314653Y236303D01*
X314762Y236248D01*
X314858Y236187D01*
X314940Y236125D01*
X315008Y236077D01*
X315069Y236030D01*
X315117Y235988D01*
X315151Y235954D01*
X315172Y235934D01*
X315179Y235927D01*
X315281Y235804D01*
X315377Y235674D01*
X315452Y235531D01*
X315520Y235387D01*
X315582Y235244D01*
X315630Y235101D01*
X315664Y234957D01*
X315698Y234821D01*
X315725Y234684D01*
X315739Y234568D01*
X315752Y234459D01*
X315766Y234363D01*
Y234288D01*
X315773Y234226D01*
Y234192D01*
Y234179D01*
X315759Y233960D01*
X315732Y233755D01*
X315691Y233564D01*
X315670Y233482D01*
X315643Y233400D01*
X315623Y233325D01*
X315602Y233257D01*
X315582Y233202D01*
X315561Y233154D01*
X315541Y233113D01*
X315534Y233086D01*
X315520Y233065D01*
Y233058D01*
X315411Y232874D01*
X315295Y232703D01*
X315165Y232567D01*
X315042Y232444D01*
X314933Y232348D01*
X314885Y232314D01*
X314844Y232280D01*
X314810Y232259D01*
X314783Y232239D01*
X314769Y232232D01*
X314762Y232225D01*
X314667Y232171D01*
X314571Y232130D01*
X314373Y232054D01*
X314181Y232000D01*
X314011Y231966D01*
X313929Y231952D01*
X313854Y231938D01*
X313792Y231931D01*
X313738D01*
X313690Y231925D01*
X313628D01*
X313417Y231938D01*
X313212Y231966D01*
X313027Y232014D01*
X312870Y232061D01*
X312795Y232089D01*
X312734Y232109D01*
X312679Y232136D01*
X312631Y232157D01*
X312590Y232171D01*
X312563Y232184D01*
X312549Y232198D01*
X312542D01*
X312365Y232314D01*
X312208Y232444D01*
X312071Y232580D01*
X311962Y232710D01*
X311880Y232826D01*
X311846Y232881D01*
X311811Y232922D01*
X311791Y232963D01*
X311777Y232990D01*
X311764Y233004D01*
Y233011D01*
X311668Y233215D01*
X311600Y233427D01*
X311552Y233632D01*
X311518Y233823D01*
X311504Y233912D01*
X311497Y233987D01*
X311491Y234056D01*
Y234117D01*
X311484Y234165D01*
Y234206D01*
Y234226D01*
Y234233D01*
X311497Y234479D01*
X311525Y234704D01*
X311566Y234909D01*
X311593Y234998D01*
X311613Y235087D01*
X311641Y235162D01*
X311668Y235230D01*
X311689Y235292D01*
X311709Y235340D01*
X311723Y235381D01*
X311736Y235408D01*
X311750Y235429D01*
Y235435D01*
X311859Y235627D01*
X311975Y235790D01*
X312105Y235934D01*
X312228Y236050D01*
X312337Y236139D01*
X312385Y236180D01*
X312426Y236207D01*
X312460Y236234D01*
X312488Y236248D01*
X312501Y236262D01*
X312508D01*
X312604Y236316D01*
X312699Y236364D01*
X312891Y236433D01*
X313082Y236487D01*
X313253Y236528D01*
X313335Y236535D01*
X313403Y236549D01*
X313471Y236555D01*
X313526D01*
X313567Y236562D01*
X313628D01*
X313799Y236555D01*
D02*
G37*
G36*
X306436Y232000D02*
X305842D01*
Y236487D01*
X306436D01*
Y232000D01*
D02*
G37*
G36*
X309551Y252000D02*
X308957D01*
Y253557D01*
X308226Y254260D01*
X306628Y252000D01*
X305842D01*
X307809Y254663D01*
X305924Y256487D01*
X306730D01*
X308957Y254267D01*
Y256487D01*
X309551D01*
Y252000D01*
D02*
G37*
G36*
X321112Y242000D02*
X320538D01*
Y245818D01*
X319248Y242000D01*
X318715D01*
X317404Y245756D01*
Y242000D01*
X316830D01*
Y246487D01*
X317636D01*
X318708Y243366D01*
X318763Y243195D01*
X318817Y243052D01*
X318858Y242929D01*
X318886Y242826D01*
X318913Y242751D01*
X318934Y242697D01*
X318940Y242662D01*
X318947Y242649D01*
X318974Y242738D01*
X319009Y242847D01*
X319043Y242956D01*
X319077Y243065D01*
X319111Y243161D01*
X319138Y243236D01*
X319145Y243270D01*
X319152Y243291D01*
X319159Y243304D01*
Y243311D01*
X320224Y246487D01*
X321112D01*
Y242000D01*
D02*
G37*
G36*
X316845Y256555D02*
X317002Y256535D01*
X317139Y256514D01*
X317262Y256487D01*
X317358Y256453D01*
X317399Y256439D01*
X317433Y256433D01*
X317467Y256419D01*
X317487Y256412D01*
X317494Y256405D01*
X317501D01*
X317631Y256344D01*
X317747Y256269D01*
X317843Y256193D01*
X317918Y256125D01*
X317979Y256057D01*
X318027Y256002D01*
X318054Y255968D01*
X318061Y255961D01*
Y255954D01*
X318123Y255845D01*
X318170Y255729D01*
X318204Y255627D01*
X318225Y255524D01*
X318239Y255442D01*
X318252Y255381D01*
Y255353D01*
Y255333D01*
Y255326D01*
Y255319D01*
X318246Y255210D01*
X318225Y255101D01*
X318204Y255005D01*
X318170Y254923D01*
X318143Y254855D01*
X318123Y254807D01*
X318102Y254773D01*
X318095Y254759D01*
X318027Y254670D01*
X317952Y254588D01*
X317877Y254520D01*
X317795Y254459D01*
X317726Y254411D01*
X317672Y254377D01*
X317631Y254349D01*
X317624Y254343D01*
X317617D01*
X317569Y254315D01*
X317508Y254295D01*
X317378Y254247D01*
X317235Y254199D01*
X317091Y254151D01*
X316961Y254117D01*
X316907Y254103D01*
X316859Y254090D01*
X316818Y254076D01*
X316784Y254069D01*
X316763Y254063D01*
X316757D01*
X316647Y254035D01*
X316545Y254008D01*
X316449Y253987D01*
X316367Y253967D01*
X316299Y253946D01*
X316231Y253926D01*
X316176Y253912D01*
X316121Y253899D01*
X316080Y253885D01*
X316046Y253871D01*
X315992Y253858D01*
X315964Y253851D01*
X315957Y253844D01*
X315862Y253803D01*
X315773Y253755D01*
X315705Y253714D01*
X315650Y253673D01*
X315609Y253632D01*
X315575Y253605D01*
X315561Y253584D01*
X315554Y253577D01*
X315513Y253516D01*
X315486Y253455D01*
X315459Y253393D01*
X315445Y253332D01*
X315438Y253284D01*
X315431Y253243D01*
Y253216D01*
Y253209D01*
X315438Y253134D01*
X315452Y253065D01*
X315473Y252997D01*
X315493Y252942D01*
X315520Y252894D01*
X315541Y252860D01*
X315554Y252833D01*
X315561Y252826D01*
X315616Y252765D01*
X315677Y252710D01*
X315739Y252662D01*
X315807Y252621D01*
X315862Y252587D01*
X315910Y252567D01*
X315937Y252553D01*
X315951Y252546D01*
X316053Y252512D01*
X316156Y252492D01*
X316251Y252471D01*
X316347Y252464D01*
X316422Y252457D01*
X316490Y252451D01*
X316545D01*
X316681Y252457D01*
X316811Y252471D01*
X316934Y252492D01*
X317030Y252519D01*
X317119Y252539D01*
X317180Y252560D01*
X317221Y252573D01*
X317228Y252580D01*
X317235D01*
X317337Y252635D01*
X317433Y252690D01*
X317508Y252751D01*
X317569Y252806D01*
X317624Y252853D01*
X317658Y252894D01*
X317679Y252922D01*
X317685Y252929D01*
X317733Y253017D01*
X317774Y253106D01*
X317801Y253202D01*
X317829Y253291D01*
X317843Y253373D01*
X317856Y253434D01*
X317863Y253475D01*
Y253482D01*
Y253489D01*
X318423Y253441D01*
X318409Y253277D01*
X318382Y253127D01*
X318341Y252983D01*
X318300Y252867D01*
X318259Y252765D01*
X318239Y252724D01*
X318218Y252690D01*
X318204Y252662D01*
X318191Y252642D01*
X318184Y252635D01*
Y252628D01*
X318088Y252505D01*
X317979Y252396D01*
X317877Y252307D01*
X317767Y252232D01*
X317679Y252171D01*
X317603Y252130D01*
X317576Y252116D01*
X317556Y252102D01*
X317542Y252095D01*
X317535D01*
X317371Y252041D01*
X317200Y252000D01*
X317030Y251966D01*
X316873Y251945D01*
X316797Y251938D01*
X316729Y251932D01*
X316668D01*
X316620Y251925D01*
X316517D01*
X316340Y251932D01*
X316183Y251952D01*
X316033Y251979D01*
X315910Y252013D01*
X315800Y252041D01*
X315759Y252054D01*
X315725Y252068D01*
X315698Y252082D01*
X315677Y252089D01*
X315664Y252095D01*
X315657D01*
X315520Y252171D01*
X315397Y252246D01*
X315295Y252328D01*
X315213Y252410D01*
X315145Y252478D01*
X315104Y252533D01*
X315070Y252573D01*
X315063Y252587D01*
X314994Y252703D01*
X314947Y252826D01*
X314906Y252942D01*
X314885Y253045D01*
X314871Y253134D01*
X314858Y253202D01*
Y253229D01*
Y253250D01*
Y253257D01*
Y253263D01*
X314865Y253393D01*
X314885Y253516D01*
X314919Y253625D01*
X314953Y253714D01*
X314988Y253796D01*
X315022Y253851D01*
X315042Y253885D01*
X315049Y253899D01*
X315124Y253994D01*
X315213Y254083D01*
X315309Y254165D01*
X315404Y254233D01*
X315493Y254281D01*
X315561Y254322D01*
X315589Y254336D01*
X315602Y254349D01*
X315616Y254356D01*
X315623D01*
X315677Y254377D01*
X315746Y254404D01*
X315814Y254431D01*
X315896Y254452D01*
X316060Y254500D01*
X316224Y254547D01*
X316374Y254581D01*
X316442Y254602D01*
X316504Y254616D01*
X316552Y254629D01*
X316586Y254636D01*
X316613Y254643D01*
X316620D01*
X316750Y254677D01*
X316866Y254704D01*
X316968Y254732D01*
X317064Y254766D01*
X317146Y254793D01*
X317214Y254814D01*
X317276Y254841D01*
X317330Y254868D01*
X317378Y254889D01*
X317419Y254903D01*
X317446Y254923D01*
X317467Y254937D01*
X317501Y254957D01*
X317508Y254964D01*
X317563Y255026D01*
X317603Y255087D01*
X317638Y255155D01*
X317658Y255217D01*
X317672Y255271D01*
X317679Y255319D01*
Y255346D01*
Y255360D01*
X317665Y255463D01*
X317638Y255551D01*
X317603Y255633D01*
X317556Y255702D01*
X317515Y255763D01*
X317474Y255804D01*
X317446Y255831D01*
X317440Y255838D01*
X317392Y255872D01*
X317337Y255907D01*
X317214Y255954D01*
X317084Y255989D01*
X316955Y256009D01*
X316839Y256030D01*
X316784D01*
X316743Y256036D01*
X316654D01*
X316470Y256030D01*
X316313Y256002D01*
X316176Y255968D01*
X316067Y255927D01*
X315985Y255886D01*
X315923Y255852D01*
X315889Y255825D01*
X315876Y255818D01*
X315787Y255729D01*
X315711Y255627D01*
X315657Y255524D01*
X315616Y255422D01*
X315589Y255326D01*
X315575Y255251D01*
X315568Y255224D01*
X315561Y255203D01*
Y255189D01*
Y255183D01*
X314994Y255224D01*
X315008Y255367D01*
X315035Y255497D01*
X315076Y255620D01*
X315117Y255722D01*
X315152Y255804D01*
X315186Y255872D01*
X315213Y255913D01*
X315220Y255927D01*
X315302Y256036D01*
X315397Y256132D01*
X315493Y256214D01*
X315589Y256282D01*
X315677Y256330D01*
X315746Y256371D01*
X315773Y256385D01*
X315793Y256392D01*
X315800Y256398D01*
X315807D01*
X315951Y256453D01*
X316101Y256494D01*
X316251Y256521D01*
X316388Y256542D01*
X316504Y256555D01*
X316552D01*
X316599Y256562D01*
X316681D01*
X316845Y256555D01*
D02*
G37*
G36*
X312324Y256549D02*
X312529Y256521D01*
X312713Y256473D01*
X312795Y256453D01*
X312870Y256426D01*
X312938Y256398D01*
X313007Y256378D01*
X313061Y256350D01*
X313103Y256330D01*
X313143Y256316D01*
X313171Y256303D01*
X313184Y256289D01*
X313191D01*
X313362Y256180D01*
X313519Y256050D01*
X313649Y255920D01*
X313751Y255790D01*
X313840Y255674D01*
X313874Y255627D01*
X313902Y255586D01*
X313922Y255545D01*
X313936Y255517D01*
X313949Y255504D01*
Y255497D01*
X314038Y255299D01*
X314106Y255087D01*
X314147Y254882D01*
X314182Y254691D01*
X314195Y254602D01*
X314202Y254527D01*
X314209Y254452D01*
Y254390D01*
X314216Y254343D01*
Y254308D01*
Y254281D01*
Y254274D01*
X314209Y254035D01*
X314182Y253817D01*
X314141Y253612D01*
X314120Y253516D01*
X314100Y253434D01*
X314079Y253352D01*
X314059Y253284D01*
X314038Y253222D01*
X314018Y253168D01*
X314004Y253127D01*
X313990Y253099D01*
X313983Y253079D01*
Y253072D01*
X313888Y252874D01*
X313772Y252703D01*
X313663Y252553D01*
X313546Y252437D01*
X313451Y252341D01*
X313369Y252273D01*
X313335Y252253D01*
X313314Y252232D01*
X313300Y252225D01*
X313294Y252218D01*
X313205Y252164D01*
X313109Y252123D01*
X312918Y252048D01*
X312720Y252000D01*
X312529Y251959D01*
X312447Y251952D01*
X312365Y251938D01*
X312297Y251932D01*
X312235D01*
X312180Y251925D01*
X312112D01*
X311982Y251932D01*
X311859Y251938D01*
X311634Y251986D01*
X311532Y252013D01*
X311429Y252048D01*
X311340Y252082D01*
X311258Y252116D01*
X311183Y252150D01*
X311122Y252184D01*
X311067Y252218D01*
X311019Y252246D01*
X310978Y252273D01*
X310951Y252293D01*
X310937Y252300D01*
X310930Y252307D01*
X310842Y252382D01*
X310760Y252464D01*
X310623Y252642D01*
X310500Y252826D01*
X310412Y253011D01*
X310370Y253093D01*
X310343Y253168D01*
X310316Y253243D01*
X310289Y253297D01*
X310275Y253352D01*
X310261Y253386D01*
X310254Y253414D01*
Y253420D01*
X310849Y253571D01*
X310903Y253373D01*
X310971Y253195D01*
X311053Y253052D01*
X311129Y252929D01*
X311204Y252840D01*
X311265Y252772D01*
X311306Y252731D01*
X311313Y252724D01*
X311320Y252717D01*
X311456Y252621D01*
X311593Y252553D01*
X311736Y252498D01*
X311866Y252464D01*
X311982Y252444D01*
X312037Y252437D01*
X312078D01*
X312112Y252430D01*
X312160D01*
X312310Y252437D01*
X312454Y252464D01*
X312583Y252498D01*
X312693Y252533D01*
X312788Y252573D01*
X312863Y252601D01*
X312891Y252614D01*
X312911Y252628D01*
X312918Y252635D01*
X312925D01*
X313048Y252724D01*
X313150Y252826D01*
X313239Y252929D01*
X313314Y253038D01*
X313369Y253127D01*
X313403Y253209D01*
X313417Y253236D01*
X313430Y253257D01*
X313437Y253270D01*
Y253277D01*
X313492Y253441D01*
X313533Y253612D01*
X313560Y253782D01*
X313581Y253940D01*
X313587Y254008D01*
X313594Y254069D01*
Y254131D01*
X313601Y254179D01*
Y254220D01*
Y254247D01*
Y254267D01*
Y254274D01*
X313594Y254438D01*
X313581Y254595D01*
X313560Y254739D01*
X313533Y254868D01*
X313505Y254978D01*
X313499Y255026D01*
X313485Y255060D01*
X313478Y255094D01*
X313471Y255114D01*
X313464Y255128D01*
Y255135D01*
X313403Y255285D01*
X313328Y255422D01*
X313246Y255531D01*
X313171Y255627D01*
X313096Y255702D01*
X313034Y255756D01*
X312993Y255790D01*
X312986Y255804D01*
X312980D01*
X312843Y255886D01*
X312700Y255947D01*
X312556Y255995D01*
X312420Y256023D01*
X312297Y256043D01*
X312249Y256050D01*
X312201D01*
X312167Y256057D01*
X312119D01*
X311955Y256050D01*
X311812Y256023D01*
X311682Y255989D01*
X311579Y255947D01*
X311491Y255900D01*
X311429Y255866D01*
X311388Y255838D01*
X311374Y255831D01*
X311265Y255736D01*
X311176Y255627D01*
X311094Y255504D01*
X311033Y255387D01*
X310985Y255285D01*
X310965Y255237D01*
X310944Y255196D01*
X310930Y255162D01*
X310924Y255135D01*
X310917Y255121D01*
Y255114D01*
X310330Y255251D01*
X310412Y255469D01*
X310459Y255572D01*
X310507Y255661D01*
X310562Y255750D01*
X310616Y255831D01*
X310664Y255900D01*
X310719Y255968D01*
X310767Y256023D01*
X310814Y256070D01*
X310862Y256118D01*
X310896Y256152D01*
X310930Y256180D01*
X310951Y256200D01*
X310965Y256207D01*
X310971Y256214D01*
X311060Y256275D01*
X311149Y256330D01*
X311245Y256378D01*
X311340Y256419D01*
X311532Y256480D01*
X311709Y256521D01*
X311791Y256535D01*
X311866Y256542D01*
X311934Y256549D01*
X311989Y256555D01*
X312037Y256562D01*
X312105D01*
X312324Y256549D01*
D02*
G37*
G36*
X311980Y226494D02*
X312151Y226460D01*
X312308Y226412D01*
X312438Y226357D01*
X312541Y226296D01*
X312581Y226269D01*
X312616Y226248D01*
X312650Y226228D01*
X312670Y226214D01*
X312677Y226207D01*
X312684Y226200D01*
X312807Y226077D01*
X312902Y225941D01*
X312984Y225797D01*
X313039Y225661D01*
X313087Y225538D01*
X313101Y225483D01*
X313114Y225435D01*
X313121Y225401D01*
X313128Y225374D01*
X313135Y225353D01*
Y225346D01*
X312581Y225251D01*
X312554Y225394D01*
X312513Y225517D01*
X312472Y225620D01*
X312424Y225702D01*
X312383Y225770D01*
X312349Y225818D01*
X312322Y225845D01*
X312315Y225852D01*
X312226Y225920D01*
X312138Y225968D01*
X312049Y226009D01*
X311960Y226029D01*
X311892Y226043D01*
X311830Y226057D01*
X311775D01*
X311659Y226050D01*
X311557Y226023D01*
X311468Y225995D01*
X311393Y225954D01*
X311332Y225920D01*
X311284Y225886D01*
X311256Y225859D01*
X311250Y225852D01*
X311181Y225777D01*
X311134Y225688D01*
X311092Y225606D01*
X311072Y225531D01*
X311058Y225456D01*
X311045Y225401D01*
Y225367D01*
Y225360D01*
Y225353D01*
X311058Y225217D01*
X311092Y225101D01*
X311134Y225005D01*
X311188Y224930D01*
X311243Y224868D01*
X311284Y224821D01*
X311318Y224793D01*
X311332Y224786D01*
X311441Y224725D01*
X311550Y224684D01*
X311653Y224650D01*
X311748Y224629D01*
X311837Y224616D01*
X311898Y224609D01*
X311987D01*
X312015Y224616D01*
X312049D01*
X312110Y224131D01*
X312028Y224151D01*
X311953Y224165D01*
X311885Y224172D01*
X311830Y224179D01*
X311782Y224185D01*
X311721D01*
X311584Y224172D01*
X311468Y224144D01*
X311359Y224110D01*
X311270Y224062D01*
X311195Y224015D01*
X311140Y223980D01*
X311113Y223953D01*
X311099Y223939D01*
X311017Y223844D01*
X310956Y223741D01*
X310908Y223632D01*
X310881Y223536D01*
X310860Y223448D01*
X310853Y223379D01*
X310847Y223352D01*
Y223332D01*
Y223325D01*
Y223318D01*
X310860Y223175D01*
X310888Y223045D01*
X310929Y222929D01*
X310976Y222833D01*
X311031Y222751D01*
X311072Y222696D01*
X311099Y222662D01*
X311113Y222649D01*
X311215Y222560D01*
X311325Y222492D01*
X311434Y222451D01*
X311543Y222416D01*
X311632Y222396D01*
X311700Y222389D01*
X311728Y222382D01*
X311769D01*
X311885Y222389D01*
X311994Y222416D01*
X312090Y222451D01*
X312165Y222485D01*
X312233Y222526D01*
X312281Y222553D01*
X312308Y222580D01*
X312322Y222587D01*
X312397Y222676D01*
X312465Y222778D01*
X312520Y222895D01*
X312561Y223004D01*
X312595Y223106D01*
X312616Y223188D01*
X312629Y223216D01*
Y223243D01*
X312636Y223256D01*
Y223263D01*
X313189Y223188D01*
X313176Y223086D01*
X313155Y222990D01*
X313094Y222813D01*
X313025Y222656D01*
X312943Y222519D01*
X312909Y222464D01*
X312868Y222416D01*
X312834Y222375D01*
X312807Y222335D01*
X312779Y222307D01*
X312759Y222287D01*
X312752Y222280D01*
X312745Y222273D01*
X312670Y222212D01*
X312588Y222157D01*
X312513Y222109D01*
X312431Y222075D01*
X312267Y222007D01*
X312110Y221966D01*
X312042Y221952D01*
X311974Y221945D01*
X311919Y221938D01*
X311864Y221932D01*
X311823Y221925D01*
X311769D01*
X311653Y221932D01*
X311536Y221945D01*
X311427Y221959D01*
X311325Y221986D01*
X311229Y222020D01*
X311140Y222054D01*
X311058Y222089D01*
X310983Y222130D01*
X310922Y222164D01*
X310860Y222198D01*
X310806Y222232D01*
X310765Y222266D01*
X310731Y222293D01*
X310710Y222307D01*
X310696Y222321D01*
X310689Y222328D01*
X310614Y222410D01*
X310546Y222492D01*
X310491Y222573D01*
X310444Y222656D01*
X310396Y222737D01*
X310362Y222826D01*
X310314Y222983D01*
X310293Y223052D01*
X310280Y223120D01*
X310273Y223175D01*
X310266Y223229D01*
X310259Y223270D01*
Y223298D01*
Y223318D01*
Y223325D01*
X310266Y223482D01*
X310293Y223625D01*
X310328Y223748D01*
X310368Y223851D01*
X310416Y223933D01*
X310451Y223994D01*
X310478Y224035D01*
X310485Y224049D01*
X310573Y224151D01*
X310676Y224233D01*
X310778Y224302D01*
X310874Y224349D01*
X310963Y224390D01*
X311031Y224411D01*
X311058Y224424D01*
X311079D01*
X311092Y224431D01*
X311099D01*
X310990Y224486D01*
X310894Y224554D01*
X310819Y224616D01*
X310751Y224677D01*
X310703Y224732D01*
X310662Y224773D01*
X310642Y224800D01*
X310635Y224814D01*
X310580Y224903D01*
X310546Y224998D01*
X310519Y225087D01*
X310498Y225169D01*
X310485Y225237D01*
X310478Y225292D01*
Y225326D01*
Y225340D01*
X310485Y225456D01*
X310505Y225558D01*
X310532Y225654D01*
X310560Y225743D01*
X310587Y225811D01*
X310614Y225866D01*
X310635Y225900D01*
X310642Y225913D01*
X310710Y226009D01*
X310785Y226098D01*
X310867Y226173D01*
X310942Y226234D01*
X311011Y226282D01*
X311065Y226316D01*
X311106Y226337D01*
X311113Y226344D01*
X311120D01*
X311236Y226398D01*
X311352Y226439D01*
X311468Y226467D01*
X311571Y226487D01*
X311659Y226501D01*
X311728Y226508D01*
X311885D01*
X311980Y226494D01*
D02*
G37*
G36*
X317205D02*
X317376Y226460D01*
X317533Y226412D01*
X317663Y226357D01*
X317765Y226296D01*
X317806Y226269D01*
X317841Y226248D01*
X317875Y226228D01*
X317895Y226214D01*
X317902Y226207D01*
X317909Y226200D01*
X318032Y226077D01*
X318127Y225941D01*
X318209Y225797D01*
X318264Y225661D01*
X318312Y225538D01*
X318325Y225483D01*
X318339Y225435D01*
X318346Y225401D01*
X318353Y225374D01*
X318360Y225353D01*
Y225346D01*
X317806Y225251D01*
X317779Y225394D01*
X317738Y225517D01*
X317697Y225620D01*
X317649Y225702D01*
X317608Y225770D01*
X317574Y225818D01*
X317547Y225845D01*
X317540Y225852D01*
X317451Y225920D01*
X317362Y225968D01*
X317274Y226009D01*
X317185Y226029D01*
X317117Y226043D01*
X317055Y226057D01*
X317000D01*
X316884Y226050D01*
X316782Y226023D01*
X316693Y225995D01*
X316618Y225954D01*
X316557Y225920D01*
X316509Y225886D01*
X316481Y225859D01*
X316475Y225852D01*
X316406Y225777D01*
X316358Y225688D01*
X316317Y225606D01*
X316297Y225531D01*
X316283Y225456D01*
X316270Y225401D01*
Y225367D01*
Y225360D01*
Y225353D01*
X316283Y225217D01*
X316317Y225101D01*
X316358Y225005D01*
X316413Y224930D01*
X316468Y224868D01*
X316509Y224821D01*
X316543Y224793D01*
X316557Y224786D01*
X316666Y224725D01*
X316775Y224684D01*
X316878Y224650D01*
X316973Y224629D01*
X317062Y224616D01*
X317123Y224609D01*
X317212D01*
X317239Y224616D01*
X317274D01*
X317335Y224131D01*
X317253Y224151D01*
X317178Y224165D01*
X317110Y224172D01*
X317055Y224179D01*
X317007Y224185D01*
X316946D01*
X316809Y224172D01*
X316693Y224144D01*
X316584Y224110D01*
X316495Y224062D01*
X316420Y224015D01*
X316365Y223980D01*
X316338Y223953D01*
X316324Y223939D01*
X316242Y223844D01*
X316181Y223741D01*
X316133Y223632D01*
X316106Y223536D01*
X316085Y223448D01*
X316078Y223379D01*
X316072Y223352D01*
Y223332D01*
Y223325D01*
Y223318D01*
X316085Y223175D01*
X316112Y223045D01*
X316154Y222929D01*
X316201Y222833D01*
X316256Y222751D01*
X316297Y222696D01*
X316324Y222662D01*
X316338Y222649D01*
X316440Y222560D01*
X316550Y222492D01*
X316659Y222451D01*
X316768Y222416D01*
X316857Y222396D01*
X316925Y222389D01*
X316953Y222382D01*
X316994D01*
X317110Y222389D01*
X317219Y222416D01*
X317315Y222451D01*
X317390Y222485D01*
X317458Y222526D01*
X317506Y222553D01*
X317533Y222580D01*
X317547Y222587D01*
X317622Y222676D01*
X317690Y222778D01*
X317745Y222895D01*
X317786Y223004D01*
X317820Y223106D01*
X317841Y223188D01*
X317854Y223216D01*
Y223243D01*
X317861Y223256D01*
Y223263D01*
X318414Y223188D01*
X318401Y223086D01*
X318380Y222990D01*
X318319Y222813D01*
X318250Y222656D01*
X318168Y222519D01*
X318134Y222464D01*
X318093Y222416D01*
X318059Y222375D01*
X318032Y222335D01*
X318004Y222307D01*
X317984Y222287D01*
X317977Y222280D01*
X317970Y222273D01*
X317895Y222212D01*
X317813Y222157D01*
X317738Y222109D01*
X317656Y222075D01*
X317492Y222007D01*
X317335Y221966D01*
X317267Y221952D01*
X317198Y221945D01*
X317144Y221938D01*
X317089Y221932D01*
X317048Y221925D01*
X316994D01*
X316878Y221932D01*
X316761Y221945D01*
X316652Y221959D01*
X316550Y221986D01*
X316454Y222020D01*
X316365Y222054D01*
X316283Y222089D01*
X316208Y222130D01*
X316147Y222164D01*
X316085Y222198D01*
X316031Y222232D01*
X315990Y222266D01*
X315955Y222293D01*
X315935Y222307D01*
X315921Y222321D01*
X315915Y222328D01*
X315839Y222410D01*
X315771Y222492D01*
X315716Y222573D01*
X315669Y222656D01*
X315621Y222737D01*
X315587Y222826D01*
X315539Y222983D01*
X315518Y223052D01*
X315505Y223120D01*
X315498Y223175D01*
X315491Y223229D01*
X315484Y223270D01*
Y223298D01*
Y223318D01*
Y223325D01*
X315491Y223482D01*
X315518Y223625D01*
X315552Y223748D01*
X315594Y223851D01*
X315641Y223933D01*
X315675Y223994D01*
X315703Y224035D01*
X315710Y224049D01*
X315798Y224151D01*
X315901Y224233D01*
X316003Y224302D01*
X316099Y224349D01*
X316188Y224390D01*
X316256Y224411D01*
X316283Y224424D01*
X316304D01*
X316317Y224431D01*
X316324D01*
X316215Y224486D01*
X316119Y224554D01*
X316044Y224616D01*
X315976Y224677D01*
X315928Y224732D01*
X315887Y224773D01*
X315867Y224800D01*
X315860Y224814D01*
X315805Y224903D01*
X315771Y224998D01*
X315744Y225087D01*
X315723Y225169D01*
X315710Y225237D01*
X315703Y225292D01*
Y225326D01*
Y225340D01*
X315710Y225456D01*
X315730Y225558D01*
X315757Y225654D01*
X315785Y225743D01*
X315812Y225811D01*
X315839Y225866D01*
X315860Y225900D01*
X315867Y225913D01*
X315935Y226009D01*
X316010Y226098D01*
X316092Y226173D01*
X316167Y226234D01*
X316235Y226282D01*
X316290Y226316D01*
X316331Y226337D01*
X316338Y226344D01*
X316345D01*
X316461Y226398D01*
X316577Y226439D01*
X316693Y226467D01*
X316795Y226487D01*
X316884Y226501D01*
X316953Y226508D01*
X317110D01*
X317205Y226494D01*
D02*
G37*
G36*
X309458Y212000D02*
X307847D01*
X307696Y212007D01*
X307560Y212014D01*
X307437Y212027D01*
X307334Y212041D01*
X307246Y212054D01*
X307184Y212061D01*
X307143Y212075D01*
X307130D01*
X307013Y212109D01*
X306911Y212143D01*
X306822Y212177D01*
X306747Y212211D01*
X306685Y212246D01*
X306638Y212273D01*
X306604Y212287D01*
X306597Y212294D01*
X306515Y212355D01*
X306440Y212423D01*
X306364Y212492D01*
X306310Y212553D01*
X306255Y212614D01*
X306221Y212662D01*
X306194Y212690D01*
X306187Y212703D01*
X306119Y212806D01*
X306057Y212915D01*
X306002Y213024D01*
X305961Y213127D01*
X305927Y213222D01*
X305900Y213291D01*
X305893Y213318D01*
X305886Y213338D01*
X305880Y213352D01*
Y213359D01*
X305839Y213509D01*
X305811Y213666D01*
X305784Y213823D01*
X305770Y213960D01*
X305764Y214083D01*
Y214138D01*
X305757Y214179D01*
Y214219D01*
Y214247D01*
Y214261D01*
Y214267D01*
X305764Y214486D01*
X305784Y214684D01*
X305811Y214862D01*
X305832Y214944D01*
X305845Y215019D01*
X305859Y215087D01*
X305880Y215148D01*
X305893Y215203D01*
X305907Y215244D01*
X305921Y215278D01*
X305927Y215305D01*
X305934Y215319D01*
Y215326D01*
X306009Y215497D01*
X306091Y215647D01*
X306180Y215777D01*
X306269Y215886D01*
X306344Y215975D01*
X306405Y216043D01*
X306453Y216084D01*
X306460Y216098D01*
X306467D01*
X306576Y216180D01*
X306685Y216248D01*
X306795Y216303D01*
X306897Y216344D01*
X306986Y216378D01*
X307061Y216398D01*
X307088Y216412D01*
X307102D01*
X307116Y216419D01*
X307123D01*
X307232Y216439D01*
X307362Y216460D01*
X307498Y216474D01*
X307621Y216480D01*
X307737Y216487D01*
X309458D01*
Y212000D01*
D02*
G37*
G36*
X320777Y224465D02*
X322000D01*
Y223953D01*
X320777D01*
Y222724D01*
X320258D01*
Y223953D01*
X319036D01*
Y224465D01*
X320258D01*
Y225688D01*
X320777D01*
Y224465D01*
D02*
G37*
G36*
X320827Y232000D02*
X320253D01*
Y235818D01*
X318963Y232000D01*
X318430D01*
X317118Y235756D01*
Y232000D01*
X316545D01*
Y236487D01*
X317351D01*
X318423Y233366D01*
X318478Y233195D01*
X318532Y233052D01*
X318573Y232929D01*
X318601Y232826D01*
X318628Y232751D01*
X318648Y232697D01*
X318655Y232662D01*
X318662Y232649D01*
X318689Y232737D01*
X318724Y232847D01*
X318758Y232956D01*
X318792Y233065D01*
X318826Y233161D01*
X318853Y233236D01*
X318860Y233270D01*
X318867Y233291D01*
X318874Y233304D01*
Y233311D01*
X319939Y236487D01*
X320827D01*
Y232000D01*
D02*
G37*
G36*
X314630Y222000D02*
X314002D01*
Y222628D01*
X314630D01*
Y222000D01*
D02*
G37*
G36*
X308210D02*
X307602D01*
X305847Y226487D01*
X306448D01*
X307664Y223229D01*
X307712Y223093D01*
X307759Y222956D01*
X307800Y222833D01*
X307835Y222724D01*
X307862Y222628D01*
X307882Y222553D01*
X307889Y222526D01*
X307896Y222505D01*
X307903Y222498D01*
Y222492D01*
X307978Y222751D01*
X308019Y222874D01*
X308060Y222990D01*
X308094Y223086D01*
X308115Y223161D01*
X308128Y223188D01*
X308135Y223209D01*
X308142Y223222D01*
Y223229D01*
X309303Y226487D01*
X309952D01*
X308210Y222000D01*
D02*
G37*
G36*
X376000Y272000D02*
X375406D01*
Y276487D01*
X376000D01*
Y272000D01*
D02*
G37*
G36*
X330828Y293847D02*
Y293689D01*
Y293544D01*
Y293413D01*
X330815Y293294D01*
Y293202D01*
Y293136D01*
Y293083D01*
Y293070D01*
X330789Y292833D01*
X330776Y292740D01*
X330763Y292648D01*
X330749Y292582D01*
X330736Y292530D01*
X330723Y292490D01*
Y292477D01*
X330670Y292292D01*
X330617Y292134D01*
X330591Y292068D01*
X330578Y292029D01*
X330565Y292002D01*
Y291989D01*
X330486Y291831D01*
X330407Y291699D01*
X330380Y291647D01*
X330354Y291607D01*
X330328Y291581D01*
Y291567D01*
X330156Y291356D01*
X329972Y291159D01*
X329787Y291014D01*
X329616Y290882D01*
X329458Y290777D01*
X329339Y290711D01*
X329286Y290684D01*
X329247Y290671D01*
X329234Y290658D01*
X329220D01*
X328944Y290566D01*
X328667Y290500D01*
X328377Y290447D01*
X328100Y290421D01*
X327863Y290394D01*
X327758D01*
X327665Y290381D01*
X327494D01*
X327138Y290394D01*
X326809Y290421D01*
X326492Y290460D01*
X326215Y290526D01*
X325952Y290592D01*
X325701Y290671D01*
X325490Y290750D01*
X325293Y290829D01*
X325121Y290908D01*
X324976Y291001D01*
X324845Y291067D01*
X324739Y291132D01*
X324660Y291198D01*
X324594Y291238D01*
X324568Y291264D01*
X324555Y291277D01*
X324397Y291436D01*
X324291Y291567D01*
X324238Y291620D01*
X324212Y291660D01*
X324186Y291686D01*
Y291699D01*
X324093Y291870D01*
X324014Y292042D01*
X323988Y292121D01*
X323975Y292174D01*
X323962Y292213D01*
Y292226D01*
X323909Y292464D01*
X323883Y292582D01*
X323869Y292701D01*
X323856Y292793D01*
X323843Y292872D01*
Y292925D01*
Y292938D01*
X323830Y293096D01*
X323817Y293268D01*
Y293439D01*
X323803Y293597D01*
Y293729D01*
Y293847D01*
Y293913D01*
Y293940D01*
Y298750D01*
X325135D01*
Y293940D01*
Y293689D01*
Y293571D01*
Y293478D01*
X325148Y293399D01*
Y293347D01*
Y293307D01*
Y293294D01*
Y293109D01*
X325161Y292965D01*
X325174Y292912D01*
Y292872D01*
X325187Y292846D01*
Y292833D01*
X325214Y292701D01*
X325240Y292595D01*
X325253Y292530D01*
X325266Y292516D01*
Y292503D01*
X325293Y292398D01*
X325332Y292319D01*
X325359Y292266D01*
X325372Y292253D01*
X325477Y292108D01*
X325596Y291989D01*
X325715Y291884D01*
X325846Y291791D01*
X325952Y291725D01*
X326044Y291673D01*
X326097Y291647D01*
X326123Y291633D01*
X326321Y291567D01*
X326519Y291515D01*
X326729Y291475D01*
X326914Y291449D01*
X327085Y291436D01*
X327217Y291422D01*
X327336D01*
X327560Y291436D01*
X327771Y291449D01*
X327955Y291488D01*
X328140Y291528D01*
X328298Y291567D01*
X328443Y291633D01*
X328575Y291686D01*
X328680Y291752D01*
X328785Y291805D01*
X328865Y291870D01*
X328944Y291923D01*
X328996Y291963D01*
X329049Y292016D01*
X329076Y292042D01*
X329089Y292055D01*
X329102Y292068D01*
X329181Y292174D01*
X329247Y292279D01*
X329339Y292490D01*
X329379Y292582D01*
X329405Y292661D01*
X329418Y292714D01*
Y292727D01*
X329445Y292899D01*
X329471Y293070D01*
X329484Y293268D01*
X329497Y293439D01*
X329510Y293597D01*
Y293729D01*
Y293782D01*
Y293821D01*
Y293834D01*
Y293847D01*
Y298750D01*
X330828D01*
Y293847D01*
D02*
G37*
G36*
X309389Y275961D02*
X307914D01*
Y272000D01*
X307320D01*
Y275961D01*
X305844D01*
Y276487D01*
X309389D01*
Y275961D01*
D02*
G37*
G36*
X311855Y276555D02*
X312012Y276535D01*
X312148Y276514D01*
X312271Y276487D01*
X312367Y276453D01*
X312408Y276439D01*
X312442Y276432D01*
X312476Y276419D01*
X312497Y276412D01*
X312504Y276405D01*
X312510D01*
X312640Y276344D01*
X312756Y276269D01*
X312852Y276193D01*
X312927Y276125D01*
X312989Y276057D01*
X313036Y276002D01*
X313064Y275968D01*
X313071Y275961D01*
Y275954D01*
X313132Y275845D01*
X313180Y275729D01*
X313214Y275626D01*
X313234Y275524D01*
X313248Y275442D01*
X313262Y275381D01*
Y275353D01*
Y275333D01*
Y275326D01*
Y275319D01*
X313255Y275210D01*
X313234Y275101D01*
X313214Y275005D01*
X313180Y274923D01*
X313153Y274855D01*
X313132Y274807D01*
X313111Y274773D01*
X313105Y274759D01*
X313036Y274670D01*
X312961Y274588D01*
X312886Y274520D01*
X312804Y274459D01*
X312736Y274411D01*
X312681Y274377D01*
X312640Y274349D01*
X312633Y274342D01*
X312627D01*
X312579Y274315D01*
X312517Y274295D01*
X312388Y274247D01*
X312244Y274199D01*
X312101Y274151D01*
X311971Y274117D01*
X311916Y274103D01*
X311869Y274090D01*
X311827Y274076D01*
X311793Y274069D01*
X311773Y274062D01*
X311766D01*
X311657Y274035D01*
X311554Y274008D01*
X311459Y273987D01*
X311377Y273967D01*
X311308Y273946D01*
X311240Y273926D01*
X311186Y273912D01*
X311131Y273899D01*
X311090Y273885D01*
X311056Y273871D01*
X311001Y273858D01*
X310974Y273851D01*
X310967Y273844D01*
X310871Y273803D01*
X310783Y273755D01*
X310714Y273714D01*
X310660Y273673D01*
X310619Y273632D01*
X310584Y273605D01*
X310571Y273584D01*
X310564Y273577D01*
X310523Y273516D01*
X310496Y273455D01*
X310468Y273393D01*
X310455Y273332D01*
X310448Y273284D01*
X310441Y273243D01*
Y273216D01*
Y273209D01*
X310448Y273134D01*
X310461Y273065D01*
X310482Y272997D01*
X310503Y272942D01*
X310530Y272895D01*
X310550Y272860D01*
X310564Y272833D01*
X310571Y272826D01*
X310625Y272765D01*
X310687Y272710D01*
X310748Y272662D01*
X310817Y272621D01*
X310871Y272587D01*
X310919Y272567D01*
X310946Y272553D01*
X310960Y272546D01*
X311063Y272512D01*
X311165Y272492D01*
X311261Y272471D01*
X311356Y272464D01*
X311431Y272457D01*
X311500Y272451D01*
X311554D01*
X311691Y272457D01*
X311821Y272471D01*
X311944Y272492D01*
X312039Y272519D01*
X312128Y272539D01*
X312190Y272560D01*
X312230Y272573D01*
X312237Y272580D01*
X312244D01*
X312347Y272635D01*
X312442Y272690D01*
X312517Y272751D01*
X312579Y272806D01*
X312633Y272853D01*
X312668Y272895D01*
X312688Y272922D01*
X312695Y272929D01*
X312743Y273018D01*
X312784Y273106D01*
X312811Y273202D01*
X312838Y273291D01*
X312852Y273373D01*
X312866Y273434D01*
X312873Y273475D01*
Y273482D01*
Y273489D01*
X313433Y273441D01*
X313419Y273277D01*
X313392Y273127D01*
X313351Y272983D01*
X313310Y272867D01*
X313269Y272765D01*
X313248Y272724D01*
X313228Y272690D01*
X313214Y272662D01*
X313200Y272642D01*
X313193Y272635D01*
Y272628D01*
X313098Y272505D01*
X312989Y272396D01*
X312886Y272307D01*
X312777Y272232D01*
X312688Y272171D01*
X312613Y272130D01*
X312586Y272116D01*
X312565Y272102D01*
X312551Y272095D01*
X312545D01*
X312381Y272041D01*
X312210Y272000D01*
X312039Y271966D01*
X311882Y271945D01*
X311807Y271938D01*
X311739Y271932D01*
X311677D01*
X311629Y271925D01*
X311527D01*
X311349Y271932D01*
X311192Y271952D01*
X311042Y271979D01*
X310919Y272013D01*
X310810Y272041D01*
X310769Y272054D01*
X310735Y272068D01*
X310707Y272082D01*
X310687Y272089D01*
X310673Y272095D01*
X310666D01*
X310530Y272171D01*
X310407Y272246D01*
X310304Y272328D01*
X310223Y272410D01*
X310154Y272478D01*
X310113Y272533D01*
X310079Y272573D01*
X310072Y272587D01*
X310004Y272703D01*
X309956Y272826D01*
X309915Y272942D01*
X309895Y273045D01*
X309881Y273134D01*
X309867Y273202D01*
Y273229D01*
Y273250D01*
Y273256D01*
Y273263D01*
X309874Y273393D01*
X309895Y273516D01*
X309929Y273625D01*
X309963Y273714D01*
X309997Y273796D01*
X310031Y273851D01*
X310052Y273885D01*
X310058Y273899D01*
X310134Y273994D01*
X310223Y274083D01*
X310318Y274165D01*
X310414Y274233D01*
X310503Y274281D01*
X310571Y274322D01*
X310598Y274336D01*
X310612Y274349D01*
X310625Y274356D01*
X310632D01*
X310687Y274377D01*
X310755Y274404D01*
X310823Y274431D01*
X310906Y274452D01*
X311069Y274500D01*
X311233Y274547D01*
X311384Y274582D01*
X311452Y274602D01*
X311513Y274616D01*
X311561Y274629D01*
X311595Y274636D01*
X311623Y274643D01*
X311629D01*
X311759Y274677D01*
X311875Y274705D01*
X311978Y274732D01*
X312073Y274766D01*
X312155Y274793D01*
X312224Y274814D01*
X312285Y274841D01*
X312340Y274868D01*
X312388Y274889D01*
X312428Y274903D01*
X312456Y274923D01*
X312476Y274937D01*
X312510Y274957D01*
X312517Y274964D01*
X312572Y275026D01*
X312613Y275087D01*
X312647Y275155D01*
X312668Y275217D01*
X312681Y275271D01*
X312688Y275319D01*
Y275346D01*
Y275360D01*
X312674Y275463D01*
X312647Y275551D01*
X312613Y275633D01*
X312565Y275702D01*
X312524Y275763D01*
X312483Y275804D01*
X312456Y275831D01*
X312449Y275838D01*
X312401Y275872D01*
X312347Y275907D01*
X312224Y275954D01*
X312094Y275989D01*
X311964Y276009D01*
X311848Y276029D01*
X311793D01*
X311752Y276036D01*
X311664D01*
X311479Y276029D01*
X311322Y276002D01*
X311186Y275968D01*
X311076Y275927D01*
X310994Y275886D01*
X310933Y275852D01*
X310899Y275825D01*
X310885Y275818D01*
X310796Y275729D01*
X310721Y275626D01*
X310666Y275524D01*
X310625Y275422D01*
X310598Y275326D01*
X310584Y275251D01*
X310578Y275224D01*
X310571Y275203D01*
Y275189D01*
Y275183D01*
X310004Y275224D01*
X310018Y275367D01*
X310045Y275497D01*
X310086Y275620D01*
X310127Y275722D01*
X310161Y275804D01*
X310195Y275872D01*
X310223Y275913D01*
X310229Y275927D01*
X310311Y276036D01*
X310407Y276132D01*
X310503Y276214D01*
X310598Y276282D01*
X310687Y276330D01*
X310755Y276371D01*
X310783Y276385D01*
X310803Y276392D01*
X310810Y276398D01*
X310817D01*
X310960Y276453D01*
X311110Y276494D01*
X311261Y276521D01*
X311397Y276542D01*
X311513Y276555D01*
X311561D01*
X311609Y276562D01*
X311691D01*
X311855Y276555D01*
D02*
G37*
G36*
X339013Y290500D02*
X335086D01*
X334809Y290513D01*
X334572Y290526D01*
X334361Y290552D01*
X334203Y290566D01*
X334084Y290579D01*
X334005Y290592D01*
X333978D01*
X333781Y290632D01*
X333596Y290684D01*
X333438Y290737D01*
X333306Y290803D01*
X333201Y290843D01*
X333122Y290882D01*
X333069Y290908D01*
X333056Y290922D01*
X332898Y291040D01*
X332753Y291172D01*
X332634Y291304D01*
X332529Y291422D01*
X332450Y291541D01*
X332384Y291633D01*
X332357Y291686D01*
X332344Y291712D01*
X332265Y291910D01*
X332199Y292095D01*
X332160Y292292D01*
X332120Y292464D01*
X332107Y292609D01*
X332094Y292727D01*
Y292806D01*
Y292819D01*
Y292833D01*
X332107Y293096D01*
X332146Y293334D01*
X332199Y293531D01*
X332252Y293703D01*
X332318Y293834D01*
X332370Y293940D01*
X332410Y293992D01*
X332423Y294019D01*
X332568Y294177D01*
X332726Y294322D01*
X332911Y294454D01*
X333082Y294559D01*
X333240Y294638D01*
X333372Y294691D01*
X333425Y294717D01*
X333464Y294731D01*
X333478Y294744D01*
X333491D01*
X333267Y294862D01*
X333069Y294994D01*
X332898Y295139D01*
X332753Y295284D01*
X332621Y295442D01*
X332529Y295601D01*
X332436Y295745D01*
X332370Y295904D01*
X332318Y296049D01*
X332278Y296180D01*
X332252Y296312D01*
X332225Y296418D01*
Y296510D01*
X332212Y296576D01*
Y296615D01*
Y296628D01*
Y296787D01*
X332239Y296932D01*
X332252Y297077D01*
X332278Y297195D01*
X332305Y297288D01*
X332331Y297367D01*
X332344Y297419D01*
X332357Y297432D01*
X332410Y297578D01*
X332476Y297696D01*
X332555Y297815D01*
X332621Y297907D01*
X332674Y297999D01*
X332726Y298052D01*
X332753Y298092D01*
X332766Y298105D01*
X332898Y298236D01*
X333016Y298329D01*
X333069Y298355D01*
X333095Y298381D01*
X333122Y298408D01*
X333135D01*
X333280Y298500D01*
X333438Y298553D01*
X333504Y298579D01*
X333543Y298592D01*
X333583Y298605D01*
X333596D01*
X333807Y298658D01*
X334005Y298685D01*
X334097Y298698D01*
X334163Y298711D01*
X334229D01*
X334506Y298737D01*
X334651D01*
X334782Y298750D01*
X339013D01*
Y290500D01*
D02*
G37*
G36*
X365926Y282000D02*
X365352D01*
Y285818D01*
X364061Y282000D01*
X363528D01*
X362217Y285756D01*
Y282000D01*
X361643D01*
Y286487D01*
X362449D01*
X363522Y283366D01*
X363576Y283195D01*
X363631Y283052D01*
X363672Y282929D01*
X363699Y282826D01*
X363726Y282751D01*
X363747Y282697D01*
X363754Y282662D01*
X363761Y282649D01*
X363788Y282737D01*
X363822Y282847D01*
X363856Y282956D01*
X363890Y283065D01*
X363925Y283161D01*
X363952Y283236D01*
X363959Y283270D01*
X363966Y283291D01*
X363972Y283304D01*
Y283311D01*
X365038Y286487D01*
X365926D01*
Y282000D01*
D02*
G37*
G36*
X317749Y272000D02*
X317155D01*
Y273994D01*
X316390D01*
X316322Y273987D01*
X316267D01*
X316219Y273980D01*
X316185Y273974D01*
X316158D01*
X316144Y273967D01*
X316137D01*
X316035Y273933D01*
X315953Y273892D01*
X315919Y273871D01*
X315891Y273858D01*
X315878Y273851D01*
X315871Y273844D01*
X315816Y273810D01*
X315768Y273762D01*
X315666Y273666D01*
X315632Y273619D01*
X315598Y273577D01*
X315577Y273550D01*
X315570Y273543D01*
X315502Y273455D01*
X315434Y273359D01*
X315359Y273256D01*
X315290Y273154D01*
X315229Y273065D01*
X315181Y272997D01*
X315167Y272970D01*
X315154Y272949D01*
X315140Y272936D01*
Y272929D01*
X314546Y272000D01*
X313801D01*
X314580Y273216D01*
X314669Y273345D01*
X314758Y273461D01*
X314840Y273564D01*
X314915Y273653D01*
X314976Y273721D01*
X315024Y273776D01*
X315058Y273803D01*
X315072Y273817D01*
X315120Y273858D01*
X315181Y273899D01*
X315297Y273974D01*
X315345Y274001D01*
X315386Y274022D01*
X315413Y274035D01*
X315427Y274042D01*
X315311Y274062D01*
X315201Y274083D01*
X315099Y274110D01*
X315010Y274144D01*
X314921Y274179D01*
X314846Y274213D01*
X314771Y274247D01*
X314710Y274281D01*
X314655Y274315D01*
X314607Y274342D01*
X314566Y274377D01*
X314532Y274397D01*
X314512Y274424D01*
X314491Y274438D01*
X314478Y274452D01*
X314423Y274513D01*
X314375Y274582D01*
X314293Y274718D01*
X314239Y274848D01*
X314204Y274978D01*
X314177Y275087D01*
X314170Y275135D01*
Y275176D01*
X314163Y275210D01*
Y275237D01*
Y275251D01*
Y275258D01*
X314170Y275394D01*
X314191Y275517D01*
X314225Y275633D01*
X314259Y275736D01*
X314293Y275818D01*
X314327Y275879D01*
X314348Y275920D01*
X314355Y275934D01*
X314430Y276043D01*
X314512Y276132D01*
X314594Y276207D01*
X314676Y276262D01*
X314744Y276309D01*
X314799Y276344D01*
X314840Y276357D01*
X314846Y276364D01*
X314853D01*
X314915Y276385D01*
X314983Y276405D01*
X315126Y276432D01*
X315277Y276460D01*
X315420Y276473D01*
X315557Y276480D01*
X315611D01*
X315666Y276487D01*
X317749D01*
Y272000D01*
D02*
G37*
G36*
X319863Y298737D02*
X320074Y298724D01*
X320245Y298711D01*
X320390Y298698D01*
X320495Y298685D01*
X320548Y298671D01*
X320574D01*
X320746Y298632D01*
X320891Y298592D01*
X321036Y298553D01*
X321154Y298513D01*
X321260Y298474D01*
X321326Y298434D01*
X321378Y298421D01*
X321392Y298408D01*
X321589Y298276D01*
X321761Y298131D01*
X321905Y297986D01*
X322037Y297841D01*
X322130Y297722D01*
X322209Y297617D01*
X322248Y297551D01*
X322261Y297525D01*
X322367Y297314D01*
X322446Y297090D01*
X322499Y296879D01*
X322538Y296681D01*
X322565Y296510D01*
X322578Y296378D01*
Y296325D01*
Y296286D01*
Y296273D01*
Y296259D01*
X322565Y296049D01*
X322538Y295864D01*
X322512Y295693D01*
X322472Y295535D01*
X322433Y295416D01*
X322393Y295324D01*
X322380Y295271D01*
X322367Y295245D01*
X322275Y295086D01*
X322169Y294941D01*
X322064Y294823D01*
X321971Y294717D01*
X321879Y294638D01*
X321800Y294586D01*
X321747Y294546D01*
X321734Y294533D01*
X321602Y294454D01*
X321471Y294388D01*
X321326Y294335D01*
X321207Y294283D01*
X321088Y294243D01*
X320996Y294230D01*
X320943Y294203D01*
X320917D01*
X320719Y294177D01*
X320509Y294151D01*
X320298Y294138D01*
X320087Y294124D01*
X319915Y294111D01*
X318624D01*
X318479Y294098D01*
X318281D01*
X318228Y294085D01*
X318176D01*
X317991Y294072D01*
X317846Y294045D01*
X317793Y294032D01*
X317754D01*
X317741Y294019D01*
X317727D01*
X317596Y293966D01*
X317490Y293913D01*
X317385Y293834D01*
X317306Y293768D01*
X317253Y293703D01*
X317214Y293650D01*
X317187Y293610D01*
X317174Y293597D01*
X317108Y293478D01*
X317055Y293347D01*
X317029Y293215D01*
X317003Y293096D01*
X316989Y292991D01*
X316976Y292899D01*
Y292846D01*
Y292819D01*
X316989Y292582D01*
X317042Y292371D01*
X317095Y292200D01*
X317174Y292068D01*
X317240Y291963D01*
X317306Y291884D01*
X317358Y291844D01*
X317372Y291831D01*
X317543Y291739D01*
X317754Y291660D01*
X317965Y291607D01*
X318189Y291581D01*
X318400Y291554D01*
X318479D01*
X318558Y291541D01*
X322275D01*
Y290500D01*
X318123D01*
X317899Y290513D01*
X317807D01*
X317727Y290526D01*
X317662D01*
X317609Y290539D01*
X317569D01*
X317398Y290566D01*
X317266Y290605D01*
X317214Y290618D01*
X317174D01*
X317161Y290632D01*
X317148D01*
X317003Y290684D01*
X316884Y290724D01*
X316805Y290763D01*
X316792Y290777D01*
X316778D01*
X316568Y290895D01*
X316396Y291027D01*
X316238Y291159D01*
X316120Y291291D01*
X316027Y291409D01*
X315948Y291501D01*
X315909Y291567D01*
X315896Y291594D01*
X315790Y291805D01*
X315711Y292016D01*
X315658Y292226D01*
X315619Y292424D01*
X315592Y292595D01*
X315579Y292740D01*
Y292793D01*
Y292833D01*
Y292846D01*
Y292859D01*
X315592Y293083D01*
X315605Y293294D01*
X315645Y293492D01*
X315685Y293650D01*
X315724Y293795D01*
X315751Y293887D01*
X315777Y293953D01*
X315790Y293979D01*
X315869Y294164D01*
X315974Y294322D01*
X316067Y294467D01*
X316159Y294586D01*
X316251Y294678D01*
X316317Y294757D01*
X316370Y294796D01*
X316383Y294810D01*
X316515Y294902D01*
X316634Y294981D01*
X316686Y295007D01*
X316726Y295034D01*
X316752Y295047D01*
X316765D01*
X316923Y295113D01*
X317082Y295152D01*
X317148Y295165D01*
X317200Y295179D01*
X317240Y295192D01*
X317253D01*
X317477Y295231D01*
X317596Y295245D01*
X317701Y295258D01*
X317793D01*
X317873Y295271D01*
X317938D01*
X318096Y295284D01*
X318255D01*
X318413Y295297D01*
X319546D01*
X319705Y295310D01*
X319994Y295337D01*
X320245Y295376D01*
X320443Y295429D01*
X320587Y295469D01*
X320693Y295508D01*
X320746Y295535D01*
X320772Y295548D01*
X320904Y295666D01*
X321009Y295798D01*
X321075Y295943D01*
X321128Y296101D01*
X321154Y296233D01*
X321167Y296339D01*
X321181Y296418D01*
Y296431D01*
Y296444D01*
X321154Y296681D01*
X321141Y296787D01*
X321115Y296879D01*
X321088Y296945D01*
X321075Y297011D01*
X321049Y297037D01*
Y297050D01*
X320943Y297222D01*
X320825Y297353D01*
X320746Y297432D01*
X320719Y297459D01*
X320706D01*
X320535Y297538D01*
X320377Y297604D01*
X320311Y297617D01*
X320258Y297630D01*
X320218Y297643D01*
X320205D01*
X320087Y297656D01*
X319955Y297670D01*
X319810Y297683D01*
X319678Y297696D01*
X315974D01*
Y298750D01*
X319625D01*
X319863Y298737D01*
D02*
G37*
G36*
X339228Y228363D02*
X339550Y227894D01*
X339901Y227455D01*
X340253Y227045D01*
X340575Y226722D01*
X340839Y226459D01*
X341015Y226283D01*
X341044Y226254D01*
X341073Y226224D01*
X341630Y225756D01*
X342215Y225316D01*
X342801Y224936D01*
X343328Y224613D01*
X343797Y224350D01*
X344002Y224262D01*
X344178Y224174D01*
X344295Y224086D01*
X344412Y224028D01*
X344471Y223998D01*
X344500D01*
Y221684D01*
X344090Y221860D01*
X343651Y222065D01*
X343240Y222241D01*
X342860Y222446D01*
X342538Y222622D01*
X342274Y222768D01*
X342098Y222885D01*
X342069Y222915D01*
X342040D01*
X341542Y223207D01*
X341102Y223530D01*
X340722Y223793D01*
X340399Y224057D01*
X340136Y224262D01*
X339931Y224408D01*
X339814Y224526D01*
X339784Y224555D01*
Y209500D01*
X337412D01*
Y228831D01*
X338964D01*
X339228Y228363D01*
D02*
G37*
G36*
X328700Y301500D02*
X327723D01*
Y303766D01*
X326499D01*
X326445Y303755D01*
X326380D01*
X326252Y303745D01*
X326155Y303734D01*
X326091Y303723D01*
X326069D01*
X325983Y303701D01*
X325908Y303691D01*
X325865Y303680D01*
X325854Y303669D01*
X325790Y303637D01*
X325736Y303605D01*
X325693Y303583D01*
X325682Y303573D01*
X325586Y303476D01*
X325511Y303369D01*
X325489Y303326D01*
X325478Y303283D01*
X325468Y303261D01*
Y303250D01*
X325446Y303165D01*
X325425Y303068D01*
X325414Y302864D01*
X325403Y302767D01*
Y302692D01*
Y302649D01*
Y302627D01*
Y301500D01*
X324426D01*
Y302821D01*
Y302993D01*
X324437Y303154D01*
X324447Y303283D01*
X324458Y303390D01*
X324480Y303476D01*
X324490Y303540D01*
X324501Y303583D01*
Y303594D01*
X324576Y303787D01*
X324619Y303863D01*
X324662Y303938D01*
X324694Y303992D01*
X324727Y304034D01*
X324748Y304056D01*
X324759Y304067D01*
X324834Y304142D01*
X324920Y304206D01*
X325092Y304303D01*
X325167Y304335D01*
X325221Y304357D01*
X325264Y304378D01*
X325274D01*
X325392Y304410D01*
X325532Y304432D01*
X325661Y304453D01*
X325790Y304464D01*
X325897Y304475D01*
X326563D01*
X324147Y306408D01*
X325403D01*
X327723Y304475D01*
Y308223D01*
X328700D01*
Y301500D01*
D02*
G37*
G36*
X331074Y307203D02*
X330097D01*
Y308223D01*
X331074D01*
Y307203D01*
D02*
G37*
G36*
X339011Y301500D02*
X338033D01*
Y305624D01*
X336218D01*
Y301500D01*
X335241D01*
Y305624D01*
X334478D01*
X334264Y305613D01*
X334081Y305581D01*
X333931Y305549D01*
X333813Y305506D01*
X333727Y305452D01*
X333662Y305420D01*
X333630Y305388D01*
X333619Y305377D01*
X333533Y305270D01*
X333480Y305141D01*
X333437Y305001D01*
X333404Y304861D01*
X333383Y304732D01*
X333372Y304625D01*
Y304582D01*
Y304561D01*
Y304539D01*
Y304528D01*
Y301500D01*
X332395D01*
Y304528D01*
Y304647D01*
Y304743D01*
X332406Y304840D01*
Y304915D01*
Y304990D01*
X332416Y305033D01*
Y305065D01*
Y305076D01*
X332438Y305237D01*
X332449Y305312D01*
X332470Y305366D01*
X332481Y305420D01*
X332492Y305452D01*
X332502Y305474D01*
Y305484D01*
X332545Y305613D01*
X332599Y305710D01*
X332620Y305753D01*
X332631Y305785D01*
X332653Y305796D01*
Y305806D01*
X332728Y305903D01*
X332803Y305978D01*
X332857Y306032D01*
X332868Y306054D01*
X332878D01*
X332975Y306129D01*
X333061Y306193D01*
X333125Y306225D01*
X333136Y306236D01*
X333147D01*
X333243Y306279D01*
X333351Y306311D01*
X333394Y306322D01*
X333426Y306333D01*
X333447Y306344D01*
X333458D01*
X333609Y306376D01*
X333759Y306386D01*
X333834Y306397D01*
X334038D01*
X334167Y306408D01*
X339011D01*
Y301500D01*
D02*
G37*
G36*
X317230Y306440D02*
X317456Y306430D01*
X317649Y306397D01*
X317810Y306365D01*
X317950Y306333D01*
X318046Y306311D01*
X318111Y306290D01*
X318121Y306279D01*
X318132D01*
X318293Y306204D01*
X318454Y306118D01*
X318583Y306032D01*
X318701Y305946D01*
X318787Y305871D01*
X318863Y305806D01*
X318905Y305764D01*
X318916Y305742D01*
X319024Y305613D01*
X319120Y305474D01*
X319206Y305334D01*
X319271Y305205D01*
X319324Y305087D01*
X319367Y305001D01*
X319389Y304937D01*
X319399Y304926D01*
Y304915D01*
X319453Y304732D01*
X319496Y304550D01*
X319518Y304367D01*
X319539Y304206D01*
X319550Y304067D01*
X319561Y303959D01*
Y303916D01*
Y303884D01*
Y303873D01*
Y303863D01*
X319550Y303648D01*
X319528Y303454D01*
X319496Y303261D01*
X319464Y303089D01*
X319410Y302928D01*
X319356Y302778D01*
X319303Y302649D01*
X319238Y302531D01*
X319174Y302423D01*
X319120Y302327D01*
X319067Y302252D01*
X319013Y302187D01*
X318981Y302133D01*
X318948Y302101D01*
X318927Y302080D01*
X318916Y302069D01*
X318787Y301962D01*
X318648Y301865D01*
X318497Y301790D01*
X318347Y301715D01*
X318197Y301661D01*
X318036Y301607D01*
X317735Y301532D01*
X317595Y301511D01*
X317466Y301489D01*
X317348Y301478D01*
X317251Y301468D01*
X317166Y301457D01*
X317047D01*
X316833Y301468D01*
X316629Y301489D01*
X316435Y301521D01*
X316253Y301554D01*
X316092Y301607D01*
X315941Y301661D01*
X315802Y301715D01*
X315673Y301779D01*
X315565Y301844D01*
X315469Y301897D01*
X315393Y301951D01*
X315318Y302005D01*
X315265Y302037D01*
X315232Y302069D01*
X315211Y302091D01*
X315200Y302101D01*
X315082Y302230D01*
X314985Y302370D01*
X314899Y302509D01*
X314824Y302660D01*
X314760Y302810D01*
X314706Y302960D01*
X314631Y303261D01*
X314599Y303390D01*
X314577Y303519D01*
X314566Y303637D01*
X314556Y303734D01*
X314545Y303809D01*
Y303873D01*
Y303916D01*
Y303927D01*
X314556Y304153D01*
X314577Y304357D01*
X314599Y304550D01*
X314642Y304732D01*
X314695Y304894D01*
X314749Y305055D01*
X314803Y305194D01*
X314857Y305312D01*
X314921Y305431D01*
X314975Y305527D01*
X315028Y305603D01*
X315082Y305678D01*
X315125Y305731D01*
X315146Y305764D01*
X315168Y305785D01*
X315179Y305796D01*
X315297Y305914D01*
X315436Y306011D01*
X315576Y306097D01*
X315726Y306172D01*
X315877Y306236D01*
X316027Y306290D01*
X316317Y306365D01*
X316457Y306397D01*
X316586Y306419D01*
X316693Y306430D01*
X316800Y306440D01*
X316876Y306451D01*
X316994D01*
X317230Y306440D01*
D02*
G37*
G36*
X323266Y301500D02*
X322289D01*
Y305592D01*
X321902D01*
X321719Y305581D01*
X321580Y305559D01*
X321451Y305527D01*
X321354Y305495D01*
X321290Y305463D01*
X321236Y305431D01*
X321215Y305409D01*
X321204Y305398D01*
X321139Y305312D01*
X321096Y305205D01*
X321054Y305087D01*
X321032Y304958D01*
X321021Y304851D01*
X321010Y304754D01*
Y304690D01*
Y304679D01*
Y304668D01*
Y304185D01*
X320098D01*
Y304668D01*
Y304872D01*
X320108Y305044D01*
X320119Y305194D01*
X320141Y305312D01*
X320151Y305409D01*
X320173Y305474D01*
X320183Y305517D01*
Y305527D01*
X320216Y305635D01*
X320269Y305731D01*
X320312Y305817D01*
X320366Y305892D01*
X320409Y305957D01*
X320452Y306000D01*
X320474Y306021D01*
X320484Y306032D01*
X320581Y306107D01*
X320678Y306172D01*
X320763Y306215D01*
X320860Y306258D01*
X320935Y306290D01*
X321000Y306311D01*
X321043Y306322D01*
X321054D01*
X321193Y306354D01*
X321343Y306376D01*
X321494Y306386D01*
X321655Y306397D01*
X321784Y306408D01*
X323266D01*
Y301500D01*
D02*
G37*
G36*
X331074D02*
X330097D01*
Y306408D01*
X331074D01*
Y301500D01*
D02*
G37*
G36*
X371055Y282000D02*
X370434D01*
X369491Y285415D01*
X369471Y285504D01*
X369443Y285592D01*
X369423Y285674D01*
X369402Y285763D01*
X369382Y285831D01*
X369368Y285893D01*
X369354Y285927D01*
Y285941D01*
X369348Y285920D01*
X369341Y285893D01*
X369320Y285818D01*
X369300Y285736D01*
X369272Y285640D01*
X369252Y285558D01*
X369232Y285483D01*
X369225Y285456D01*
X369218Y285435D01*
X369211Y285422D01*
Y285415D01*
X368268Y282000D01*
X367688D01*
X366465Y286487D01*
X367066D01*
X367763Y283598D01*
X367811Y283400D01*
X367859Y283215D01*
X367893Y283045D01*
X367927Y282901D01*
X367941Y282840D01*
X367954Y282785D01*
X367961Y282737D01*
X367975Y282697D01*
X367982Y282662D01*
Y282642D01*
X367988Y282628D01*
Y282621D01*
X368036Y282901D01*
X368091Y283181D01*
X368152Y283455D01*
X368180Y283577D01*
X368207Y283694D01*
X368234Y283803D01*
X368255Y283905D01*
X368282Y283994D01*
X368296Y284069D01*
X368316Y284131D01*
X368323Y284172D01*
X368337Y284206D01*
Y284213D01*
X368979Y286487D01*
X369696D01*
X370550Y283455D01*
X370556Y283427D01*
X370563Y283386D01*
X370577Y283332D01*
X370591Y283277D01*
X370625Y283140D01*
X370659Y282997D01*
X370700Y282854D01*
X370714Y282792D01*
X370727Y282737D01*
X370741Y282690D01*
X370748Y282656D01*
X370755Y282628D01*
Y282621D01*
X370789Y282792D01*
X370816Y282956D01*
X370850Y283113D01*
X370878Y283250D01*
X370905Y283366D01*
X370918Y283414D01*
X370925Y283461D01*
X370932Y283489D01*
X370939Y283516D01*
X370946Y283530D01*
Y283537D01*
X371622Y286487D01*
X372230D01*
X371055Y282000D01*
D02*
G37*
G36*
X370563Y254322D02*
X372298Y252000D01*
X371588D01*
X370454Y253550D01*
X370427Y253591D01*
X370393Y253639D01*
X370317Y253741D01*
X370283Y253796D01*
X370263Y253837D01*
X370242Y253864D01*
X370235Y253871D01*
X370167Y253769D01*
X370112Y253687D01*
X370085Y253646D01*
X370065Y253619D01*
X370058Y253605D01*
X370051Y253598D01*
X368917Y252000D01*
X368186D01*
X369873Y254349D01*
X368309Y256487D01*
X368958D01*
X369860Y255285D01*
X369935Y255189D01*
X370003Y255101D01*
X370065Y255012D01*
X370112Y254937D01*
X370153Y254875D01*
X370188Y254827D01*
X370208Y254800D01*
X370215Y254786D01*
X370263Y254868D01*
X370311Y254950D01*
X370372Y255046D01*
X370434Y255135D01*
X370481Y255210D01*
X370529Y255271D01*
X370556Y255319D01*
X370570Y255326D01*
Y255333D01*
X371390Y256487D01*
X372093D01*
X370563Y254322D01*
D02*
G37*
G36*
X366459Y212000D02*
X364847D01*
X364696Y212007D01*
X364560Y212014D01*
X364437Y212027D01*
X364334Y212041D01*
X364246Y212054D01*
X364184Y212061D01*
X364143Y212075D01*
X364129D01*
X364013Y212109D01*
X363911Y212143D01*
X363822Y212177D01*
X363747Y212211D01*
X363685Y212246D01*
X363638Y212273D01*
X363603Y212287D01*
X363597Y212294D01*
X363515Y212355D01*
X363440Y212423D01*
X363365Y212492D01*
X363310Y212553D01*
X363255Y212614D01*
X363221Y212662D01*
X363194Y212690D01*
X363187Y212703D01*
X363119Y212806D01*
X363057Y212915D01*
X363002Y213024D01*
X362962Y213127D01*
X362927Y213222D01*
X362900Y213291D01*
X362893Y213318D01*
X362886Y213338D01*
X362880Y213352D01*
Y213359D01*
X362839Y213509D01*
X362811Y213666D01*
X362784Y213823D01*
X362770Y213960D01*
X362764Y214083D01*
Y214138D01*
X362757Y214179D01*
Y214219D01*
Y214247D01*
Y214261D01*
Y214267D01*
X362764Y214486D01*
X362784Y214684D01*
X362811Y214862D01*
X362832Y214944D01*
X362845Y215019D01*
X362859Y215087D01*
X362880Y215148D01*
X362893Y215203D01*
X362907Y215244D01*
X362921Y215278D01*
X362927Y215305D01*
X362934Y215319D01*
Y215326D01*
X363009Y215497D01*
X363091Y215647D01*
X363180Y215777D01*
X363269Y215886D01*
X363344Y215975D01*
X363405Y216043D01*
X363453Y216084D01*
X363460Y216098D01*
X363467D01*
X363576Y216180D01*
X363685Y216248D01*
X363795Y216303D01*
X363897Y216344D01*
X363986Y216378D01*
X364061Y216398D01*
X364089Y216412D01*
X364102D01*
X364116Y216419D01*
X364123D01*
X364232Y216439D01*
X364362Y216460D01*
X364498Y216474D01*
X364621Y216480D01*
X364737Y216487D01*
X366459D01*
Y212000D01*
D02*
G37*
G36*
X376000Y262000D02*
X375406D01*
Y263994D01*
X374641D01*
X374572Y263987D01*
X374518D01*
X374470Y263981D01*
X374436Y263974D01*
X374409D01*
X374395Y263967D01*
X374388D01*
X374286Y263933D01*
X374204Y263892D01*
X374170Y263871D01*
X374142Y263858D01*
X374129Y263851D01*
X374122Y263844D01*
X374067Y263810D01*
X374019Y263762D01*
X373917Y263666D01*
X373883Y263618D01*
X373849Y263578D01*
X373828Y263550D01*
X373821Y263543D01*
X373753Y263455D01*
X373685Y263359D01*
X373609Y263257D01*
X373541Y263154D01*
X373480Y263065D01*
X373432Y262997D01*
X373418Y262970D01*
X373405Y262949D01*
X373391Y262935D01*
Y262929D01*
X372797Y262000D01*
X372052D01*
X372831Y263215D01*
X372920Y263345D01*
X373008Y263461D01*
X373090Y263564D01*
X373165Y263653D01*
X373227Y263721D01*
X373275Y263776D01*
X373309Y263803D01*
X373323Y263817D01*
X373370Y263858D01*
X373432Y263898D01*
X373548Y263974D01*
X373596Y264001D01*
X373637Y264021D01*
X373664Y264035D01*
X373678Y264042D01*
X373562Y264062D01*
X373452Y264083D01*
X373350Y264110D01*
X373261Y264144D01*
X373172Y264179D01*
X373097Y264213D01*
X373022Y264247D01*
X372961Y264281D01*
X372906Y264315D01*
X372858Y264342D01*
X372817Y264377D01*
X372783Y264397D01*
X372763Y264424D01*
X372742Y264438D01*
X372728Y264452D01*
X372674Y264513D01*
X372626Y264581D01*
X372544Y264718D01*
X372489Y264848D01*
X372455Y264978D01*
X372428Y265087D01*
X372421Y265135D01*
Y265176D01*
X372414Y265210D01*
Y265237D01*
Y265251D01*
Y265258D01*
X372421Y265394D01*
X372442Y265517D01*
X372476Y265633D01*
X372510Y265736D01*
X372544Y265818D01*
X372578Y265879D01*
X372599Y265920D01*
X372605Y265934D01*
X372681Y266043D01*
X372763Y266132D01*
X372845Y266207D01*
X372926Y266262D01*
X372995Y266309D01*
X373049Y266344D01*
X373090Y266357D01*
X373097Y266364D01*
X373104D01*
X373165Y266385D01*
X373234Y266405D01*
X373377Y266432D01*
X373528Y266460D01*
X373671Y266474D01*
X373808Y266480D01*
X373862D01*
X373917Y266487D01*
X376000D01*
Y262000D01*
D02*
G37*
G36*
X307828Y266555D02*
X307985Y266535D01*
X308122Y266514D01*
X308245Y266487D01*
X308340Y266453D01*
X308381Y266439D01*
X308416Y266432D01*
X308450Y266419D01*
X308470Y266412D01*
X308477Y266405D01*
X308484D01*
X308614Y266344D01*
X308730Y266269D01*
X308825Y266193D01*
X308900Y266125D01*
X308962Y266057D01*
X309010Y266002D01*
X309037Y265968D01*
X309044Y265961D01*
Y265954D01*
X309105Y265845D01*
X309153Y265729D01*
X309187Y265627D01*
X309208Y265524D01*
X309222Y265442D01*
X309235Y265381D01*
Y265353D01*
Y265333D01*
Y265326D01*
Y265319D01*
X309228Y265210D01*
X309208Y265101D01*
X309187Y265005D01*
X309153Y264923D01*
X309126Y264855D01*
X309105Y264807D01*
X309085Y264773D01*
X309078Y264759D01*
X309010Y264670D01*
X308935Y264588D01*
X308859Y264520D01*
X308777Y264459D01*
X308709Y264411D01*
X308655Y264377D01*
X308614Y264349D01*
X308607Y264342D01*
X308600D01*
X308552Y264315D01*
X308491Y264295D01*
X308361Y264247D01*
X308217Y264199D01*
X308074Y264151D01*
X307944Y264117D01*
X307890Y264103D01*
X307842Y264090D01*
X307801Y264076D01*
X307767Y264069D01*
X307746Y264062D01*
X307739D01*
X307630Y264035D01*
X307528Y264008D01*
X307432Y263987D01*
X307350Y263967D01*
X307282Y263946D01*
X307213Y263926D01*
X307159Y263912D01*
X307104Y263898D01*
X307063Y263885D01*
X307029Y263871D01*
X306974Y263858D01*
X306947Y263851D01*
X306940Y263844D01*
X306845Y263803D01*
X306756Y263755D01*
X306687Y263714D01*
X306633Y263673D01*
X306592Y263632D01*
X306558Y263605D01*
X306544Y263584D01*
X306537Y263578D01*
X306496Y263516D01*
X306469Y263455D01*
X306442Y263393D01*
X306428Y263332D01*
X306421Y263284D01*
X306414Y263243D01*
Y263215D01*
Y263209D01*
X306421Y263134D01*
X306435Y263065D01*
X306455Y262997D01*
X306476Y262942D01*
X306503Y262895D01*
X306524Y262860D01*
X306537Y262833D01*
X306544Y262826D01*
X306599Y262765D01*
X306660Y262710D01*
X306722Y262662D01*
X306790Y262621D01*
X306845Y262587D01*
X306892Y262567D01*
X306920Y262553D01*
X306933Y262546D01*
X307036Y262512D01*
X307138Y262492D01*
X307234Y262471D01*
X307330Y262464D01*
X307405Y262457D01*
X307473Y262451D01*
X307528D01*
X307664Y262457D01*
X307794Y262471D01*
X307917Y262492D01*
X308013Y262519D01*
X308101Y262539D01*
X308163Y262560D01*
X308204Y262574D01*
X308211Y262580D01*
X308217D01*
X308320Y262635D01*
X308416Y262690D01*
X308491Y262751D01*
X308552Y262806D01*
X308607Y262854D01*
X308641Y262895D01*
X308661Y262922D01*
X308668Y262929D01*
X308716Y263018D01*
X308757Y263106D01*
X308784Y263202D01*
X308812Y263291D01*
X308825Y263373D01*
X308839Y263434D01*
X308846Y263475D01*
Y263482D01*
Y263489D01*
X309406Y263441D01*
X309392Y263277D01*
X309365Y263127D01*
X309324Y262983D01*
X309283Y262867D01*
X309242Y262765D01*
X309222Y262724D01*
X309201Y262690D01*
X309187Y262662D01*
X309174Y262642D01*
X309167Y262635D01*
Y262628D01*
X309071Y262505D01*
X308962Y262396D01*
X308859Y262307D01*
X308750Y262232D01*
X308661Y262171D01*
X308586Y262130D01*
X308559Y262116D01*
X308539Y262102D01*
X308525Y262095D01*
X308518D01*
X308354Y262041D01*
X308183Y262000D01*
X308013Y261966D01*
X307856Y261945D01*
X307780Y261938D01*
X307712Y261931D01*
X307651D01*
X307603Y261925D01*
X307500D01*
X307323Y261931D01*
X307166Y261952D01*
X307015Y261979D01*
X306892Y262014D01*
X306783Y262041D01*
X306742Y262054D01*
X306708Y262068D01*
X306681Y262082D01*
X306660Y262089D01*
X306646Y262095D01*
X306640D01*
X306503Y262171D01*
X306380Y262246D01*
X306278Y262328D01*
X306196Y262410D01*
X306128Y262478D01*
X306086Y262532D01*
X306052Y262574D01*
X306046Y262587D01*
X305977Y262703D01*
X305929Y262826D01*
X305888Y262942D01*
X305868Y263045D01*
X305854Y263134D01*
X305841Y263202D01*
Y263229D01*
Y263250D01*
Y263257D01*
Y263263D01*
X305847Y263393D01*
X305868Y263516D01*
X305902Y263625D01*
X305936Y263714D01*
X305970Y263796D01*
X306005Y263851D01*
X306025Y263885D01*
X306032Y263898D01*
X306107Y263994D01*
X306196Y264083D01*
X306291Y264165D01*
X306387Y264233D01*
X306476Y264281D01*
X306544Y264322D01*
X306571Y264336D01*
X306585Y264349D01*
X306599Y264356D01*
X306606D01*
X306660Y264377D01*
X306729Y264404D01*
X306797Y264431D01*
X306879Y264452D01*
X307043Y264500D01*
X307207Y264547D01*
X307357Y264581D01*
X307425Y264602D01*
X307487Y264616D01*
X307534Y264629D01*
X307569Y264636D01*
X307596Y264643D01*
X307603D01*
X307733Y264677D01*
X307849Y264704D01*
X307951Y264732D01*
X308047Y264766D01*
X308129Y264793D01*
X308197Y264814D01*
X308258Y264841D01*
X308313Y264868D01*
X308361Y264889D01*
X308402Y264903D01*
X308429Y264923D01*
X308450Y264937D01*
X308484Y264957D01*
X308491Y264964D01*
X308545Y265025D01*
X308586Y265087D01*
X308620Y265155D01*
X308641Y265217D01*
X308655Y265271D01*
X308661Y265319D01*
Y265347D01*
Y265360D01*
X308648Y265463D01*
X308620Y265551D01*
X308586Y265633D01*
X308539Y265702D01*
X308498Y265763D01*
X308456Y265804D01*
X308429Y265831D01*
X308422Y265838D01*
X308375Y265872D01*
X308320Y265907D01*
X308197Y265954D01*
X308067Y265988D01*
X307937Y266009D01*
X307821Y266030D01*
X307767D01*
X307726Y266036D01*
X307637D01*
X307453Y266030D01*
X307295Y266002D01*
X307159Y265968D01*
X307049Y265927D01*
X306967Y265886D01*
X306906Y265852D01*
X306872Y265825D01*
X306858Y265818D01*
X306769Y265729D01*
X306694Y265627D01*
X306640Y265524D01*
X306599Y265422D01*
X306571Y265326D01*
X306558Y265251D01*
X306551Y265224D01*
X306544Y265203D01*
Y265189D01*
Y265183D01*
X305977Y265224D01*
X305991Y265367D01*
X306018Y265497D01*
X306059Y265620D01*
X306100Y265722D01*
X306134Y265804D01*
X306168Y265872D01*
X306196Y265913D01*
X306203Y265927D01*
X306284Y266036D01*
X306380Y266132D01*
X306476Y266214D01*
X306571Y266282D01*
X306660Y266330D01*
X306729Y266371D01*
X306756Y266385D01*
X306776Y266391D01*
X306783Y266398D01*
X306790D01*
X306933Y266453D01*
X307084Y266494D01*
X307234Y266521D01*
X307370Y266542D01*
X307487Y266555D01*
X307534D01*
X307582Y266562D01*
X307664D01*
X307828Y266555D01*
D02*
G37*
G36*
X370208Y264322D02*
X371943Y262000D01*
X371233D01*
X370099Y263550D01*
X370072Y263591D01*
X370037Y263639D01*
X369962Y263741D01*
X369928Y263796D01*
X369908Y263837D01*
X369887Y263864D01*
X369880Y263871D01*
X369812Y263769D01*
X369757Y263687D01*
X369730Y263646D01*
X369710Y263618D01*
X369703Y263605D01*
X369696Y263598D01*
X368562Y262000D01*
X367831D01*
X369518Y264349D01*
X367954Y266487D01*
X368603D01*
X369505Y265285D01*
X369580Y265189D01*
X369648Y265101D01*
X369710Y265012D01*
X369757Y264937D01*
X369798Y264875D01*
X369832Y264827D01*
X369853Y264800D01*
X369860Y264786D01*
X369908Y264868D01*
X369955Y264950D01*
X370017Y265046D01*
X370078Y265135D01*
X370126Y265210D01*
X370174Y265271D01*
X370201Y265319D01*
X370215Y265326D01*
Y265333D01*
X371035Y266487D01*
X371738D01*
X370208Y264322D01*
D02*
G37*
G36*
X376000Y255961D02*
X374525D01*
Y252000D01*
X373931D01*
Y255961D01*
X372455D01*
Y256487D01*
X376000D01*
Y255961D01*
D02*
G37*
G36*
X374006Y216549D02*
X374224Y216521D01*
X374429Y216474D01*
X374518Y216446D01*
X374600Y216426D01*
X374675Y216398D01*
X374743Y216371D01*
X374805Y216351D01*
X374853Y216323D01*
X374887Y216309D01*
X374921Y216296D01*
X374935Y216282D01*
X374941D01*
X375037Y216228D01*
X375119Y216166D01*
X375283Y216036D01*
X375413Y215900D01*
X375529Y215763D01*
X375611Y215633D01*
X375645Y215586D01*
X375679Y215538D01*
X375699Y215497D01*
X375713Y215469D01*
X375727Y215449D01*
Y215442D01*
X375816Y215230D01*
X375884Y215012D01*
X375932Y214807D01*
X375966Y214616D01*
X375979Y214534D01*
X375986Y214459D01*
X375993Y214390D01*
Y214329D01*
X376000Y214281D01*
Y214247D01*
Y214226D01*
Y214219D01*
X375986Y213981D01*
X375959Y213755D01*
X375911Y213550D01*
X375891Y213455D01*
X375863Y213373D01*
X375836Y213291D01*
X375816Y213222D01*
X375788Y213161D01*
X375768Y213113D01*
X375754Y213072D01*
X375741Y213045D01*
X375727Y213024D01*
Y213018D01*
X375611Y212833D01*
X375481Y212669D01*
X375351Y212526D01*
X375215Y212410D01*
X375098Y212321D01*
X375051Y212287D01*
X375003Y212259D01*
X374969Y212232D01*
X374935Y212218D01*
X374921Y212211D01*
X374914Y212205D01*
X374709Y212109D01*
X374497Y212041D01*
X374299Y211993D01*
X374108Y211959D01*
X374026Y211945D01*
X373951Y211938D01*
X373883Y211931D01*
X373821D01*
X373773Y211925D01*
X373712D01*
X373534Y211931D01*
X373357Y211952D01*
X373200Y211979D01*
X373056Y212014D01*
X372995Y212027D01*
X372933Y212041D01*
X372885Y212054D01*
X372845Y212068D01*
X372810Y212082D01*
X372783Y212089D01*
X372769Y212095D01*
X372763D01*
X372592Y212171D01*
X372421Y212252D01*
X372271Y212341D01*
X372134Y212423D01*
X372018Y212505D01*
X371970Y212532D01*
X371929Y212567D01*
X371895Y212587D01*
X371875Y212608D01*
X371861Y212614D01*
X371854Y212621D01*
Y214288D01*
X373753D01*
Y213762D01*
X372435D01*
Y212915D01*
X372517Y212854D01*
X372605Y212792D01*
X372694Y212737D01*
X372783Y212690D01*
X372865Y212649D01*
X372933Y212621D01*
X372961Y212608D01*
X372981Y212601D01*
X372988Y212594D01*
X372995D01*
X373131Y212546D01*
X373268Y212512D01*
X373398Y212485D01*
X373507Y212471D01*
X373603Y212457D01*
X373678Y212451D01*
X373746D01*
X373910Y212457D01*
X374067Y212478D01*
X374204Y212512D01*
X374334Y212546D01*
X374436Y212580D01*
X374484Y212601D01*
X374518Y212614D01*
X374545Y212621D01*
X374566Y212635D01*
X374579Y212642D01*
X374586D01*
X374723Y212724D01*
X374846Y212819D01*
X374948Y212922D01*
X375030Y213018D01*
X375092Y213106D01*
X375139Y213175D01*
X375160Y213202D01*
X375174Y213222D01*
X375180Y213236D01*
Y213243D01*
X375249Y213407D01*
X375296Y213571D01*
X375338Y213741D01*
X375358Y213905D01*
X375365Y213974D01*
X375372Y214042D01*
X375378Y214103D01*
Y214151D01*
X375385Y214199D01*
Y214226D01*
Y214247D01*
Y214254D01*
X375378Y214431D01*
X375358Y214602D01*
X375331Y214752D01*
X375296Y214889D01*
X375269Y214998D01*
X375255Y215046D01*
X375242Y215080D01*
X375228Y215114D01*
X375221Y215135D01*
X375215Y215148D01*
Y215155D01*
X375174Y215244D01*
X375133Y215326D01*
X375085Y215401D01*
X375037Y215469D01*
X374996Y215524D01*
X374962Y215565D01*
X374941Y215592D01*
X374935Y215599D01*
X374859Y215674D01*
X374784Y215736D01*
X374702Y215791D01*
X374627Y215838D01*
X374559Y215879D01*
X374504Y215907D01*
X374470Y215920D01*
X374456Y215927D01*
X374340Y215968D01*
X374224Y216002D01*
X374101Y216023D01*
X373992Y216043D01*
X373896Y216050D01*
X373821Y216057D01*
X373753D01*
X373630Y216050D01*
X373514Y216036D01*
X373411Y216016D01*
X373323Y215995D01*
X373248Y215975D01*
X373186Y215954D01*
X373152Y215941D01*
X373138Y215934D01*
X373036Y215886D01*
X372954Y215838D01*
X372879Y215784D01*
X372817Y215736D01*
X372769Y215688D01*
X372735Y215654D01*
X372715Y215627D01*
X372708Y215620D01*
X372653Y215538D01*
X372605Y215449D01*
X372565Y215360D01*
X372530Y215278D01*
X372503Y215196D01*
X372476Y215135D01*
X372469Y215094D01*
X372462Y215087D01*
Y215080D01*
X371922Y215230D01*
X371970Y215394D01*
X372025Y215538D01*
X372080Y215661D01*
X372134Y215763D01*
X372189Y215852D01*
X372230Y215913D01*
X372257Y215948D01*
X372264Y215961D01*
X372353Y216064D01*
X372455Y216146D01*
X372558Y216221D01*
X372660Y216282D01*
X372749Y216337D01*
X372817Y216371D01*
X372845Y216385D01*
X372865Y216391D01*
X372879Y216398D01*
X372885D01*
X373036Y216453D01*
X373186Y216494D01*
X373336Y216521D01*
X373466Y216542D01*
X373582Y216555D01*
X373637D01*
X373678Y216562D01*
X373760D01*
X374006Y216549D01*
D02*
G37*
G36*
X374777Y224465D02*
X376000D01*
Y223953D01*
X374777D01*
Y222724D01*
X374258D01*
Y223953D01*
X373036D01*
Y224465D01*
X374258D01*
Y225688D01*
X374777D01*
Y224465D01*
D02*
G37*
G36*
X372325Y224117D02*
X371806Y224042D01*
X371759Y224110D01*
X371704Y224172D01*
X371649Y224226D01*
X371602Y224274D01*
X371554Y224308D01*
X371513Y224336D01*
X371485Y224349D01*
X371479Y224356D01*
X371397Y224397D01*
X371315Y224431D01*
X371233Y224452D01*
X371158Y224472D01*
X371089Y224479D01*
X371041Y224486D01*
X370994D01*
X370843Y224472D01*
X370707Y224445D01*
X370584Y224397D01*
X370488Y224349D01*
X370406Y224302D01*
X370352Y224254D01*
X370317Y224226D01*
X370304Y224213D01*
X370215Y224103D01*
X370147Y223980D01*
X370099Y223858D01*
X370072Y223741D01*
X370051Y223632D01*
X370044Y223584D01*
Y223543D01*
X370037Y223516D01*
Y223489D01*
Y223475D01*
Y223468D01*
X370051Y223291D01*
X370078Y223134D01*
X370126Y222997D01*
X370174Y222881D01*
X370222Y222792D01*
X370270Y222724D01*
X370297Y222683D01*
X370311Y222676D01*
Y222669D01*
X370365Y222615D01*
X370420Y222573D01*
X370529Y222498D01*
X370645Y222451D01*
X370748Y222410D01*
X370843Y222389D01*
X370918Y222382D01*
X370946Y222375D01*
X370987D01*
X371103Y222382D01*
X371212Y222410D01*
X371308Y222444D01*
X371390Y222478D01*
X371458Y222519D01*
X371506Y222546D01*
X371533Y222573D01*
X371547Y222580D01*
X371629Y222669D01*
X371690Y222772D01*
X371745Y222874D01*
X371779Y222976D01*
X371806Y223072D01*
X371827Y223147D01*
X371834Y223175D01*
X371841Y223195D01*
Y223209D01*
Y223216D01*
X372421Y223175D01*
X372407Y223072D01*
X372387Y222970D01*
X372332Y222792D01*
X372257Y222635D01*
X372182Y222505D01*
X372141Y222451D01*
X372107Y222403D01*
X372073Y222362D01*
X372045Y222328D01*
X372018Y222300D01*
X371998Y222280D01*
X371991Y222273D01*
X371984Y222266D01*
X371909Y222205D01*
X371827Y222157D01*
X371745Y222109D01*
X371663Y222068D01*
X371499Y222007D01*
X371342Y221966D01*
X371267Y221952D01*
X371199Y221945D01*
X371137Y221938D01*
X371089Y221932D01*
X371048Y221925D01*
X370987D01*
X370850Y221932D01*
X370720Y221945D01*
X370604Y221972D01*
X370488Y222007D01*
X370386Y222048D01*
X370283Y222095D01*
X370195Y222143D01*
X370119Y222198D01*
X370044Y222246D01*
X369983Y222293D01*
X369928Y222341D01*
X369887Y222382D01*
X369853Y222416D01*
X369826Y222444D01*
X369812Y222457D01*
X369805Y222464D01*
X369744Y222546D01*
X369689Y222635D01*
X369641Y222724D01*
X369600Y222819D01*
X369539Y222990D01*
X369491Y223154D01*
X369477Y223229D01*
X369471Y223298D01*
X369464Y223359D01*
X369457Y223414D01*
X369450Y223455D01*
Y223489D01*
Y223509D01*
Y223516D01*
X369457Y223632D01*
X369471Y223748D01*
X369491Y223851D01*
X369512Y223953D01*
X369546Y224042D01*
X369580Y224131D01*
X369614Y224206D01*
X369655Y224281D01*
X369696Y224342D01*
X369730Y224397D01*
X369764Y224445D01*
X369798Y224486D01*
X369819Y224520D01*
X369839Y224541D01*
X369853Y224554D01*
X369860Y224561D01*
X369935Y224636D01*
X370017Y224698D01*
X370099Y224752D01*
X370188Y224800D01*
X370270Y224841D01*
X370352Y224868D01*
X370509Y224923D01*
X370577Y224937D01*
X370645Y224950D01*
X370700Y224957D01*
X370755Y224964D01*
X370795Y224971D01*
X370850D01*
X371014Y224957D01*
X371171Y224923D01*
X371315Y224882D01*
X371438Y224827D01*
X371547Y224773D01*
X371588Y224752D01*
X371629Y224732D01*
X371656Y224711D01*
X371677Y224698D01*
X371690Y224691D01*
X371697Y224684D01*
X371451Y225893D01*
X369662D01*
Y226419D01*
X371888D01*
X372325Y224117D01*
D02*
G37*
G36*
X376000Y282000D02*
X375406D01*
Y283830D01*
X374258D01*
X374088Y283837D01*
X373931Y283844D01*
X373787Y283864D01*
X373651Y283892D01*
X373534Y283919D01*
X373425Y283953D01*
X373329Y283987D01*
X373248Y284028D01*
X373172Y284063D01*
X373111Y284097D01*
X373063Y284131D01*
X373015Y284158D01*
X372988Y284185D01*
X372968Y284206D01*
X372954Y284213D01*
X372947Y284220D01*
X372879Y284295D01*
X372824Y284377D01*
X372776Y284459D01*
X372735Y284541D01*
X372667Y284698D01*
X372626Y284855D01*
X372605Y284923D01*
X372599Y284984D01*
X372592Y285046D01*
X372585Y285094D01*
X372578Y285135D01*
Y285162D01*
Y285183D01*
Y285189D01*
X372585Y285312D01*
X372599Y285429D01*
X372619Y285531D01*
X372646Y285620D01*
X372674Y285695D01*
X372694Y285750D01*
X372708Y285784D01*
X372715Y285797D01*
X372769Y285900D01*
X372831Y285982D01*
X372892Y286057D01*
X372947Y286118D01*
X372995Y286166D01*
X373036Y286200D01*
X373070Y286221D01*
X373077Y286228D01*
X373165Y286282D01*
X373261Y286330D01*
X373350Y286364D01*
X373439Y286391D01*
X373514Y286412D01*
X373575Y286426D01*
X373616Y286439D01*
X373630D01*
X373726Y286453D01*
X373835Y286467D01*
X373951Y286473D01*
X374060Y286480D01*
X374163Y286487D01*
X376000D01*
Y282000D01*
D02*
G37*
G36*
X374368Y272000D02*
X373801D01*
Y275524D01*
X371444Y272000D01*
X370836D01*
Y276487D01*
X371403D01*
Y272963D01*
X373767Y276487D01*
X374368D01*
Y272000D01*
D02*
G37*
G36*
X370987Y212000D02*
X370420D01*
Y215524D01*
X368063Y212000D01*
X367456D01*
Y216487D01*
X368023D01*
Y212963D01*
X370386Y216487D01*
X370987D01*
Y212000D01*
D02*
G37*
G36*
X367435Y222000D02*
X366827D01*
X365072Y226487D01*
X365673D01*
X366889Y223229D01*
X366937Y223093D01*
X366984Y222956D01*
X367025Y222833D01*
X367059Y222724D01*
X367087Y222628D01*
X367107Y222553D01*
X367114Y222526D01*
X367121Y222505D01*
X367128Y222498D01*
Y222492D01*
X367203Y222751D01*
X367244Y222874D01*
X367285Y222990D01*
X367319Y223086D01*
X367340Y223161D01*
X367353Y223188D01*
X367360Y223209D01*
X367367Y223222D01*
Y223229D01*
X368528Y226487D01*
X369177D01*
X367435Y222000D01*
D02*
G37*
%LPC*%
G36*
X365571Y236023D02*
X365523Y235872D01*
X365475Y235715D01*
X365420Y235558D01*
X365366Y235408D01*
X365325Y235278D01*
X365304Y235224D01*
X365284Y235176D01*
X365270Y235135D01*
X365256Y235107D01*
X365250Y235087D01*
Y235080D01*
X364785Y233844D01*
X366308D01*
X365816Y235155D01*
X365762Y235312D01*
X365714Y235469D01*
X365673Y235613D01*
X365639Y235750D01*
X365612Y235859D01*
X365598Y235907D01*
X365584Y235947D01*
X365577Y235982D01*
Y236002D01*
X365571Y236016D01*
Y236023D01*
D02*
G37*
G36*
X312014Y286023D02*
X311967Y285872D01*
X311919Y285715D01*
X311864Y285558D01*
X311809Y285408D01*
X311769Y285278D01*
X311748Y285224D01*
X311727Y285176D01*
X311714Y285135D01*
X311700Y285107D01*
X311693Y285087D01*
Y285080D01*
X311229Y283844D01*
X312752D01*
X312260Y285155D01*
X312206Y285312D01*
X312158Y285469D01*
X312117Y285613D01*
X312083Y285750D01*
X312055Y285859D01*
X312042Y285907D01*
X312028Y285947D01*
X312021Y285982D01*
Y286002D01*
X312014Y286016D01*
Y286023D01*
D02*
G37*
G36*
X371028Y235961D02*
X370092D01*
X369908Y235954D01*
X369751Y235947D01*
X369621Y235934D01*
X369512Y235913D01*
X369429Y235893D01*
X369375Y235879D01*
X369341Y235872D01*
X369327Y235866D01*
X369211Y235804D01*
X369102Y235729D01*
X369006Y235647D01*
X368924Y235558D01*
X368856Y235483D01*
X368808Y235415D01*
X368788Y235387D01*
X368781Y235367D01*
X368767Y235360D01*
Y235353D01*
X368726Y235278D01*
X368692Y235196D01*
X368630Y235026D01*
X368589Y234848D01*
X368562Y234670D01*
X368555Y234595D01*
X368548Y234520D01*
X368542Y234452D01*
X368535Y234390D01*
Y234343D01*
Y234308D01*
Y234281D01*
Y234274D01*
X368542Y234090D01*
X368555Y233926D01*
X368576Y233776D01*
X368596Y233646D01*
X368617Y233543D01*
X368630Y233502D01*
X368637Y233468D01*
X368644Y233441D01*
X368651Y233420D01*
X368658Y233414D01*
Y233407D01*
X368706Y233284D01*
X368760Y233168D01*
X368815Y233072D01*
X368863Y232990D01*
X368911Y232929D01*
X368951Y232881D01*
X368979Y232847D01*
X368986Y232840D01*
X369047Y232785D01*
X369109Y232737D01*
X369177Y232703D01*
X369245Y232669D01*
X369300Y232642D01*
X369348Y232621D01*
X369375Y232614D01*
X369389Y232608D01*
X369491Y232580D01*
X369600Y232560D01*
X369716Y232546D01*
X369826Y232539D01*
X369928Y232533D01*
X370003Y232526D01*
X371028D01*
Y235961D01*
D02*
G37*
G36*
X308053Y246050D02*
X307992D01*
X307828Y246043D01*
X307678Y246016D01*
X307541Y245982D01*
X307425Y245941D01*
X307329Y245893D01*
X307254Y245859D01*
X307227Y245845D01*
X307206Y245831D01*
X307200Y245825D01*
X307193D01*
X307070Y245736D01*
X306961Y245634D01*
X306865Y245524D01*
X306790Y245422D01*
X306728Y245333D01*
X306687Y245258D01*
X306674Y245231D01*
X306660Y245210D01*
X306653Y245196D01*
Y245189D01*
X306592Y245032D01*
X306544Y244868D01*
X306510Y244705D01*
X306482Y244561D01*
X306469Y244431D01*
Y244370D01*
X306462Y244322D01*
Y244288D01*
Y244261D01*
Y244240D01*
Y244233D01*
X306469Y244076D01*
X306482Y243926D01*
X306503Y243789D01*
X306530Y243660D01*
X306564Y243537D01*
X306598Y243427D01*
X306640Y243332D01*
X306680Y243236D01*
X306721Y243161D01*
X306762Y243093D01*
X306797Y243031D01*
X306831Y242983D01*
X306858Y242943D01*
X306878Y242915D01*
X306892Y242901D01*
X306899Y242895D01*
X306981Y242813D01*
X307070Y242744D01*
X307159Y242683D01*
X307254Y242628D01*
X307343Y242581D01*
X307439Y242546D01*
X307609Y242492D01*
X307691Y242471D01*
X307766Y242458D01*
X307828Y242444D01*
X307889Y242437D01*
X307937Y242430D01*
X307999D01*
X308122Y242437D01*
X308231Y242451D01*
X308340Y242471D01*
X308443Y242505D01*
X308545Y242540D01*
X308634Y242581D01*
X308716Y242621D01*
X308791Y242662D01*
X308859Y242703D01*
X308921Y242751D01*
X308968Y242785D01*
X309010Y242819D01*
X309044Y242854D01*
X309071Y242874D01*
X309085Y242888D01*
X309091Y242895D01*
X309167Y242983D01*
X309235Y243086D01*
X309290Y243188D01*
X309337Y243291D01*
X309378Y243400D01*
X309419Y243502D01*
X309467Y243707D01*
X309488Y243803D01*
X309501Y243892D01*
X309508Y243967D01*
X309515Y244035D01*
X309522Y244097D01*
Y244138D01*
Y244165D01*
Y244172D01*
X309515Y244356D01*
X309501Y244527D01*
X309481Y244677D01*
X309453Y244821D01*
X309419Y244957D01*
X309378Y245073D01*
X309337Y245176D01*
X309296Y245271D01*
X309255Y245353D01*
X309214Y245422D01*
X309173Y245483D01*
X309139Y245531D01*
X309112Y245565D01*
X309091Y245592D01*
X309078Y245606D01*
X309071Y245613D01*
X308982Y245688D01*
X308893Y245756D01*
X308805Y245818D01*
X308709Y245866D01*
X308620Y245907D01*
X308531Y245941D01*
X308361Y245995D01*
X308285Y246016D01*
X308217Y246030D01*
X308149Y246036D01*
X308094Y246043D01*
X308053Y246050D01*
D02*
G37*
G36*
X313690Y236050D02*
X313628D01*
X313464Y236043D01*
X313314Y236016D01*
X313177Y235982D01*
X313061Y235941D01*
X312966Y235893D01*
X312891Y235859D01*
X312863Y235845D01*
X312843Y235831D01*
X312836Y235825D01*
X312829D01*
X312706Y235736D01*
X312597Y235633D01*
X312501Y235524D01*
X312426Y235422D01*
X312365Y235333D01*
X312324Y235258D01*
X312310Y235230D01*
X312297Y235210D01*
X312290Y235196D01*
Y235189D01*
X312228Y235032D01*
X312180Y234868D01*
X312146Y234704D01*
X312119Y234561D01*
X312105Y234431D01*
Y234370D01*
X312098Y234322D01*
Y234288D01*
Y234261D01*
Y234240D01*
Y234233D01*
X312105Y234076D01*
X312119Y233926D01*
X312139Y233789D01*
X312167Y233660D01*
X312201Y233537D01*
X312235Y233427D01*
X312276Y233332D01*
X312317Y233236D01*
X312358Y233161D01*
X312399Y233093D01*
X312433Y233031D01*
X312467Y232983D01*
X312494Y232942D01*
X312515Y232915D01*
X312529Y232901D01*
X312536Y232894D01*
X312617Y232813D01*
X312706Y232744D01*
X312795Y232683D01*
X312891Y232628D01*
X312979Y232580D01*
X313075Y232546D01*
X313246Y232492D01*
X313328Y232471D01*
X313403Y232457D01*
X313464Y232444D01*
X313526Y232437D01*
X313574Y232430D01*
X313635D01*
X313758Y232437D01*
X313867Y232451D01*
X313977Y232471D01*
X314079Y232505D01*
X314181Y232539D01*
X314270Y232580D01*
X314352Y232621D01*
X314427Y232662D01*
X314496Y232703D01*
X314557Y232751D01*
X314605Y232785D01*
X314646Y232819D01*
X314680Y232854D01*
X314707Y232874D01*
X314721Y232888D01*
X314728Y232894D01*
X314803Y232983D01*
X314871Y233086D01*
X314926Y233188D01*
X314974Y233291D01*
X315015Y233400D01*
X315056Y233502D01*
X315104Y233707D01*
X315124Y233803D01*
X315138Y233892D01*
X315145Y233967D01*
X315151Y234035D01*
X315158Y234097D01*
Y234138D01*
Y234165D01*
Y234172D01*
X315151Y234356D01*
X315138Y234527D01*
X315117Y234677D01*
X315090Y234821D01*
X315056Y234957D01*
X315015Y235073D01*
X314974Y235176D01*
X314933Y235271D01*
X314892Y235353D01*
X314851Y235422D01*
X314810Y235483D01*
X314776Y235531D01*
X314748Y235565D01*
X314728Y235592D01*
X314714Y235606D01*
X314707Y235613D01*
X314619Y235688D01*
X314530Y235756D01*
X314441Y235818D01*
X314345Y235866D01*
X314257Y235907D01*
X314168Y235941D01*
X313997Y235995D01*
X313922Y236016D01*
X313854Y236030D01*
X313785Y236036D01*
X313731Y236043D01*
X313690Y236050D01*
D02*
G37*
G36*
X308864Y215961D02*
X307929D01*
X307744Y215954D01*
X307587Y215948D01*
X307457Y215934D01*
X307348Y215913D01*
X307266Y215893D01*
X307211Y215879D01*
X307177Y215872D01*
X307164Y215866D01*
X307048Y215804D01*
X306938Y215729D01*
X306843Y215647D01*
X306761Y215558D01*
X306692Y215483D01*
X306645Y215415D01*
X306624Y215388D01*
X306617Y215367D01*
X306604Y215360D01*
Y215353D01*
X306563Y215278D01*
X306528Y215196D01*
X306467Y215025D01*
X306426Y214848D01*
X306399Y214670D01*
X306392Y214595D01*
X306385Y214520D01*
X306378Y214452D01*
X306371Y214390D01*
Y214342D01*
Y214308D01*
Y214281D01*
Y214274D01*
X306378Y214090D01*
X306392Y213926D01*
X306412Y213776D01*
X306433Y213646D01*
X306453Y213543D01*
X306467Y213502D01*
X306474Y213468D01*
X306481Y213441D01*
X306487Y213420D01*
X306494Y213414D01*
Y213407D01*
X306542Y213284D01*
X306597Y213168D01*
X306651Y213072D01*
X306699Y212990D01*
X306747Y212929D01*
X306788Y212881D01*
X306815Y212847D01*
X306822Y212840D01*
X306884Y212785D01*
X306945Y212737D01*
X307013Y212703D01*
X307082Y212669D01*
X307136Y212642D01*
X307184Y212621D01*
X307211Y212614D01*
X307225Y212608D01*
X307328Y212580D01*
X307437Y212560D01*
X307553Y212546D01*
X307662Y212539D01*
X307765Y212532D01*
X307840Y212526D01*
X308864D01*
Y215961D01*
D02*
G37*
G36*
X337682Y294203D02*
X335059D01*
X334769Y294190D01*
X334519Y294151D01*
X334308Y294111D01*
X334137Y294058D01*
X334018Y293992D01*
X333926Y293953D01*
X333873Y293913D01*
X333860Y293900D01*
X333741Y293782D01*
X333649Y293623D01*
X333583Y293465D01*
X333530Y293307D01*
X333504Y293162D01*
X333491Y293043D01*
Y292951D01*
Y292938D01*
Y292925D01*
X333504Y292688D01*
X333557Y292464D01*
X333649Y292279D01*
X333754Y292121D01*
X333886Y291989D01*
X334018Y291884D01*
X334176Y291791D01*
X334334Y291712D01*
X334492Y291660D01*
X334637Y291620D01*
X334782Y291581D01*
X334914Y291567D01*
X335020Y291554D01*
X335099Y291541D01*
X337682D01*
Y294203D01*
D02*
G37*
G36*
Y297696D02*
X334888D01*
X334743Y297683D01*
X334611Y297670D01*
X334519D01*
X334440Y297656D01*
X334374Y297643D01*
X334348Y297630D01*
X334334D01*
X334176Y297578D01*
X334044Y297498D01*
X333992Y297459D01*
X333952Y297419D01*
X333939Y297406D01*
X333926Y297393D01*
X333820Y297261D01*
X333741Y297143D01*
X333715Y297077D01*
X333688Y297037D01*
X333675Y297011D01*
Y296997D01*
X333623Y296826D01*
X333596Y296655D01*
X333583Y296589D01*
Y296536D01*
Y296497D01*
Y296483D01*
X333596Y296259D01*
X333649Y296062D01*
X333715Y295890D01*
X333794Y295759D01*
X333886Y295653D01*
X333952Y295574D01*
X334005Y295521D01*
X334018Y295508D01*
X334150Y295416D01*
X334282Y295350D01*
X334348Y295337D01*
X334387Y295324D01*
X334413Y295310D01*
X334426D01*
X334519Y295297D01*
X334624Y295284D01*
X334835Y295271D01*
X334927Y295258D01*
X337682D01*
Y297696D01*
D02*
G37*
G36*
X317155Y275989D02*
X315741D01*
X315564Y275982D01*
X315413Y275954D01*
X315290Y275927D01*
X315188Y275886D01*
X315113Y275852D01*
X315051Y275818D01*
X315024Y275791D01*
X315010Y275784D01*
X314935Y275702D01*
X314874Y275613D01*
X314833Y275524D01*
X314805Y275442D01*
X314792Y275367D01*
X314778Y275312D01*
Y275271D01*
Y275265D01*
Y275258D01*
X314785Y275176D01*
X314799Y275101D01*
X314819Y275032D01*
X314840Y274978D01*
X314860Y274923D01*
X314880Y274889D01*
X314894Y274862D01*
X314901Y274855D01*
X314949Y274793D01*
X315003Y274739D01*
X315065Y274691D01*
X315120Y274650D01*
X315167Y274623D01*
X315208Y274602D01*
X315236Y274595D01*
X315249Y274588D01*
X315338Y274561D01*
X315441Y274541D01*
X315550Y274527D01*
X315652Y274520D01*
X315741Y274513D01*
X315816Y274506D01*
X317155D01*
Y275989D01*
D02*
G37*
G36*
X317123Y305645D02*
X317058D01*
X316800Y305624D01*
X316575Y305570D01*
X316382Y305506D01*
X316220Y305420D01*
X316102Y305334D01*
X316016Y305270D01*
X315963Y305216D01*
X315941Y305194D01*
X315812Y305012D01*
X315716Y304808D01*
X315651Y304593D01*
X315598Y304389D01*
X315576Y304195D01*
X315565Y304120D01*
Y304045D01*
X315555Y303992D01*
Y303948D01*
Y303916D01*
Y303906D01*
X315576Y303616D01*
X315619Y303358D01*
X315694Y303143D01*
X315791Y302950D01*
X315909Y302789D01*
X316038Y302660D01*
X316178Y302542D01*
X316317Y302456D01*
X316457Y302391D01*
X316596Y302338D01*
X316725Y302305D01*
X316843Y302273D01*
X316940Y302262D01*
X317015Y302252D01*
X317080D01*
X317337Y302273D01*
X317563Y302327D01*
X317756Y302402D01*
X317928Y302509D01*
X318068Y302638D01*
X318197Y302778D01*
X318293Y302928D01*
X318369Y303089D01*
X318422Y303250D01*
X318476Y303401D01*
X318508Y303540D01*
X318530Y303669D01*
X318540Y303777D01*
X318551Y303852D01*
Y303906D01*
Y303927D01*
X318530Y304228D01*
X318487Y304486D01*
X318433Y304700D01*
X318358Y304883D01*
X318283Y305023D01*
X318229Y305119D01*
X318186Y305184D01*
X318164Y305205D01*
X318003Y305356D01*
X317831Y305463D01*
X317649Y305538D01*
X317466Y305592D01*
X317305Y305624D01*
X317176Y305635D01*
X317123Y305645D01*
D02*
G37*
G36*
X365864Y215961D02*
X364929D01*
X364744Y215954D01*
X364587Y215948D01*
X364457Y215934D01*
X364348Y215913D01*
X364266Y215893D01*
X364211Y215879D01*
X364177Y215872D01*
X364164Y215866D01*
X364048Y215804D01*
X363938Y215729D01*
X363843Y215647D01*
X363761Y215558D01*
X363692Y215483D01*
X363645Y215415D01*
X363624Y215388D01*
X363617Y215367D01*
X363603Y215360D01*
Y215353D01*
X363563Y215278D01*
X363528Y215196D01*
X363467Y215025D01*
X363426Y214848D01*
X363399Y214670D01*
X363392Y214595D01*
X363385Y214520D01*
X363378Y214452D01*
X363371Y214390D01*
Y214342D01*
Y214308D01*
Y214281D01*
Y214274D01*
X363378Y214090D01*
X363392Y213926D01*
X363412Y213776D01*
X363433Y213646D01*
X363453Y213543D01*
X363467Y213502D01*
X363474Y213468D01*
X363481Y213441D01*
X363487Y213420D01*
X363494Y213414D01*
Y213407D01*
X363542Y213284D01*
X363597Y213168D01*
X363651Y213072D01*
X363699Y212990D01*
X363747Y212929D01*
X363788Y212881D01*
X363815Y212847D01*
X363822Y212840D01*
X363884Y212785D01*
X363945Y212737D01*
X364013Y212703D01*
X364082Y212669D01*
X364136Y212642D01*
X364184Y212621D01*
X364211Y212614D01*
X364225Y212608D01*
X364328Y212580D01*
X364437Y212560D01*
X364553Y212546D01*
X364662Y212539D01*
X364765Y212532D01*
X364840Y212526D01*
X365864D01*
Y215961D01*
D02*
G37*
G36*
X375406Y265988D02*
X373992D01*
X373814Y265982D01*
X373664Y265954D01*
X373541Y265927D01*
X373439Y265886D01*
X373364Y265852D01*
X373302Y265818D01*
X373275Y265791D01*
X373261Y265784D01*
X373186Y265702D01*
X373125Y265613D01*
X373084Y265524D01*
X373056Y265442D01*
X373043Y265367D01*
X373029Y265312D01*
Y265271D01*
Y265265D01*
Y265258D01*
X373036Y265176D01*
X373049Y265101D01*
X373070Y265032D01*
X373090Y264978D01*
X373111Y264923D01*
X373131Y264889D01*
X373145Y264862D01*
X373152Y264855D01*
X373200Y264793D01*
X373254Y264739D01*
X373316Y264691D01*
X373370Y264650D01*
X373418Y264622D01*
X373459Y264602D01*
X373487Y264595D01*
X373500Y264588D01*
X373589Y264561D01*
X373692Y264541D01*
X373801Y264527D01*
X373903Y264520D01*
X373992Y264513D01*
X374067Y264506D01*
X375406D01*
Y265988D01*
D02*
G37*
G36*
Y285961D02*
X374129D01*
X374006Y285954D01*
X373910Y285947D01*
X373835Y285941D01*
X373780Y285934D01*
X373739Y285927D01*
X373719Y285920D01*
X373712D01*
X373630Y285886D01*
X373555Y285852D01*
X373493Y285804D01*
X373439Y285763D01*
X373391Y285722D01*
X373364Y285688D01*
X373343Y285661D01*
X373336Y285654D01*
X373288Y285579D01*
X373254Y285497D01*
X373227Y285415D01*
X373213Y285340D01*
X373200Y285271D01*
X373193Y285217D01*
Y285183D01*
Y285169D01*
X373206Y285032D01*
X373234Y284909D01*
X373268Y284807D01*
X373316Y284725D01*
X373364Y284657D01*
X373398Y284609D01*
X373425Y284575D01*
X373439Y284568D01*
X373487Y284534D01*
X373541Y284500D01*
X373664Y284445D01*
X373801Y284411D01*
X373937Y284384D01*
X374060Y284370D01*
X374108Y284363D01*
X374156D01*
X374197Y284356D01*
X375406D01*
Y285961D01*
D02*
G37*
%LPD*%
D10*
X294300Y131900D02*
Y136399D01*
X292051D01*
X291301Y135649D01*
Y134149D01*
X292051Y133399D01*
X294300D01*
X286802Y136399D02*
X289802D01*
Y134149D01*
X288302Y134899D01*
X287552D01*
X286802Y134149D01*
Y132650D01*
X287552Y131900D01*
X289052D01*
X289802Y132650D01*
X420000Y100000D02*
Y320000D01*
X100000Y100000D02*
X420000D01*
X100000D02*
Y320000D01*
X420000D01*
D25*
X217500Y108500D02*
Y128500D01*
X287500Y108500D02*
Y128500D01*
X217500D02*
X287500D01*
X217500Y108500D02*
X287500D01*
D27*
X301000Y209500D02*
Y289500D01*
X291000Y289500D02*
X301000Y289500D01*
X291000Y209500D02*
Y289500D01*
Y209500D02*
X301000D01*
X291000Y279500D02*
X301000D01*
X381000D02*
X391000D01*
X381000Y209500D02*
X391000D01*
X381000D02*
Y289500D01*
X391000Y289500D01*
Y209500D02*
Y289500D01*
X291000Y199500D02*
Y209500D01*
Y199500D02*
X381000D01*
X391000Y209500D01*
D28*
X291168Y121500D02*
X294500D01*
X291168Y124832D01*
Y125665D01*
X292001Y126498D01*
X293667D01*
X294500Y125665D01*
Y111500D02*
X292834D01*
X293667D01*
Y116498D01*
X294500Y115665D01*
X214500Y121500D02*
X212834D01*
X213667D01*
Y126498D01*
X214500Y125665D01*
X207836Y121500D02*
Y126498D01*
X210335Y123999D01*
X207002D01*
X214500Y111500D02*
X212834D01*
X213667D01*
Y116498D01*
X214500Y115665D01*
X210335D02*
X209502Y116498D01*
X207836D01*
X207002Y115665D01*
Y114832D01*
X207836Y113999D01*
X208669D01*
X207836D01*
X207002Y113166D01*
Y112333D01*
X207836Y111500D01*
X209502D01*
X210335Y112333D01*
D30*
X142540Y284445D02*
X143030Y283935D01*
X143009Y282936D01*
X142499Y282446D01*
X140500Y282488D01*
X140010Y282998D01*
X140031Y283998D01*
X140541Y284487D01*
X141541Y284466D01*
X141520Y283467D01*
X140062Y285497D02*
X143061Y285434D01*
X140104Y287496D01*
X143102Y287433D01*
X143123Y288433D02*
X140125Y288495D01*
X140156Y289994D01*
X140666Y290484D01*
X142665Y290442D01*
X143155Y289932D01*
X143123Y288433D01*
X162998Y279438D02*
X161000Y279479D01*
X160021Y280500D01*
X161041Y281478D01*
X163040Y281436D01*
X163061Y282436D02*
X160062Y282498D01*
X160094Y283998D01*
X160604Y284487D01*
X161103Y284476D01*
X161593Y283966D01*
X161562Y282467D01*
X161593Y283966D01*
X162103Y284456D01*
X162603Y284445D01*
X163092Y283935D01*
X163061Y282436D01*
X163123Y285434D02*
X160625Y285486D01*
X160135Y285997D01*
X160156Y286996D01*
X160666Y287485D01*
X163165Y287433D01*
X162728Y290442D02*
X163217Y289932D01*
X163196Y288932D01*
X162686Y288443D01*
X162186Y288454D01*
X161697Y288964D01*
X161718Y289963D01*
X161228Y290473D01*
X160729Y290484D01*
X160219Y289994D01*
X160198Y288995D01*
X160687Y288485D01*
X170000Y282498D02*
X172998Y282436D01*
X173030Y283935D01*
X172540Y284445D01*
X171541Y284466D01*
X171031Y283977D01*
X171000Y282478D01*
X171020Y283477D02*
X170042Y284497D01*
X173061Y285434D02*
X170104Y287496D01*
X173102Y287433D02*
X170062Y285497D01*
X173123Y288433D02*
X170125Y288495D01*
X170156Y289994D01*
X170666Y290484D01*
X172665Y290442D01*
X173154Y289932D01*
X173123Y288433D01*
X182498Y282436D02*
X182540Y284435D01*
X182519Y283435D01*
X179521Y283498D01*
X182561Y285434D02*
X179604Y287496D01*
X182602Y287433D02*
X179562Y285497D01*
X182623Y288433D02*
X179625Y288495D01*
X179656Y289994D01*
X180166Y290484D01*
X182165Y290442D01*
X182655Y289932D01*
X182623Y288433D01*
X192998Y282436D02*
X190000Y282498D01*
X190031Y283998D01*
X190541Y284487D01*
X192540Y284445D01*
X193030Y283935D01*
X192998Y282436D01*
X193061Y285434D02*
X193102Y287433D01*
X193082Y286434D01*
X190083Y286496D01*
X190125Y288495D02*
X193123Y288433D01*
X193155Y289932D01*
X192665Y290442D01*
X191666Y290463D01*
X191156Y289973D01*
X191124Y288474D01*
X191145Y289474D02*
X190166Y290494D01*
X363540Y138447D02*
X364030Y137937D01*
X364009Y136937D01*
X363499Y136448D01*
X362999Y136458D01*
X362510Y136969D01*
X362530Y137968D01*
X362041Y138478D01*
X361541Y138488D01*
X361031Y137999D01*
X361010Y137000D01*
X361500Y136490D01*
X364061Y139436D02*
X361062Y139498D01*
X361094Y140998D01*
X361604Y141487D01*
X363603Y141445D01*
X364092Y140935D01*
X364061Y139436D01*
X361125Y142497D02*
X363124Y142455D01*
X364144Y143434D01*
X363165Y144454D01*
X361167Y144496D01*
X362666Y144465D01*
X362624Y142465D01*
X364290Y150430D02*
X364248Y148431D01*
X362749Y148462D01*
X363269Y149451D01*
X363280Y149951D01*
X362791Y150461D01*
X361791Y150482D01*
X361281Y149993D01*
X361260Y148993D01*
X361750Y148483D01*
X364311Y151429D02*
X362312Y151471D01*
X361333Y152491D01*
X362353Y153470D01*
X364352Y153428D01*
X354040Y138447D02*
X354530Y137937D01*
X354509Y136937D01*
X353999Y136448D01*
X353499Y136458D01*
X353010Y136969D01*
X353030Y137968D01*
X352541Y138478D01*
X352041Y138488D01*
X351531Y137999D01*
X351510Y137000D01*
X352000Y136490D01*
X354103Y141445D02*
X354592Y140935D01*
X354571Y139936D01*
X354061Y139446D01*
X352062Y139488D01*
X351573Y139998D01*
X351594Y140998D01*
X352104Y141487D01*
X354623Y142434D02*
X351625Y142497D01*
X351666Y144496D01*
X354790Y150430D02*
X354748Y148431D01*
X353249Y148462D01*
X353769Y149451D01*
X353780Y149951D01*
X353291Y150461D01*
X352291Y150482D01*
X351781Y149993D01*
X351760Y148993D01*
X352250Y148483D01*
X354811Y151429D02*
X352812Y151471D01*
X351833Y152491D01*
X352853Y153470D01*
X354852Y153428D01*
X344040Y138447D02*
X344530Y137937D01*
X344509Y136937D01*
X343999Y136448D01*
X342000Y136490D01*
X341510Y137000D01*
X341531Y137999D01*
X342041Y138488D01*
X343041Y138468D01*
X343020Y137468D01*
X341562Y139498D02*
X344561Y139436D01*
X341604Y141497D01*
X344602Y141435D01*
X344623Y142434D02*
X341625Y142497D01*
X341656Y143996D01*
X342166Y144485D01*
X344165Y144444D01*
X344654Y143933D01*
X344623Y142434D01*
X333999Y136448D02*
X334509Y136937D01*
X334530Y137937D01*
X334040Y138447D01*
X333541Y138457D01*
X333030Y137968D01*
X333020Y137468D01*
X333030Y137968D01*
X332541Y138478D01*
X332041Y138488D01*
X331531Y137999D01*
X331510Y137000D01*
X332000Y136490D01*
X334561Y139436D02*
X332562Y139478D01*
X331583Y140498D01*
X332604Y141477D01*
X334602Y141435D01*
X334123Y142445D02*
X334634Y142934D01*
X334654Y143933D01*
X334165Y144444D01*
X333665Y144454D01*
X333155Y143965D01*
X333145Y143465D01*
X333155Y143965D01*
X332666Y144475D01*
X332166Y144485D01*
X331656Y143996D01*
X331635Y142997D01*
X332125Y142486D01*
X334779Y149930D02*
X334759Y148931D01*
X334248Y148442D01*
X332249Y148483D01*
X331760Y148993D01*
X331781Y149993D01*
X332291Y150482D01*
X334290Y150440D01*
X334779Y149930D01*
X333811Y151450D02*
X332312Y151481D01*
X331823Y151992D01*
X331854Y153491D01*
X333853Y153449D01*
X334384Y154938D02*
X333884Y154948D01*
X333874Y154449D01*
X333894Y155448D01*
X333884Y154948D01*
X332385Y154980D01*
X331895Y155490D01*
X323540Y138936D02*
X323498Y136937D01*
X321999Y136969D01*
X322520Y137958D01*
X322530Y138458D01*
X322041Y138968D01*
X321041Y138988D01*
X320531Y138499D01*
X320510Y137500D01*
X321000Y136990D01*
X323561Y139936D02*
X321562Y139978D01*
X320583Y140998D01*
X321604Y141976D01*
X323603Y141935D01*
X323686Y145933D02*
X323707Y146932D01*
X323696Y146432D01*
X320698Y146495D01*
X320687Y145995D01*
X320708Y146995D01*
X320739Y148494D02*
X322738Y148452D01*
X322770Y149951D01*
X322280Y150461D01*
X320781Y150493D01*
D45*
X344203Y298738D02*
Y299552D01*
Y294801D02*
Y298738D01*
X343780Y294694D02*
X344203Y294801D01*
X343389Y294517D02*
X343780Y294694D01*
X343039Y294277D02*
X343389Y294517D01*
X342737Y293982D02*
X343039Y294277D01*
X342489Y293639D02*
X342737Y293982D01*
X342303Y293255D02*
X342489Y293639D01*
X342186Y292836D02*
X342303Y293255D01*
X342146Y292390D02*
X342186Y292836D01*
X342146Y292390D02*
X342195Y291897D01*
X342337Y291438D01*
X342563Y291023D01*
X342861Y290662D01*
X343222Y290363D01*
X343637Y290138D01*
X344096Y289995D01*
X344588Y289945D01*
X345081Y289995D01*
X345540Y290138D01*
X345956Y290363D01*
X346317Y290662D01*
X346615Y291023D01*
X346841Y291438D01*
X346983Y291897D01*
X347033Y292390D01*
X346993Y292830D02*
X347033Y292390D01*
X346879Y293245D02*
X346993Y292830D01*
X346697Y293626D02*
X346879Y293245D01*
X346454Y293968D02*
X346697Y293626D01*
X346158Y294262D02*
X346454Y293968D01*
X345815Y294503D02*
X346158Y294262D01*
X345432Y294682D02*
X345815Y294503D01*
X345017Y294795D02*
X345432Y294682D01*
X345017Y294795D02*
Y298738D01*
X349421D01*
X350236D01*
X354615D01*
Y294801D02*
Y298738D01*
X354192Y294694D02*
X354615Y294801D01*
X353802Y294517D02*
X354192Y294694D01*
X353452Y294277D02*
X353802Y294517D01*
X353149Y293982D02*
X353452Y294277D01*
X352901Y293639D02*
X353149Y293982D01*
X352715Y293255D02*
X352901Y293639D01*
X352598Y292836D02*
X352715Y293255D01*
X352557Y292390D02*
X352598Y292836D01*
X352557Y292390D02*
X352607Y291897D01*
X352749Y291438D01*
X352974Y291023D01*
X353273Y290662D01*
X353635Y290363D01*
X354050Y290138D01*
X354509Y289995D01*
X355001Y289945D01*
X355494Y289995D01*
X355953Y290138D01*
X356368Y290363D01*
X356730Y290662D01*
X357028Y291023D01*
X357253Y291438D01*
X357396Y291897D01*
X357445Y292390D01*
X357406Y292830D02*
X357445Y292390D01*
X357291Y293245D02*
X357406Y292830D01*
X357109Y293626D02*
X357291Y293245D01*
X356867Y293968D02*
X357109Y293626D01*
X356571Y294262D02*
X356867Y293968D01*
X356228Y294503D02*
X356571Y294262D01*
X355845Y294682D02*
X356228Y294503D01*
X355430Y294795D02*
X355845Y294682D01*
X355430Y294795D02*
Y298738D01*
X359834D01*
X360648D01*
X365053D01*
Y294801D02*
Y298738D01*
X364630Y294694D02*
X365053Y294801D01*
X364240Y294517D02*
X364630Y294694D01*
X363890Y294277D02*
X364240Y294517D01*
X363587Y293982D02*
X363890Y294277D01*
X363339Y293639D02*
X363587Y293982D01*
X363153Y293255D02*
X363339Y293639D01*
X363036Y292836D02*
X363153Y293255D01*
X362995Y292390D02*
X363036Y292836D01*
X362995Y292390D02*
X363045Y291897D01*
X363187Y291438D01*
X363413Y291023D01*
X363711Y290662D01*
X364073Y290363D01*
X364489Y290138D01*
X364947Y289995D01*
X365440Y289945D01*
X365933Y289995D01*
X366391Y290138D01*
X366807Y290363D01*
X367168Y290662D01*
X367467Y291023D01*
X367692Y291438D01*
X367834Y291897D01*
X367884Y292390D01*
X367844Y292830D02*
X367884Y292390D01*
X367730Y293245D02*
X367844Y292830D01*
X367548Y293626D02*
X367730Y293245D01*
X367306Y293968D02*
X367548Y293626D01*
X367009Y294262D02*
X367306Y293968D01*
X366666Y294503D02*
X367009Y294262D01*
X366283Y294682D02*
X366666Y294503D01*
X365868Y294795D02*
X366283Y294682D01*
X365868Y294795D02*
X365876Y296347D01*
X365870Y299552D02*
X365876Y296347D01*
X360648Y299552D02*
X365870D01*
X360648D02*
Y303495D01*
X361064Y303607D01*
X361446Y303787D01*
X361790Y304027D01*
X362086Y304322D01*
X362329Y304664D01*
X362511Y305045D01*
X362625Y305459D01*
X362665Y305900D01*
X362615Y306393D02*
X362665Y305900D01*
X362473Y306851D02*
X362615Y306393D01*
X362248Y307266D02*
X362473Y306851D01*
X361949Y307628D02*
X362248Y307266D01*
X361587Y307927D02*
X361949Y307628D01*
X361172Y308152D02*
X361587Y307927D01*
X360713Y308294D02*
X361172Y308152D01*
X360221Y308344D02*
X360713Y308294D01*
X359728D02*
X360221Y308344D01*
X359269Y308152D02*
X359728Y308294D01*
X358854Y307927D02*
X359269Y308152D01*
X358493Y307628D02*
X358854Y307927D01*
X358194Y307266D02*
X358493Y307628D01*
X357969Y306851D02*
X358194Y307266D01*
X357826Y306393D02*
X357969Y306851D01*
X357777Y305900D02*
X357826Y306393D01*
X357777Y305900D02*
X357817Y305454D01*
X357934Y305035D01*
X358120Y304651D01*
X358368Y304307D01*
X358671Y304012D01*
X359021Y303773D01*
X359411Y303596D01*
X359834Y303489D01*
Y299552D02*
Y303489D01*
X355430Y299552D02*
X359834D01*
X354615D02*
X355430D01*
X350236D02*
X354615D01*
X350236D02*
Y303495D01*
X350652Y303607D01*
X351034Y303787D01*
X351377Y304027D01*
X351674Y304322D01*
X351916Y304664D01*
X352098Y305045D01*
X352212Y305459D01*
X352252Y305900D01*
X352202Y306393D02*
X352252Y305900D01*
X352060Y306851D02*
X352202Y306393D01*
X351835Y307266D02*
X352060Y306851D01*
X351536Y307628D02*
X351835Y307266D01*
X351174Y307927D02*
X351536Y307628D01*
X350759Y308152D02*
X351174Y307927D01*
X350300Y308294D02*
X350759Y308152D01*
X349808Y308344D02*
X350300Y308294D01*
X349315D02*
X349808Y308344D01*
X348856Y308152D02*
X349315Y308294D01*
X348441Y307927D02*
X348856Y308152D01*
X348080Y307628D02*
X348441Y307927D01*
X347781Y307266D02*
X348080Y307628D01*
X347556Y306851D02*
X347781Y307266D01*
X347413Y306393D02*
X347556Y306851D01*
X347364Y305900D02*
X347413Y306393D01*
X347364Y305900D02*
X347404Y305454D01*
X347521Y305035D01*
X347707Y304651D01*
X347956Y304307D01*
X348258Y304012D01*
X348608Y303773D01*
X348998Y303596D01*
X349421Y303489D01*
Y299552D02*
Y303489D01*
X345017Y299552D02*
X349421D01*
X344203D02*
X345017D01*
X359715Y308292D02*
X360726D01*
X349303D02*
X350313D01*
X359370Y308192D02*
X361072D01*
X348957D02*
X350658D01*
X359138Y308092D02*
X361304D01*
X348725D02*
X350890D01*
X358956Y307992D02*
X361485D01*
X348543D02*
X351072D01*
X358804Y307892D02*
X361638D01*
X348391D02*
X351224D01*
X358674Y307792D02*
X361768D01*
X348261D02*
X351355D01*
X358559Y307692D02*
X361883D01*
X348146D02*
X351470D01*
X358457Y307592D02*
X361985D01*
X348044D02*
X351572D01*
X358366Y307492D02*
X362076D01*
X347953D02*
X351663D01*
X358285Y307392D02*
X362157D01*
X347872D02*
X351744D01*
X358211Y307292D02*
X362230D01*
X347798D02*
X351817D01*
X358146Y307192D02*
X362296D01*
X347733D02*
X351883D01*
X358087Y307092D02*
X362355D01*
X347674D02*
X351942D01*
X358033Y306992D02*
X362408D01*
X347620D02*
X351995D01*
X357986Y306892D02*
X362456D01*
X347573D02*
X352043D01*
X357944Y306792D02*
X362497D01*
X347531D02*
X352084D01*
X357908Y306692D02*
X362534D01*
X347495D02*
X352121D01*
X357876Y306592D02*
X362566D01*
X347463D02*
X352152D01*
X357849Y306492D02*
X362593D01*
X347436D02*
X352180D01*
X357826Y306392D02*
X362616D01*
X347413D02*
X352203D01*
X357808Y306292D02*
X362633D01*
X347395D02*
X352220D01*
X357794Y306192D02*
X362648D01*
X347381D02*
X352235D01*
X357784Y306092D02*
X362657D01*
X347371D02*
X352244D01*
X357779Y305992D02*
X362663D01*
X347366D02*
X352250D01*
X357777Y305892D02*
X362665D01*
X347364D02*
X352252D01*
X357780Y305792D02*
X362663D01*
X347367D02*
X352250D01*
X357786Y305692D02*
X362656D01*
X347373D02*
X352243D01*
X357796Y305592D02*
X362646D01*
X347383D02*
X352233D01*
X357811Y305492D02*
X362631D01*
X347398D02*
X352218D01*
X357830Y305392D02*
X362612D01*
X347417D02*
X352199D01*
X357853Y305292D02*
X362589D01*
X347440D02*
X352176D01*
X357881Y305192D02*
X362561D01*
X347468D02*
X352148D01*
X357914Y305092D02*
X362528D01*
X347501D02*
X352115D01*
X357952Y304992D02*
X362490D01*
X347539D02*
X352077D01*
X357994Y304892D02*
X362448D01*
X347581D02*
X352035D01*
X358042Y304792D02*
X362399D01*
X347630D02*
X351986D01*
X358097Y304692D02*
X362345D01*
X347684D02*
X351932D01*
X358157Y304592D02*
X362285D01*
X347744D02*
X351872D01*
X358224Y304492D02*
X362218D01*
X347811D02*
X351805D01*
X358299Y304392D02*
X362143D01*
X347886D02*
X351730D01*
X358382Y304292D02*
X362060D01*
X347969D02*
X351647D01*
X358475Y304192D02*
X361967D01*
X348062D02*
X351555D01*
X358579Y304092D02*
X361863D01*
X348167D02*
X351450D01*
X358697Y303992D02*
X361746D01*
X348284D02*
X351333D01*
X358831Y303892D02*
X361611D01*
X348419D02*
X351199D01*
X358989Y303792D02*
X361454D01*
X348576D02*
X351042D01*
X359179Y303692D02*
X361265D01*
X348766D02*
X350853D01*
X359425Y303592D02*
X361020D01*
X349012D02*
X350608D01*
X359820Y303492D02*
X360648D01*
X349407D02*
X350236D01*
X359834Y303392D02*
X360648D01*
X349421D02*
X350236D01*
X359834Y303292D02*
X360648D01*
X349421D02*
X350236D01*
X359834Y303192D02*
X360648D01*
X349421D02*
X350236D01*
X359834Y303092D02*
X360648D01*
X349421D02*
X350236D01*
X359834Y302992D02*
X360648D01*
X349421D02*
X350236D01*
X359834Y302892D02*
X360648D01*
X349421D02*
X350236D01*
X359834Y302792D02*
X360648D01*
X349421D02*
X350236D01*
X359834Y302692D02*
X360648D01*
X349421D02*
X350236D01*
X359834Y302592D02*
X360648D01*
X349421D02*
X350236D01*
X359834Y302492D02*
X360648D01*
X349421D02*
X350236D01*
X359834Y302392D02*
X360648D01*
X349421D02*
X350236D01*
X359834Y302292D02*
X360648D01*
X349421D02*
X350236D01*
X359834Y302192D02*
X360648D01*
X349421D02*
X350236D01*
X359834Y302092D02*
X360648D01*
X349421D02*
X350236D01*
X359834Y301992D02*
X360648D01*
X349421D02*
X350236D01*
X359834Y301892D02*
X360648D01*
X349421D02*
X350236D01*
X359834Y301792D02*
X360648D01*
X349421D02*
X350236D01*
X359834Y301692D02*
X360648D01*
X349421D02*
X350236D01*
X359834Y301592D02*
X360648D01*
X349421D02*
X350236D01*
X359834Y301492D02*
X360648D01*
X349421D02*
X350236D01*
X359834Y301392D02*
X360648D01*
X349421D02*
X350236D01*
X359834Y301292D02*
X360648D01*
X349421D02*
X350236D01*
X359834Y301192D02*
X360648D01*
X349421D02*
X350236D01*
X359834Y301092D02*
X360648D01*
X349421D02*
X350236D01*
X359834Y300992D02*
X360648D01*
X349421D02*
X350236D01*
X359834Y300892D02*
X360648D01*
X349421D02*
X350236D01*
X359834Y300792D02*
X360648D01*
X349421D02*
X350236D01*
X359834Y300692D02*
X360648D01*
X349421D02*
X350236D01*
X359834Y300592D02*
X360648D01*
X349421D02*
X350236D01*
X359834Y300492D02*
X360648D01*
X349421D02*
X350236D01*
X359834Y300392D02*
X360648D01*
X349421D02*
X350236D01*
X359834Y300292D02*
X360648D01*
X349421D02*
X350236D01*
X359834Y300192D02*
X360648D01*
X349421D02*
X350236D01*
X359834Y300092D02*
X360648D01*
X349421D02*
X350236D01*
X359834Y299992D02*
X360648D01*
X349421D02*
X350236D01*
X359834Y299892D02*
X360648D01*
X349421D02*
X350236D01*
X359834Y299792D02*
X360648D01*
X349421D02*
X350236D01*
X359834Y299692D02*
X360648D01*
X349421D02*
X350236D01*
X359834Y299592D02*
X360648D01*
X349421D02*
X350236D01*
X344203Y299492D02*
X365870D01*
X344203Y299392D02*
X365870D01*
X344203Y299292D02*
X365870D01*
X344203Y299192D02*
X365871D01*
X344203Y299092D02*
X365871D01*
X344203Y298992D02*
X365871D01*
X344203Y298892D02*
X365871D01*
X344203Y298792D02*
X365871D01*
X365053Y298692D02*
X365872D01*
X354615D02*
X355430D01*
X344203D02*
X345017D01*
X365053Y298592D02*
X365872D01*
X354615D02*
X355430D01*
X344203D02*
X345017D01*
X365053Y298492D02*
X365872D01*
X354615D02*
X355430D01*
X344203D02*
X345017D01*
X365053Y298392D02*
X365872D01*
X354615D02*
X355430D01*
X344203D02*
X345017D01*
X365053Y298292D02*
X365872D01*
X354615D02*
X355430D01*
X344203D02*
X345017D01*
X365053Y298192D02*
X365872D01*
X354615D02*
X355430D01*
X344203D02*
X345017D01*
X365053Y298092D02*
X365872D01*
X354615D02*
X355430D01*
X344203D02*
X345017D01*
X365053Y297992D02*
X365873D01*
X354615D02*
X355430D01*
X344203D02*
X345017D01*
X365053Y297892D02*
X365873D01*
X354615D02*
X355430D01*
X344203D02*
X345017D01*
X365053Y297792D02*
X365873D01*
X354615D02*
X355430D01*
X344203D02*
X345017D01*
X365053Y297692D02*
X365873D01*
X354615D02*
X355430D01*
X344203D02*
X345017D01*
X365053Y297592D02*
X365874D01*
X354615D02*
X355430D01*
X344203D02*
X345017D01*
X365053Y297492D02*
X365874D01*
X354615D02*
X355430D01*
X344203D02*
X345017D01*
X365053Y297392D02*
X365874D01*
X354615D02*
X355430D01*
X344203D02*
X345017D01*
X365053Y297292D02*
X365874D01*
X354615D02*
X355430D01*
X344203D02*
X345017D01*
X365053Y297192D02*
X365874D01*
X354615D02*
X355430D01*
X344203D02*
X345017D01*
X365053Y297092D02*
X365874D01*
X354615D02*
X355430D01*
X344203D02*
X345017D01*
X365053Y296992D02*
X365874D01*
X354615D02*
X355430D01*
X344203D02*
X345017D01*
X365053Y296892D02*
X365875D01*
X354615D02*
X355430D01*
X344203D02*
X345017D01*
X365053Y296792D02*
X365875D01*
X354615D02*
X355430D01*
X344203D02*
X345017D01*
X365053Y296692D02*
X365875D01*
X354615D02*
X355430D01*
X344203D02*
X345017D01*
X365053Y296592D02*
X365875D01*
X354615D02*
X355430D01*
X344203D02*
X345017D01*
X365053Y296492D02*
X365875D01*
X354615D02*
X355430D01*
X344203D02*
X345017D01*
X365053Y296392D02*
X365876D01*
X354615D02*
X355430D01*
X344203D02*
X345017D01*
X365053Y296292D02*
X365875D01*
X354615D02*
X355430D01*
X344203D02*
X345017D01*
X365053Y296192D02*
X365875D01*
X354615D02*
X355430D01*
X344203D02*
X345017D01*
X365053Y296092D02*
X365874D01*
X354615D02*
X355430D01*
X344203D02*
X345017D01*
X365053Y295992D02*
X365874D01*
X354615D02*
X355430D01*
X344203D02*
X345017D01*
X365053Y295892D02*
X365873D01*
X354615D02*
X355430D01*
X344203D02*
X345017D01*
X365053Y295792D02*
X365873D01*
X354615D02*
X355430D01*
X344203D02*
X345017D01*
X365053Y295692D02*
X365872D01*
X354615D02*
X355430D01*
X344203D02*
X345017D01*
X365053Y295592D02*
X365872D01*
X354615D02*
X355430D01*
X344203D02*
X345017D01*
X365053Y295492D02*
X365871D01*
X354615D02*
X355430D01*
X344203D02*
X345017D01*
X365053Y295392D02*
X365871D01*
X354615D02*
X355430D01*
X344203D02*
X345017D01*
X365053Y295292D02*
X365870D01*
X354615D02*
X355430D01*
X344203D02*
X345017D01*
X365053Y295192D02*
X365870D01*
X354615D02*
X355430D01*
X344203D02*
X345017D01*
X365053Y295092D02*
X365869D01*
X354615D02*
X355430D01*
X344203D02*
X345017D01*
X365053Y294992D02*
X365869D01*
X354615D02*
X355430D01*
X344203D02*
X345017D01*
X365053Y294892D02*
X365868D01*
X354615D02*
X355430D01*
X344203D02*
X345017D01*
X365001Y294792D02*
X365884D01*
X354563D02*
X355446D01*
X344151D02*
X345033D01*
X364624Y294692D02*
X366258D01*
X354186D02*
X355819D01*
X343774D02*
X345406D01*
X364383Y294592D02*
X366498D01*
X353945D02*
X356060D01*
X343533D02*
X345647D01*
X364196Y294492D02*
X366685D01*
X353757D02*
X356246D01*
X343345D02*
X345833D01*
X364041Y294392D02*
X366840D01*
X353602D02*
X356402D01*
X343190D02*
X345989D01*
X363907Y294292D02*
X366973D01*
X353469D02*
X356535D01*
X343057D02*
X346122D01*
X363791Y294192D02*
X367089D01*
X353353D02*
X356651D01*
X342941D02*
X346238D01*
X363687Y294092D02*
X367193D01*
X353249D02*
X356754D01*
X342837D02*
X346341D01*
X363595Y293992D02*
X367285D01*
X353157D02*
X356846D01*
X342745D02*
X346433D01*
X363513Y293892D02*
X367367D01*
X353074D02*
X356929D01*
X342662D02*
X346516D01*
X363438Y293792D02*
X367441D01*
X353000D02*
X357003D01*
X342588D02*
X346590D01*
X363372Y293692D02*
X367508D01*
X352933D02*
X357069D01*
X342522D02*
X346657D01*
X363311Y293592D02*
X367568D01*
X352873D02*
X357130D01*
X342461D02*
X346717D01*
X363258Y293492D02*
X367622D01*
X352820D02*
X357183D01*
X342408D02*
X346770D01*
X363210Y293392D02*
X367669D01*
X352772D02*
X357231D01*
X342360D02*
X346818D01*
X363167Y293292D02*
X367712D01*
X352729D02*
X357274D01*
X342318D02*
X346861D01*
X363130Y293192D02*
X367749D01*
X352692D02*
X357311D01*
X342280D02*
X346898D01*
X363098Y293092D02*
X367781D01*
X352659D02*
X357343D01*
X342248D02*
X346930D01*
X363070Y292992D02*
X367809D01*
X352632D02*
X357370D01*
X342220D02*
X346958D01*
X363047Y292892D02*
X367832D01*
X352609D02*
X357394D01*
X342197D02*
X346981D01*
X363028Y292792D02*
X367851D01*
X352590D02*
X357412D01*
X342179D02*
X347000D01*
X363014Y292692D02*
X367865D01*
X352576D02*
X357427D01*
X342164D02*
X347014D01*
X363004Y292592D02*
X367876D01*
X352565D02*
X357437D01*
X342154D02*
X347024D01*
X362998Y292492D02*
X367882D01*
X352559D02*
X357443D01*
X342148D02*
X347031D01*
X362995Y292392D02*
X367884D01*
X352557D02*
X357445D01*
X342146D02*
X347033D01*
X362997Y292292D02*
X367882D01*
X352559D02*
X357443D01*
X342148D02*
X347031D01*
X363003Y292192D02*
X367876D01*
X352565D02*
X357437D01*
X342154D02*
X347025D01*
X363013Y292092D02*
X367866D01*
X352575D02*
X357427D01*
X342164D02*
X347015D01*
X363028Y291992D02*
X367852D01*
X352590D02*
X357413D01*
X342178D02*
X347000D01*
X363046Y291892D02*
X367833D01*
X352608D02*
X357394D01*
X342196D02*
X346982D01*
X363069Y291792D02*
X367810D01*
X352631D02*
X357372D01*
X342219D02*
X346959D01*
X363097Y291692D02*
X367783D01*
X352659D02*
X357344D01*
X342247D02*
X346931D01*
X363129Y291592D02*
X367750D01*
X352691D02*
X357312D01*
X342279D02*
X346899D01*
X363166Y291492D02*
X367714D01*
X352728D02*
X357275D01*
X342316D02*
X346863D01*
X363208Y291392D02*
X367671D01*
X352770D02*
X357233D01*
X342358D02*
X346820D01*
X363256Y291292D02*
X367624D01*
X352817D02*
X357185D01*
X342406D02*
X346772D01*
X363309Y291192D02*
X367570D01*
X352871D02*
X357132D01*
X342459D02*
X346719D01*
X363368Y291092D02*
X367511D01*
X352930D02*
X357072D01*
X342518D02*
X346660D01*
X363435Y290992D02*
X367444D01*
X352997D02*
X357006D01*
X342585D02*
X346593D01*
X363509Y290892D02*
X367371D01*
X353070D02*
X356932D01*
X342658D02*
X346520D01*
X363590Y290792D02*
X367289D01*
X353152D02*
X356850D01*
X342740D02*
X346438D01*
X363682Y290692D02*
X367198D01*
X353243D02*
X356759D01*
X342831D02*
X346346D01*
X363785Y290592D02*
X367095D01*
X353346D02*
X356656D01*
X342934D02*
X346244D01*
X363900Y290492D02*
X366980D01*
X353462D02*
X356541D01*
X343050D02*
X346128D01*
X364032Y290392D02*
X366848D01*
X353594D02*
X356409D01*
X343181D02*
X345996D01*
X364186Y290292D02*
X366694D01*
X353747D02*
X356255D01*
X343335D02*
X345843D01*
X364370Y290192D02*
X366510D01*
X353931D02*
X356071D01*
X343519D02*
X345659D01*
X364606Y290092D02*
X366274D01*
X354168D02*
X355835D01*
X343755D02*
X345422D01*
X364966Y289992D02*
X365914D01*
X354527D02*
X355475D01*
X344114D02*
X345063D01*
M02*
