G04 Layer_Color=255*
%FSLAX25Y25*%
%MOIN*%
G70*
G01*
G75*
%ADD10C,0.01000*%
%ADD12R,0.05906X0.05906*%
%ADD13C,0.05906*%
%ADD14O,0.07874X0.03937*%
%ADD15O,0.07874X0.03937*%
%ADD16C,0.05906*%
%ADD17R,0.05906X0.05906*%
%ADD18C,0.06500*%
%ADD19R,0.06500X0.06500*%
%ADD20C,0.14000*%
%ADD21C,0.05315*%
%ADD22C,0.05512*%
%ADD23C,0.06496*%
D10*
X420000Y100000D02*
Y320000D01*
X100000Y100000D02*
X420000D01*
X100000D02*
Y320000D01*
X420000D01*
D12*
X215000Y265000D02*
D03*
X109500Y280000D02*
D03*
X403500Y155500D02*
D03*
Y249000D02*
D03*
X112000Y200000D02*
D03*
D13*
X215000Y255000D02*
D03*
X119500Y280000D02*
D03*
X109500Y270000D02*
D03*
X119500D02*
D03*
X109500Y260000D02*
D03*
X119500D02*
D03*
X141500Y299000D02*
D03*
X151500D02*
D03*
X161500D02*
D03*
X171500D02*
D03*
X181500D02*
D03*
X282500Y123500D02*
D03*
X272500Y113500D02*
D03*
Y123500D02*
D03*
X262500Y113500D02*
D03*
Y123500D02*
D03*
X252500Y113500D02*
D03*
Y123500D02*
D03*
X242500Y113500D02*
D03*
Y123500D02*
D03*
X232500Y113500D02*
D03*
Y123500D02*
D03*
X222500Y113500D02*
D03*
Y123500D02*
D03*
X362500Y129500D02*
D03*
X352500D02*
D03*
X342500D02*
D03*
X332500D02*
D03*
X144500Y128000D02*
D03*
X154500Y118000D02*
D03*
Y128000D02*
D03*
X164500Y118000D02*
D03*
Y128000D02*
D03*
X174500Y118000D02*
D03*
Y128000D02*
D03*
X184500Y118000D02*
D03*
Y128000D02*
D03*
X403500Y185500D02*
D03*
Y175500D02*
D03*
Y165500D02*
D03*
Y279000D02*
D03*
Y269000D02*
D03*
Y259000D02*
D03*
X112000Y210000D02*
D03*
D14*
X241500Y192500D02*
D03*
Y202500D02*
D03*
Y232000D02*
D03*
Y242000D02*
D03*
Y271500D02*
D03*
Y281500D02*
D03*
D15*
Y197500D02*
D03*
Y237000D02*
D03*
Y276500D02*
D03*
D16*
X198500Y157500D02*
D03*
Y167500D02*
D03*
Y177500D02*
D03*
Y187500D02*
D03*
Y197500D02*
D03*
Y207500D02*
D03*
Y217500D02*
D03*
Y227500D02*
D03*
Y237500D02*
D03*
Y247500D02*
D03*
Y257500D02*
D03*
Y267500D02*
D03*
X138500D02*
D03*
Y257500D02*
D03*
Y247500D02*
D03*
Y237500D02*
D03*
Y227500D02*
D03*
Y217500D02*
D03*
Y207500D02*
D03*
Y197500D02*
D03*
Y187500D02*
D03*
Y177500D02*
D03*
Y167500D02*
D03*
Y157500D02*
D03*
D17*
X191500Y299000D02*
D03*
X282500Y113500D02*
D03*
X322500Y129500D02*
D03*
X144500Y118000D02*
D03*
D18*
X296000Y214500D02*
D03*
Y234500D02*
D03*
Y244500D02*
D03*
Y254500D02*
D03*
Y264500D02*
D03*
Y274500D02*
D03*
Y224500D02*
D03*
X386000D02*
D03*
Y274500D02*
D03*
Y264500D02*
D03*
Y254500D02*
D03*
Y244500D02*
D03*
Y234500D02*
D03*
Y214500D02*
D03*
D19*
X296000Y284500D02*
D03*
X386000D02*
D03*
D20*
X410000Y310000D02*
D03*
Y110000D02*
D03*
X110000D02*
D03*
Y310000D02*
D03*
D21*
X257500Y184205D02*
D03*
Y209795D02*
D03*
X270000Y209795D02*
D03*
Y184205D02*
D03*
X257500Y223705D02*
D03*
Y249295D02*
D03*
X269500Y249295D02*
D03*
Y223705D02*
D03*
X257500Y263705D02*
D03*
Y289295D02*
D03*
X269500Y289295D02*
D03*
Y263705D02*
D03*
X245205Y170500D02*
D03*
X270795D02*
D03*
X245205Y160000D02*
D03*
X270795D02*
D03*
X112000Y143205D02*
D03*
Y168795D02*
D03*
X125000Y143205D02*
D03*
Y168795D02*
D03*
D22*
X247000Y299000D02*
D03*
X207000D02*
D03*
D23*
X112000Y233500D02*
D03*
Y223500D02*
D03*
M02*
