G04 Layer_Color=8388736*
%FSLAX25Y25*%
%MOIN*%
G70*
G01*
G75*
%ADD10C,0.01000*%
%ADD32R,0.06706X0.06706*%
%ADD33C,0.06706*%
%ADD34O,0.08674X0.04737*%
%ADD35O,0.08674X0.04737*%
%ADD36C,0.06706*%
%ADD37R,0.06706X0.06706*%
%ADD38C,0.07300*%
%ADD39R,0.07300X0.07300*%
%ADD40C,0.14800*%
%ADD41C,0.06115*%
%ADD42C,0.06312*%
%ADD43C,0.07296*%
%ADD44C,0.05800*%
D10*
X420000Y100000D02*
Y320000D01*
X100000Y100000D02*
X420000D01*
X100000D02*
Y320000D01*
X420000D01*
D32*
X215000Y265000D02*
D03*
X109500Y280000D02*
D03*
X403500Y155500D02*
D03*
Y249000D02*
D03*
X112000Y200000D02*
D03*
D33*
X215000Y255000D02*
D03*
X119500Y280000D02*
D03*
X109500Y270000D02*
D03*
X119500D02*
D03*
X109500Y260000D02*
D03*
X119500D02*
D03*
X141500Y299000D02*
D03*
X151500D02*
D03*
X161500D02*
D03*
X171500D02*
D03*
X181500D02*
D03*
X282500Y123500D02*
D03*
X272500Y113500D02*
D03*
Y123500D02*
D03*
X262500Y113500D02*
D03*
Y123500D02*
D03*
X252500Y113500D02*
D03*
Y123500D02*
D03*
X242500Y113500D02*
D03*
Y123500D02*
D03*
X232500Y113500D02*
D03*
Y123500D02*
D03*
X222500Y113500D02*
D03*
Y123500D02*
D03*
X362500Y129500D02*
D03*
X352500D02*
D03*
X342500D02*
D03*
X332500D02*
D03*
X144500Y128000D02*
D03*
X154500Y118000D02*
D03*
Y128000D02*
D03*
X164500Y118000D02*
D03*
Y128000D02*
D03*
X174500Y118000D02*
D03*
Y128000D02*
D03*
X184500Y118000D02*
D03*
Y128000D02*
D03*
X403500Y185500D02*
D03*
Y175500D02*
D03*
Y165500D02*
D03*
Y279000D02*
D03*
Y269000D02*
D03*
Y259000D02*
D03*
X112000Y210000D02*
D03*
D34*
X241500Y192500D02*
D03*
Y202500D02*
D03*
Y232000D02*
D03*
Y242000D02*
D03*
Y271500D02*
D03*
Y281500D02*
D03*
D35*
Y197500D02*
D03*
Y237000D02*
D03*
Y276500D02*
D03*
D36*
X198500Y157500D02*
D03*
Y167500D02*
D03*
Y177500D02*
D03*
Y187500D02*
D03*
Y197500D02*
D03*
Y207500D02*
D03*
Y217500D02*
D03*
Y227500D02*
D03*
Y237500D02*
D03*
Y247500D02*
D03*
Y257500D02*
D03*
Y267500D02*
D03*
X138500D02*
D03*
Y257500D02*
D03*
Y247500D02*
D03*
Y237500D02*
D03*
Y227500D02*
D03*
Y217500D02*
D03*
Y207500D02*
D03*
Y197500D02*
D03*
Y187500D02*
D03*
Y177500D02*
D03*
Y167500D02*
D03*
Y157500D02*
D03*
D37*
X191500Y299000D02*
D03*
X282500Y113500D02*
D03*
X322500Y129500D02*
D03*
X144500Y118000D02*
D03*
D38*
X296000Y214500D02*
D03*
Y234500D02*
D03*
Y244500D02*
D03*
Y254500D02*
D03*
Y264500D02*
D03*
Y274500D02*
D03*
Y224500D02*
D03*
X386000D02*
D03*
Y274500D02*
D03*
Y264500D02*
D03*
Y254500D02*
D03*
Y244500D02*
D03*
Y234500D02*
D03*
Y214500D02*
D03*
D39*
X296000Y284500D02*
D03*
X386000D02*
D03*
D40*
X410000Y310000D02*
D03*
Y110000D02*
D03*
X110000D02*
D03*
Y310000D02*
D03*
D41*
X257500Y184205D02*
D03*
Y209795D02*
D03*
X270000Y209795D02*
D03*
Y184205D02*
D03*
X257500Y223705D02*
D03*
Y249295D02*
D03*
X269500Y249295D02*
D03*
Y223705D02*
D03*
X257500Y263705D02*
D03*
Y289295D02*
D03*
X269500Y289295D02*
D03*
Y263705D02*
D03*
X245205Y170500D02*
D03*
X270795D02*
D03*
X245205Y160000D02*
D03*
X270795D02*
D03*
X112000Y143205D02*
D03*
Y168795D02*
D03*
X125000Y143205D02*
D03*
Y168795D02*
D03*
D42*
X247000Y299000D02*
D03*
X207000D02*
D03*
D43*
X112000Y233500D02*
D03*
Y223500D02*
D03*
D44*
X241500Y257500D02*
D03*
X131000Y200000D02*
D03*
X209000Y207500D02*
D03*
X209500Y116000D02*
D03*
X291000Y180000D02*
D03*
X252500Y140500D02*
D03*
X262500Y145000D02*
D03*
X257500Y135000D02*
D03*
X217000Y145000D02*
D03*
X212000Y140500D02*
D03*
X207000Y135000D02*
D03*
X212000Y182000D02*
D03*
X163500Y161500D02*
D03*
X214500Y192500D02*
D03*
X218000Y212500D02*
D03*
X262500Y201500D02*
D03*
X223500Y227500D02*
D03*
X236000Y177000D02*
D03*
X359500Y229500D02*
D03*
X257500Y237000D02*
D03*
X352500Y249500D02*
D03*
X257500Y279000D02*
D03*
X391000Y160500D02*
D03*
X380000Y146500D02*
D03*
X410500Y214500D02*
D03*
X334500Y224500D02*
D03*
X224000Y163000D02*
D03*
X174500Y157000D02*
D03*
X113000Y179500D02*
D03*
Y187500D02*
D03*
X130000Y176500D02*
D03*
Y252000D02*
D03*
X147000Y262000D02*
D03*
X257500Y165000D02*
D03*
X184500Y249500D02*
D03*
X108000Y134000D02*
D03*
X136000Y139000D02*
D03*
X332500Y153500D02*
D03*
X150500Y232500D02*
D03*
X184500Y283000D02*
D03*
X122500Y292000D02*
D03*
X184500Y257500D02*
D03*
X152000Y150500D02*
D03*
X153000Y144000D02*
D03*
M02*
