G04 Layer_Physical_Order=1*
G04 Layer_Color=255*
%FSLAX25Y25*%
%MOIN*%
G70*
G01*
G75*
%ADD10C,0.01000*%
%ADD11C,0.02500*%
%ADD12R,0.05906X0.05906*%
%ADD13C,0.05906*%
%ADD14O,0.07874X0.03937*%
%ADD15O,0.07874X0.03937*%
%ADD16C,0.05906*%
%ADD17R,0.05906X0.05906*%
%ADD18C,0.06500*%
%ADD19R,0.06500X0.06500*%
%ADD20C,0.14000*%
%ADD21C,0.05315*%
%ADD22C,0.05512*%
%ADD23C,0.06496*%
%ADD24C,0.05000*%
G36*
X257475Y162500D02*
X257136Y162497D01*
X256523Y162449D01*
X256249Y162405D01*
X255996Y162347D01*
X255766Y162276D01*
X255557Y162191D01*
X255370Y162092D01*
X255205Y161980D01*
X255061Y161854D01*
X254354Y162561D01*
X254480Y162705D01*
X254592Y162870D01*
X254691Y163057D01*
X254776Y163266D01*
X254847Y163496D01*
X254905Y163749D01*
X254949Y164023D01*
X254980Y164318D01*
X255000Y164975D01*
X257475Y162500D01*
D02*
G37*
G36*
X222215Y161250D02*
X221972Y161487D01*
X221505Y161888D01*
X221280Y162050D01*
X221061Y162188D01*
X220847Y162300D01*
X220640Y162388D01*
X220438Y162450D01*
X220241Y162487D01*
X220051Y162500D01*
Y163500D01*
X220241Y163513D01*
X220438Y163550D01*
X220640Y163612D01*
X220847Y163700D01*
X221061Y163812D01*
X221280Y163950D01*
X221505Y164112D01*
X221736Y164300D01*
X222215Y164750D01*
Y161250D01*
D02*
G37*
G36*
X248531Y162619D02*
X248401Y162470D01*
X248284Y162295D01*
X248182Y162097D01*
X248094Y161874D01*
X248020Y161627D01*
X247960Y161356D01*
X247914Y161060D01*
X247883Y160740D01*
X247862Y160027D01*
X245231Y162657D01*
X245600Y162661D01*
X246265Y162710D01*
X246560Y162755D01*
X246832Y162815D01*
X247079Y162889D01*
X247302Y162977D01*
X247500Y163080D01*
X247674Y163196D01*
X247824Y163327D01*
X248531Y162619D01*
D02*
G37*
G36*
X401391Y163433D02*
X401089Y163731D01*
X400515Y164232D01*
X400242Y164436D01*
X399980Y164608D01*
X399728Y164749D01*
X399485Y164859D01*
X399253Y164937D01*
X399031Y164984D01*
X398818Y165000D01*
Y166000D01*
X399031Y166016D01*
X399253Y166063D01*
X399485Y166141D01*
X399728Y166251D01*
X399980Y166392D01*
X400242Y166564D01*
X400515Y166768D01*
X401089Y167269D01*
X401391Y167567D01*
Y163433D01*
D02*
G37*
G36*
X245718Y174506D02*
X245759Y174301D01*
X245827Y174088D01*
X245922Y173868D01*
X246045Y173641D01*
X246194Y173407D01*
X246371Y173165D01*
X246575Y172917D01*
X247065Y172398D01*
X243344D01*
X243603Y172661D01*
X244038Y173165D01*
X244215Y173407D01*
X244365Y173641D01*
X244487Y173868D01*
X244582Y174088D01*
X244650Y174301D01*
X244691Y174506D01*
X244705Y174705D01*
X245705D01*
X245718Y174506D01*
D02*
G37*
G36*
X196391Y165433D02*
X196089Y165731D01*
X195515Y166232D01*
X195242Y166436D01*
X194980Y166608D01*
X194728Y166749D01*
X194485Y166859D01*
X194253Y166937D01*
X194031Y166984D01*
X193818Y167000D01*
Y168000D01*
X194031Y168016D01*
X194253Y168063D01*
X194485Y168141D01*
X194728Y168251D01*
X194980Y168392D01*
X195242Y168564D01*
X195515Y168768D01*
X196089Y169269D01*
X196391Y169567D01*
Y165433D01*
D02*
G37*
G36*
X140911Y169269D02*
X141485Y168768D01*
X141758Y168564D01*
X142020Y168392D01*
X142272Y168251D01*
X142515Y168141D01*
X142747Y168063D01*
X142969Y168016D01*
X143182Y168000D01*
Y167000D01*
X142969Y166984D01*
X142747Y166937D01*
X142515Y166859D01*
X142272Y166749D01*
X142020Y166608D01*
X141758Y166436D01*
X141485Y166232D01*
X140911Y165731D01*
X140609Y165433D01*
Y169567D01*
X140911Y169269D01*
D02*
G37*
G36*
X196391Y155433D02*
X196089Y155731D01*
X195515Y156232D01*
X195242Y156436D01*
X194980Y156608D01*
X194728Y156749D01*
X194485Y156859D01*
X194253Y156937D01*
X194031Y156984D01*
X193818Y157000D01*
Y158000D01*
X194031Y158016D01*
X194253Y158063D01*
X194485Y158141D01*
X194728Y158251D01*
X194980Y158392D01*
X195242Y158564D01*
X195515Y158768D01*
X196089Y159269D01*
X196391Y159567D01*
Y155433D01*
D02*
G37*
G36*
X176528Y158512D02*
X176995Y158113D01*
X177220Y157950D01*
X177439Y157812D01*
X177653Y157700D01*
X177860Y157613D01*
X178062Y157550D01*
X178259Y157512D01*
X178449Y157500D01*
Y156500D01*
X178259Y156488D01*
X178062Y156450D01*
X177860Y156387D01*
X177653Y156300D01*
X177439Y156187D01*
X177220Y156050D01*
X176995Y155887D01*
X176764Y155700D01*
X176285Y155250D01*
Y158750D01*
X176528Y158512D01*
D02*
G37*
G36*
X172715Y155250D02*
X172473Y155488D01*
X172005Y155887D01*
X171780Y156050D01*
X171561Y156187D01*
X171347Y156300D01*
X171140Y156387D01*
X170938Y156450D01*
X170741Y156488D01*
X170551Y156500D01*
Y157500D01*
X170741Y157512D01*
X170938Y157550D01*
X171140Y157613D01*
X171347Y157700D01*
X171561Y157812D01*
X171780Y157950D01*
X172005Y158113D01*
X172236Y158300D01*
X172715Y158750D01*
Y155250D01*
D02*
G37*
G36*
X200911Y159269D02*
X201485Y158768D01*
X201758Y158564D01*
X202020Y158392D01*
X202272Y158251D01*
X202515Y158141D01*
X202747Y158063D01*
X202969Y158016D01*
X203182Y158000D01*
Y157000D01*
X202969Y156984D01*
X202747Y156937D01*
X202515Y156859D01*
X202272Y156749D01*
X202020Y156608D01*
X201758Y156436D01*
X201485Y156232D01*
X200911Y155731D01*
X200609Y155433D01*
Y159567D01*
X200911Y159269D01*
D02*
G37*
G36*
X165776Y162600D02*
X165956Y162369D01*
X166139Y162165D01*
X166325Y161989D01*
X166513Y161839D01*
X166705Y161717D01*
X166899Y161622D01*
X167097Y161554D01*
X167297Y161514D01*
X167500Y161500D01*
X167291Y160500D01*
X167122Y160489D01*
X166938Y160457D01*
X166738Y160404D01*
X166522Y160328D01*
X166291Y160232D01*
X165781Y159975D01*
X165503Y159814D01*
X164899Y159428D01*
X165599Y162858D01*
X165776Y162600D01*
D02*
G37*
G36*
X389215Y158750D02*
X388972Y158987D01*
X388505Y159388D01*
X388280Y159550D01*
X388061Y159687D01*
X387847Y159800D01*
X387640Y159888D01*
X387438Y159950D01*
X387241Y159987D01*
X387051Y160000D01*
Y161000D01*
X387241Y161012D01*
X387438Y161050D01*
X387640Y161112D01*
X387847Y161200D01*
X388061Y161312D01*
X388280Y161450D01*
X388505Y161612D01*
X388736Y161800D01*
X389215Y162250D01*
Y158750D01*
D02*
G37*
G36*
X243254Y158195D02*
X243014Y158443D01*
X242544Y158861D01*
X242314Y159030D01*
X242087Y159174D01*
X241863Y159291D01*
X241642Y159382D01*
X241425Y159448D01*
X241211Y159487D01*
X241000Y159500D01*
Y160500D01*
X241211Y160513D01*
X241425Y160552D01*
X241642Y160617D01*
X241863Y160709D01*
X242087Y160826D01*
X242314Y160970D01*
X242544Y161140D01*
X242778Y161335D01*
X243014Y161557D01*
X243254Y161805D01*
Y158195D01*
D02*
G37*
G36*
X140911Y189269D02*
X141485Y188768D01*
X141758Y188564D01*
X142020Y188392D01*
X142272Y188251D01*
X142515Y188141D01*
X142747Y188063D01*
X142969Y188016D01*
X143182Y188000D01*
Y187000D01*
X142969Y186984D01*
X142747Y186937D01*
X142515Y186859D01*
X142272Y186749D01*
X142020Y186608D01*
X141758Y186436D01*
X141485Y186232D01*
X140911Y185731D01*
X140609Y185433D01*
Y189567D01*
X140911Y189269D01*
D02*
G37*
G36*
X268050Y182400D02*
X267810Y182648D01*
X267339Y183065D01*
X267109Y183235D01*
X266882Y183378D01*
X266658Y183496D01*
X266438Y183587D01*
X266220Y183652D01*
X266006Y183692D01*
X265795Y183705D01*
Y184705D01*
X266006Y184718D01*
X266220Y184757D01*
X266438Y184822D01*
X266658Y184914D01*
X266882Y185031D01*
X267109Y185175D01*
X267339Y185344D01*
X267573Y185540D01*
X267810Y185762D01*
X268050Y186010D01*
Y182400D01*
D02*
G37*
G36*
X210215Y180250D02*
X209973Y180488D01*
X209505Y180887D01*
X209280Y181050D01*
X209061Y181187D01*
X208847Y181300D01*
X208640Y181387D01*
X208437Y181450D01*
X208241Y181488D01*
X208050Y181500D01*
Y182500D01*
X208241Y182512D01*
X208437Y182550D01*
X208640Y182613D01*
X208847Y182700D01*
X209061Y182812D01*
X209280Y182950D01*
X209505Y183113D01*
X209736Y183300D01*
X210215Y183750D01*
Y180250D01*
D02*
G37*
G36*
X196391Y185433D02*
X196089Y185731D01*
X195515Y186232D01*
X195242Y186436D01*
X194980Y186608D01*
X194728Y186749D01*
X194485Y186859D01*
X194253Y186937D01*
X194031Y186984D01*
X193818Y187000D01*
Y188000D01*
X194031Y188016D01*
X194253Y188063D01*
X194485Y188141D01*
X194728Y188251D01*
X194980Y188392D01*
X195242Y188564D01*
X195515Y188768D01*
X196089Y189269D01*
X196391Y189567D01*
Y185433D01*
D02*
G37*
G36*
X212715Y190750D02*
X212473Y190988D01*
X212005Y191387D01*
X211780Y191550D01*
X211561Y191688D01*
X211347Y191800D01*
X211140Y191887D01*
X210938Y191950D01*
X210741Y191988D01*
X210550Y192000D01*
Y193000D01*
X210741Y193012D01*
X210938Y193050D01*
X211140Y193113D01*
X211347Y193200D01*
X211561Y193313D01*
X211780Y193450D01*
X212005Y193613D01*
X212236Y193800D01*
X212715Y194250D01*
Y190750D01*
D02*
G37*
G36*
X116326Y189619D02*
X116209Y189486D01*
X116099Y189328D01*
X115996Y189145D01*
X115901Y188938D01*
X115813Y188705D01*
X115731Y188448D01*
X115591Y187859D01*
X115531Y187528D01*
X115478Y187171D01*
X113378Y189971D01*
X113696Y189931D01*
X113995Y189909D01*
X114276Y189907D01*
X114538Y189924D01*
X114782Y189961D01*
X115007Y190016D01*
X115214Y190090D01*
X115401Y190184D01*
X115571Y190297D01*
X115722Y190429D01*
X116326Y189619D01*
D02*
G37*
G36*
X273149Y186646D02*
X273008Y186491D01*
X272886Y186326D01*
X272784Y186153D01*
X272701Y185970D01*
X272638Y185778D01*
X272594Y185577D01*
X272570Y185366D01*
X272565Y185147D01*
X272580Y184919D01*
X272614Y184681D01*
X270477Y186819D01*
X270714Y186785D01*
X270942Y186770D01*
X271162Y186775D01*
X271372Y186799D01*
X271573Y186842D01*
X271765Y186906D01*
X271948Y186988D01*
X272122Y187091D01*
X272286Y187212D01*
X272442Y187354D01*
X273149Y186646D01*
D02*
G37*
G36*
X140911Y179269D02*
X141485Y178768D01*
X141758Y178564D01*
X142020Y178392D01*
X142272Y178251D01*
X142515Y178141D01*
X142747Y178063D01*
X142969Y178016D01*
X143182Y178000D01*
Y177000D01*
X142969Y176984D01*
X142747Y176937D01*
X142515Y176859D01*
X142272Y176749D01*
X142020Y176608D01*
X141758Y176436D01*
X141485Y176232D01*
X140911Y175731D01*
X140609Y175433D01*
Y179567D01*
X140911Y179269D01*
D02*
G37*
G36*
X234215Y175250D02*
X233973Y175487D01*
X233505Y175888D01*
X233280Y176050D01*
X233061Y176188D01*
X232847Y176300D01*
X232640Y176388D01*
X232437Y176450D01*
X232241Y176488D01*
X232050Y176500D01*
Y177500D01*
X232241Y177513D01*
X232437Y177550D01*
X232640Y177612D01*
X232847Y177700D01*
X233061Y177813D01*
X233280Y177950D01*
X233505Y178112D01*
X233736Y178300D01*
X234215Y178750D01*
Y175250D01*
D02*
G37*
G36*
X132503Y176136D02*
X132551Y175523D01*
X132595Y175249D01*
X132653Y174996D01*
X132724Y174766D01*
X132809Y174557D01*
X132908Y174370D01*
X133020Y174205D01*
X133146Y174061D01*
X132439Y173354D01*
X132296Y173480D01*
X132130Y173592D01*
X131943Y173691D01*
X131734Y173776D01*
X131504Y173847D01*
X131251Y173905D01*
X130977Y173949D01*
X130682Y173980D01*
X130025Y174000D01*
X132500Y176475D01*
X132503Y176136D01*
D02*
G37*
G36*
X196391Y175433D02*
X196089Y175731D01*
X195515Y176232D01*
X195242Y176436D01*
X194980Y176608D01*
X194728Y176749D01*
X194485Y176859D01*
X194253Y176937D01*
X194031Y176984D01*
X193818Y177000D01*
Y178000D01*
X194031Y178016D01*
X194253Y178063D01*
X194485Y178141D01*
X194728Y178251D01*
X194980Y178392D01*
X195242Y178564D01*
X195515Y178768D01*
X196089Y179269D01*
X196391Y179567D01*
Y175433D01*
D02*
G37*
G36*
X116146Y181939D02*
X116020Y181796D01*
X115908Y181630D01*
X115809Y181443D01*
X115724Y181234D01*
X115653Y181004D01*
X115595Y180751D01*
X115551Y180477D01*
X115520Y180182D01*
X115500Y179525D01*
X113025Y182000D01*
X113364Y182003D01*
X113977Y182051D01*
X114251Y182095D01*
X114504Y182153D01*
X114734Y182224D01*
X114943Y182309D01*
X115130Y182408D01*
X115296Y182520D01*
X115439Y182646D01*
X116146Y181939D01*
D02*
G37*
G36*
X289215Y178250D02*
X288972Y178488D01*
X288505Y178887D01*
X288280Y179050D01*
X288061Y179188D01*
X287847Y179300D01*
X287640Y179387D01*
X287438Y179450D01*
X287241Y179488D01*
X287051Y179500D01*
Y180500D01*
X287241Y180512D01*
X287438Y180550D01*
X287640Y180613D01*
X287847Y180700D01*
X288061Y180813D01*
X288280Y180950D01*
X288505Y181113D01*
X288736Y181300D01*
X289215Y181750D01*
Y178250D01*
D02*
G37*
G36*
X244849Y178573D02*
X244999Y178453D01*
X245155Y178347D01*
X245317Y178255D01*
X245485Y178177D01*
X245659Y178113D01*
X245838Y178064D01*
X246024Y178028D01*
X246215Y178007D01*
X246412Y178000D01*
X246705Y177000D01*
X246515Y176990D01*
X246345Y176960D01*
X246195Y176910D01*
X246065Y176840D01*
X245955Y176750D01*
X245865Y176640D01*
X245795Y176510D01*
X245745Y176360D01*
X245715Y176190D01*
X245705Y176000D01*
X244705Y176293D01*
X244698Y176490D01*
X244676Y176681D01*
X244641Y176866D01*
X244592Y177046D01*
X244528Y177220D01*
X244450Y177387D01*
X244358Y177549D01*
X244252Y177705D01*
X244132Y177856D01*
X243998Y178000D01*
X244705Y178707D01*
X244849Y178573D01*
D02*
G37*
G36*
X186776Y129912D02*
X186958Y129773D01*
X187155Y129650D01*
X187367Y129544D01*
X187594Y129454D01*
X187835Y129381D01*
X188091Y129323D01*
X188361Y129283D01*
X188647Y129258D01*
X188947Y129250D01*
Y126750D01*
X188647Y126742D01*
X188361Y126717D01*
X188091Y126676D01*
X187835Y126619D01*
X187594Y126546D01*
X187367Y126456D01*
X187155Y126350D01*
X186958Y126227D01*
X186776Y126088D01*
X186609Y125933D01*
Y130067D01*
X186776Y129912D01*
D02*
G37*
G36*
X353794Y126846D02*
X351011Y125304D01*
X349908Y125616D01*
X350068Y125799D01*
X350192Y125996D01*
X350281Y126207D01*
X350335Y126431D01*
X350354Y126669D01*
X350338Y126920D01*
X350287Y127185D01*
X350200Y127463D01*
X350079Y127755D01*
X349922Y128060D01*
X353794Y126846D01*
D02*
G37*
G36*
X364269Y127089D02*
X363768Y126515D01*
X363564Y126242D01*
X363392Y125980D01*
X363251Y125728D01*
X363141Y125485D01*
X363063Y125253D01*
X363016Y125031D01*
X363000Y124818D01*
X362000D01*
X361984Y125031D01*
X361937Y125253D01*
X361859Y125485D01*
X361749Y125728D01*
X361608Y125980D01*
X361436Y126242D01*
X361232Y126515D01*
X360731Y127089D01*
X360433Y127391D01*
X364567D01*
X364269Y127089D01*
D02*
G37*
G36*
X319571Y127000D02*
X319546Y127237D01*
X319471Y127450D01*
X319345Y127638D01*
X319169Y127800D01*
X318943Y127937D01*
X318667Y128050D01*
X318340Y128138D01*
X317964Y128200D01*
X317536Y128237D01*
X317059Y128250D01*
Y130750D01*
X317536Y130763D01*
X317964Y130800D01*
X318340Y130862D01*
X318667Y130950D01*
X318943Y131062D01*
X319169Y131200D01*
X319345Y131362D01*
X319471Y131550D01*
X319546Y131763D01*
X319571Y132000D01*
Y127000D01*
D02*
G37*
G36*
X110028Y135512D02*
X110495Y135113D01*
X110720Y134950D01*
X110939Y134812D01*
X111153Y134700D01*
X111360Y134613D01*
X111563Y134550D01*
X111759Y134512D01*
X111950Y134500D01*
Y133500D01*
X111759Y133487D01*
X111563Y133450D01*
X111360Y133387D01*
X111153Y133300D01*
X110939Y133187D01*
X110720Y133050D01*
X110495Y132887D01*
X110264Y132700D01*
X109785Y132250D01*
Y135750D01*
X110028Y135512D01*
D02*
G37*
G36*
X161704Y131525D02*
X161895Y131401D01*
X162115Y131292D01*
X162364Y131198D01*
X162642Y131120D01*
X162949Y131056D01*
X163286Y131007D01*
X164046Y130956D01*
X164471Y130953D01*
X161547Y128030D01*
X161544Y128454D01*
X161493Y129215D01*
X161444Y129551D01*
X161381Y129858D01*
X161302Y130137D01*
X161208Y130385D01*
X161099Y130605D01*
X160975Y130796D01*
X160836Y130957D01*
X161543Y131664D01*
X161704Y131525D01*
D02*
G37*
G36*
X151704D02*
X151895Y131401D01*
X152114Y131292D01*
X152364Y131198D01*
X152642Y131120D01*
X152949Y131056D01*
X153286Y131007D01*
X154046Y130956D01*
X154471Y130953D01*
X151547Y128030D01*
X151544Y128454D01*
X151493Y129215D01*
X151444Y129551D01*
X151381Y129858D01*
X151302Y130137D01*
X151208Y130385D01*
X151099Y130605D01*
X150975Y130796D01*
X150836Y130957D01*
X151543Y131664D01*
X151704Y131525D01*
D02*
G37*
G36*
X147384Y116396D02*
X147356Y116304D01*
Y116198D01*
X147384Y116077D01*
X147441Y115943D01*
X147526Y115795D01*
X147639Y115632D01*
X147780Y115455D01*
X148148Y115059D01*
X147441Y114352D01*
X147236Y114550D01*
X146868Y114861D01*
X146705Y114974D01*
X146557Y115059D01*
X146423Y115116D01*
X146302Y115144D01*
X146196D01*
X146104Y115116D01*
X146027Y115059D01*
X147441Y116473D01*
X147384Y116396D01*
D02*
G37*
G36*
X157456Y117546D02*
X157507Y116786D01*
X157556Y116449D01*
X157620Y116142D01*
X157698Y115864D01*
X157792Y115614D01*
X157901Y115395D01*
X158025Y115204D01*
X158164Y115043D01*
X157457Y114336D01*
X157296Y114475D01*
X157105Y114599D01*
X156886Y114708D01*
X156637Y114802D01*
X156358Y114881D01*
X156051Y114944D01*
X155714Y114993D01*
X154954Y115044D01*
X154530Y115047D01*
X157453Y117971D01*
X157456Y117546D01*
D02*
G37*
G36*
X249704Y117025D02*
X249895Y116901D01*
X250114Y116792D01*
X250363Y116698D01*
X250642Y116620D01*
X250949Y116556D01*
X251286Y116507D01*
X252046Y116456D01*
X252470Y116453D01*
X249547Y113530D01*
X249544Y113954D01*
X249493Y114715D01*
X249444Y115051D01*
X249380Y115358D01*
X249302Y115637D01*
X249208Y115885D01*
X249099Y116105D01*
X248975Y116296D01*
X248836Y116457D01*
X249543Y117164D01*
X249704Y117025D01*
D02*
G37*
G36*
X284180Y121072D02*
X284003Y120934D01*
X283845Y120778D01*
X283706Y120604D01*
X283585Y120411D01*
X283483Y120200D01*
X283399Y119971D01*
X283334Y119724D01*
X283287Y119458D01*
X283259Y119175D01*
X283251Y118904D01*
X283262Y118464D01*
X283300Y118037D01*
X283363Y117661D01*
X283450Y117334D01*
X283562Y117058D01*
X283700Y116832D01*
X283862Y116656D01*
X284050Y116530D01*
X284262Y116454D01*
X284500Y116429D01*
X279559Y116441D01*
X279785Y116466D01*
X279988Y116541D01*
X280167Y116666D01*
X280321Y116841D01*
X280452Y117066D01*
X280559Y117341D01*
X280643Y117666D01*
X280702Y118041D01*
X280738Y118466D01*
X280750Y118941D01*
X282892D01*
X280750Y119350D01*
X280744Y119650D01*
X280692Y120210D01*
X280647Y120472D01*
X280589Y120720D01*
X280518Y120956D01*
X280434Y121179D01*
X280338Y121389D01*
X280228Y121587D01*
X280106Y121772D01*
X284180Y121072D01*
D02*
G37*
G36*
X284776Y125412D02*
X284958Y125273D01*
X285155Y125150D01*
X285367Y125044D01*
X285594Y124954D01*
X285835Y124881D01*
X286091Y124823D01*
X286361Y124783D01*
X286647Y124758D01*
X286947Y124750D01*
Y122250D01*
X286647Y122242D01*
X286361Y122217D01*
X286091Y122177D01*
X285835Y122119D01*
X285594Y122046D01*
X285367Y121956D01*
X285155Y121850D01*
X284958Y121727D01*
X284776Y121588D01*
X284609Y121433D01*
Y125567D01*
X284776Y125412D01*
D02*
G37*
G36*
X220391Y121433D02*
X220224Y121588D01*
X220042Y121727D01*
X219845Y121850D01*
X219633Y121956D01*
X219406Y122046D01*
X219165Y122119D01*
X218909Y122177D01*
X218639Y122217D01*
X218353Y122242D01*
X218053Y122250D01*
Y124750D01*
X218353Y124758D01*
X218639Y124783D01*
X218909Y124823D01*
X219165Y124881D01*
X219406Y124954D01*
X219633Y125044D01*
X219845Y125150D01*
X220042Y125273D01*
X220224Y125412D01*
X220391Y125567D01*
Y121433D01*
D02*
G37*
G36*
X212962Y117755D02*
X212860Y117639D01*
X212757Y117495D01*
X212653Y117322D01*
X212548Y117121D01*
X212337Y116633D01*
X212123Y116032D01*
X211905Y115317D01*
X210231Y118391D01*
X210523Y118311D01*
X210799Y118256D01*
X211061Y118224D01*
X211307Y118217D01*
X211538Y118233D01*
X211754Y118274D01*
X211956Y118338D01*
X212142Y118427D01*
X212313Y118539D01*
X212469Y118676D01*
X212962Y117755D01*
D02*
G37*
G36*
X378215Y144750D02*
X377973Y144987D01*
X377505Y145387D01*
X377280Y145550D01*
X377061Y145687D01*
X376847Y145800D01*
X376640Y145887D01*
X376437Y145950D01*
X376241Y145987D01*
X376050Y146000D01*
Y147000D01*
X376241Y147012D01*
X376437Y147050D01*
X376640Y147113D01*
X376847Y147200D01*
X377061Y147312D01*
X377280Y147450D01*
X377505Y147613D01*
X377736Y147800D01*
X378215Y148250D01*
Y144750D01*
D02*
G37*
G36*
X260715Y143250D02*
X260472Y143488D01*
X260005Y143887D01*
X259780Y144050D01*
X259561Y144187D01*
X259347Y144300D01*
X259140Y144387D01*
X258938Y144450D01*
X258741Y144488D01*
X258551Y144500D01*
Y145500D01*
X258741Y145512D01*
X258938Y145550D01*
X259140Y145613D01*
X259347Y145700D01*
X259561Y145812D01*
X259780Y145950D01*
X260005Y146113D01*
X260236Y146300D01*
X260715Y146750D01*
Y143250D01*
D02*
G37*
G36*
X219027Y146512D02*
X219495Y146113D01*
X219720Y145950D01*
X219939Y145812D01*
X220153Y145700D01*
X220360Y145613D01*
X220563Y145550D01*
X220759Y145512D01*
X220950Y145500D01*
Y144500D01*
X220759Y144488D01*
X220563Y144450D01*
X220360Y144387D01*
X220153Y144300D01*
X219939Y144187D01*
X219720Y144050D01*
X219495Y143887D01*
X219264Y143700D01*
X218785Y143250D01*
Y146750D01*
X219027Y146512D01*
D02*
G37*
G36*
X150215Y148750D02*
X149972Y148987D01*
X149505Y149388D01*
X149280Y149550D01*
X149061Y149688D01*
X148847Y149800D01*
X148640Y149888D01*
X148438Y149950D01*
X148241Y149987D01*
X148050Y150000D01*
Y151000D01*
X148241Y151013D01*
X148438Y151050D01*
X148640Y151112D01*
X148847Y151200D01*
X149061Y151312D01*
X149280Y151450D01*
X149505Y151612D01*
X149736Y151800D01*
X150215Y152250D01*
Y148750D01*
D02*
G37*
G36*
X141160Y158861D02*
X141392Y158575D01*
X141623Y158323D01*
X141853Y158105D01*
X142083Y157920D01*
X142313Y157769D01*
X142542Y157651D01*
X142770Y157567D01*
X142997Y157517D01*
X143224Y157500D01*
X143050Y156500D01*
X142861Y156486D01*
X142652Y156444D01*
X142422Y156375D01*
X142171Y156277D01*
X141899Y156151D01*
X141293Y155817D01*
X140959Y155608D01*
X140228Y155106D01*
X140928Y159180D01*
X141160Y158861D01*
D02*
G37*
G36*
X400571Y153000D02*
X400546Y153237D01*
X400471Y153450D01*
X400345Y153638D01*
X400169Y153800D01*
X399943Y153937D01*
X399667Y154050D01*
X399340Y154138D01*
X398964Y154200D01*
X398536Y154237D01*
X398059Y154250D01*
Y156750D01*
X398536Y156763D01*
X398964Y156800D01*
X399340Y156862D01*
X399667Y156950D01*
X399943Y157062D01*
X400169Y157200D01*
X400345Y157362D01*
X400471Y157550D01*
X400546Y157763D01*
X400571Y158000D01*
Y153000D01*
D02*
G37*
G36*
X334392Y155155D02*
X334517Y155070D01*
X334660Y154995D01*
X334821Y154930D01*
X335000Y154875D01*
X335197Y154830D01*
X335412Y154795D01*
X335645Y154770D01*
X336165Y154750D01*
Y152250D01*
X335896Y152245D01*
X335412Y152205D01*
X335197Y152170D01*
X335000Y152125D01*
X334821Y152070D01*
X334660Y152005D01*
X334517Y151930D01*
X334392Y151845D01*
X334285Y151750D01*
Y155250D01*
X334392Y155155D01*
D02*
G37*
G36*
X214028Y142013D02*
X214495Y141613D01*
X214720Y141450D01*
X214939Y141313D01*
X215153Y141200D01*
X215360Y141112D01*
X215563Y141050D01*
X215759Y141013D01*
X215950Y141000D01*
Y140000D01*
X215759Y139988D01*
X215563Y139950D01*
X215360Y139887D01*
X215153Y139800D01*
X214939Y139688D01*
X214720Y139550D01*
X214495Y139388D01*
X214264Y139200D01*
X213785Y138750D01*
Y142250D01*
X214028Y142013D01*
D02*
G37*
G36*
X255715Y133250D02*
X255472Y133487D01*
X255005Y133888D01*
X254780Y134050D01*
X254561Y134187D01*
X254347Y134300D01*
X254140Y134388D01*
X253938Y134450D01*
X253741Y134487D01*
X253551Y134500D01*
Y135500D01*
X253741Y135512D01*
X253938Y135550D01*
X254140Y135612D01*
X254347Y135700D01*
X254561Y135812D01*
X254780Y135950D01*
X255005Y136112D01*
X255236Y136300D01*
X255715Y136750D01*
Y133250D01*
D02*
G37*
G36*
X209028Y136512D02*
X209495Y136112D01*
X209720Y135950D01*
X209939Y135812D01*
X210153Y135700D01*
X210360Y135612D01*
X210562Y135550D01*
X210759Y135512D01*
X210949Y135500D01*
Y134500D01*
X210759Y134487D01*
X210562Y134450D01*
X210360Y134388D01*
X210153Y134300D01*
X209939Y134187D01*
X209720Y134050D01*
X209495Y133888D01*
X209264Y133700D01*
X208785Y133250D01*
Y136750D01*
X209028Y136512D01*
D02*
G37*
G36*
X250715Y138750D02*
X250472Y138988D01*
X250005Y139388D01*
X249780Y139550D01*
X249561Y139688D01*
X249347Y139800D01*
X249140Y139887D01*
X248938Y139950D01*
X248741Y139988D01*
X248551Y140000D01*
Y141000D01*
X248741Y141013D01*
X248938Y141050D01*
X249140Y141112D01*
X249347Y141200D01*
X249561Y141313D01*
X249780Y141450D01*
X250005Y141613D01*
X250236Y141800D01*
X250715Y142250D01*
Y138750D01*
D02*
G37*
G36*
X128327Y145824D02*
X128196Y145674D01*
X128080Y145500D01*
X127977Y145302D01*
X127889Y145079D01*
X127815Y144832D01*
X127755Y144560D01*
X127710Y144265D01*
X127678Y143945D01*
X127657Y143231D01*
X125027Y145862D01*
X125395Y145865D01*
X126060Y145914D01*
X126356Y145960D01*
X126627Y146020D01*
X126874Y146094D01*
X127097Y146182D01*
X127295Y146284D01*
X127470Y146401D01*
X127620Y146531D01*
X128327Y145824D01*
D02*
G37*
G36*
X151215Y142250D02*
X150972Y142488D01*
X150505Y142887D01*
X150280Y143050D01*
X150061Y143187D01*
X149847Y143300D01*
X149640Y143387D01*
X149437Y143450D01*
X149241Y143488D01*
X149050Y143500D01*
Y144500D01*
X149241Y144512D01*
X149437Y144550D01*
X149640Y144613D01*
X149847Y144700D01*
X150061Y144813D01*
X150280Y144950D01*
X150505Y145113D01*
X150736Y145300D01*
X151215Y145750D01*
Y142250D01*
D02*
G37*
G36*
X114661Y142809D02*
X114710Y142145D01*
X114755Y141849D01*
X114815Y141578D01*
X114889Y141331D01*
X114977Y141108D01*
X115080Y140909D01*
X115196Y140735D01*
X115327Y140585D01*
X114620Y139878D01*
X114470Y140009D01*
X114295Y140125D01*
X114097Y140227D01*
X113874Y140316D01*
X113627Y140390D01*
X113356Y140449D01*
X113060Y140495D01*
X112740Y140527D01*
X112027Y140547D01*
X114657Y143178D01*
X114661Y142809D01*
D02*
G37*
G36*
X130512Y255759D02*
X130550Y255562D01*
X130613Y255360D01*
X130700Y255153D01*
X130813Y254939D01*
X130950Y254720D01*
X131113Y254495D01*
X131300Y254264D01*
X131750Y253785D01*
X128250D01*
X128488Y254028D01*
X128887Y254495D01*
X129050Y254720D01*
X129188Y254939D01*
X129300Y255153D01*
X129387Y255360D01*
X129450Y255562D01*
X129488Y255759D01*
X129500Y255949D01*
X130500D01*
X130512Y255759D01*
D02*
G37*
G36*
X350715Y247750D02*
X350472Y247988D01*
X350005Y248388D01*
X349780Y248550D01*
X349561Y248688D01*
X349347Y248800D01*
X349140Y248887D01*
X348938Y248950D01*
X348741Y248988D01*
X348551Y249000D01*
Y250000D01*
X348741Y250012D01*
X348938Y250050D01*
X349140Y250113D01*
X349347Y250200D01*
X349561Y250312D01*
X349780Y250450D01*
X350005Y250612D01*
X350236Y250800D01*
X350715Y251250D01*
Y247750D01*
D02*
G37*
G36*
X182715D02*
X182608Y247845D01*
X182483Y247930D01*
X182340Y248005D01*
X182179Y248070D01*
X182000Y248125D01*
X181803Y248170D01*
X181588Y248205D01*
X181355Y248230D01*
X180835Y248250D01*
Y250750D01*
X181104Y250755D01*
X181588Y250795D01*
X181803Y250830D01*
X182000Y250875D01*
X182179Y250930D01*
X182340Y250995D01*
X182483Y251070D01*
X182608Y251155D01*
X182715Y251250D01*
Y247750D01*
D02*
G37*
G36*
X111269Y257589D02*
X110768Y257015D01*
X110564Y256742D01*
X110392Y256480D01*
X110251Y256228D01*
X110141Y255985D01*
X110063Y255753D01*
X110016Y255531D01*
X110000Y255318D01*
X109000D01*
X108984Y255531D01*
X108937Y255753D01*
X108859Y255985D01*
X108749Y256228D01*
X108608Y256480D01*
X108436Y256742D01*
X108232Y257015D01*
X107731Y257589D01*
X107433Y257891D01*
X111567D01*
X111269Y257589D01*
D02*
G37*
G36*
X149028Y263512D02*
X149495Y263112D01*
X149720Y262950D01*
X149939Y262812D01*
X150153Y262700D01*
X150360Y262613D01*
X150563Y262550D01*
X150759Y262512D01*
X150950Y262500D01*
Y261500D01*
X150759Y261488D01*
X150563Y261450D01*
X150360Y261387D01*
X150153Y261300D01*
X149939Y261188D01*
X149720Y261050D01*
X149495Y260888D01*
X149264Y260700D01*
X148785Y260250D01*
Y263750D01*
X149028Y263512D01*
D02*
G37*
G36*
X186392Y259155D02*
X186517Y259070D01*
X186660Y258995D01*
X186821Y258930D01*
X187000Y258875D01*
X187197Y258830D01*
X187412Y258795D01*
X187645Y258770D01*
X188165Y258750D01*
Y256250D01*
X187896Y256245D01*
X187412Y256205D01*
X187197Y256170D01*
X187000Y256125D01*
X186821Y256070D01*
X186660Y256005D01*
X186517Y255930D01*
X186392Y255845D01*
X186285Y255750D01*
Y259250D01*
X186392Y259155D01*
D02*
G37*
G36*
X196391Y255433D02*
X196224Y255588D01*
X196042Y255727D01*
X195845Y255850D01*
X195633Y255956D01*
X195406Y256046D01*
X195165Y256119D01*
X194909Y256176D01*
X194639Y256217D01*
X194353Y256242D01*
X194053Y256250D01*
Y258750D01*
X194353Y258758D01*
X194639Y258783D01*
X194909Y258823D01*
X195165Y258881D01*
X195406Y258954D01*
X195633Y259044D01*
X195845Y259150D01*
X196042Y259273D01*
X196224Y259412D01*
X196391Y259567D01*
Y255433D01*
D02*
G37*
G36*
X255514Y240209D02*
X255672Y240099D01*
X255855Y239996D01*
X256062Y239901D01*
X256295Y239812D01*
X256552Y239731D01*
X257141Y239591D01*
X257472Y239531D01*
X257829Y239478D01*
X255029Y237378D01*
X255069Y237696D01*
X255091Y237995D01*
X255093Y238276D01*
X255076Y238538D01*
X255040Y238782D01*
X254984Y239007D01*
X254910Y239213D01*
X254816Y239402D01*
X254703Y239571D01*
X254571Y239722D01*
X255381Y240326D01*
X255514Y240209D01*
D02*
G37*
G36*
X143182Y238000D02*
X142871Y237991D01*
X142590Y237963D01*
X142340Y237918D01*
X142119Y237854D01*
X141928Y237771D01*
X141767Y237671D01*
X141636Y237552D01*
X141535Y237414D01*
X141464Y237259D01*
X141423Y237085D01*
X139223Y240363D01*
X142650Y240500D01*
X143182Y238000D01*
D02*
G37*
G36*
X383679Y232225D02*
X383337Y232562D01*
X382693Y233130D01*
X382389Y233361D01*
X382099Y233556D01*
X381821Y233716D01*
X381557Y233840D01*
X381305Y233929D01*
X381065Y233982D01*
X380839Y234000D01*
Y235000D01*
X381065Y235018D01*
X381305Y235071D01*
X381557Y235160D01*
X381821Y235284D01*
X382099Y235444D01*
X382389Y235639D01*
X382693Y235870D01*
X383337Y236438D01*
X383679Y236775D01*
Y232225D01*
D02*
G37*
G36*
X245170Y242899D02*
X245206Y242815D01*
X245267Y242741D01*
X245353Y242677D01*
X245462Y242623D01*
X245596Y242579D01*
X245755Y242544D01*
X245937Y242520D01*
X246145Y242505D01*
X246376Y242500D01*
Y241500D01*
X246145Y241495D01*
X245755Y241456D01*
X245596Y241421D01*
X245462Y241377D01*
X245353Y241323D01*
X245267Y241259D01*
X245206Y241185D01*
X245170Y241101D01*
X245158Y241007D01*
Y242993D01*
X245170Y242899D01*
D02*
G37*
G36*
X195704Y251025D02*
X195895Y250901D01*
X196115Y250792D01*
X196363Y250698D01*
X196642Y250620D01*
X196949Y250556D01*
X197285Y250507D01*
X198046Y250456D01*
X198470Y250453D01*
X195547Y247530D01*
X195544Y247954D01*
X195493Y248714D01*
X195444Y249051D01*
X195380Y249358D01*
X195302Y249637D01*
X195208Y249886D01*
X195099Y250105D01*
X194975Y250296D01*
X194836Y250457D01*
X195543Y251164D01*
X195704Y251025D01*
D02*
G37*
G36*
X136391Y245433D02*
X136089Y245731D01*
X135515Y246232D01*
X135242Y246436D01*
X134980Y246608D01*
X134728Y246749D01*
X134485Y246859D01*
X134253Y246937D01*
X134031Y246984D01*
X133818Y247000D01*
Y248000D01*
X134031Y248016D01*
X134253Y248063D01*
X134485Y248141D01*
X134728Y248251D01*
X134980Y248392D01*
X135242Y248564D01*
X135515Y248768D01*
X136089Y249269D01*
X136391Y249567D01*
Y245433D01*
D02*
G37*
G36*
X383679Y242225D02*
X383337Y242562D01*
X382693Y243130D01*
X382389Y243361D01*
X382099Y243556D01*
X381821Y243716D01*
X381557Y243840D01*
X381305Y243929D01*
X381065Y243982D01*
X380839Y244000D01*
Y245000D01*
X381065Y245018D01*
X381305Y245071D01*
X381557Y245160D01*
X381821Y245284D01*
X382099Y245444D01*
X382389Y245639D01*
X382693Y245870D01*
X383337Y246438D01*
X383679Y246775D01*
Y242225D01*
D02*
G37*
G36*
X182986Y286289D02*
X183356Y285975D01*
X183533Y285848D01*
X183704Y285740D01*
X183870Y285653D01*
X184029Y285585D01*
X184184Y285537D01*
X184332Y285508D01*
X184475Y285500D01*
X182000Y283025D01*
X181992Y283168D01*
X181963Y283316D01*
X181915Y283471D01*
X181847Y283630D01*
X181760Y283796D01*
X181652Y283967D01*
X181525Y284144D01*
X181378Y284326D01*
X181025Y284708D01*
X182792Y286475D01*
X182986Y286289D01*
D02*
G37*
G36*
X245170Y282399D02*
X245206Y282315D01*
X245267Y282241D01*
X245353Y282177D01*
X245462Y282123D01*
X245596Y282079D01*
X245755Y282044D01*
X245937Y282020D01*
X246145Y282005D01*
X246376Y282000D01*
Y281000D01*
X246145Y280995D01*
X245755Y280956D01*
X245596Y280921D01*
X245462Y280877D01*
X245353Y280823D01*
X245267Y280759D01*
X245206Y280685D01*
X245170Y280601D01*
X245158Y280507D01*
Y282493D01*
X245170Y282399D01*
D02*
G37*
G36*
X255490Y281727D02*
X255628Y281619D01*
X255768Y281529D01*
X255910Y281457D01*
X256055Y281403D01*
X256201Y281366D01*
X256349Y281348D01*
X256500Y281348D01*
X256652Y281366D01*
X256807Y281402D01*
X255098Y279693D01*
X255134Y279848D01*
X255152Y280000D01*
X255152Y280151D01*
X255134Y280299D01*
X255097Y280445D01*
X255043Y280590D01*
X254971Y280732D01*
X254881Y280872D01*
X254773Y281010D01*
X254646Y281147D01*
X255353Y281854D01*
X255490Y281727D01*
D02*
G37*
G36*
X267030Y292491D02*
X267204Y292375D01*
X267403Y292273D01*
X267626Y292184D01*
X267873Y292110D01*
X268144Y292051D01*
X268440Y292005D01*
X268760Y291973D01*
X269473Y291953D01*
X266843Y289322D01*
X266839Y289691D01*
X266790Y290355D01*
X266745Y290651D01*
X266685Y290922D01*
X266611Y291170D01*
X266523Y291392D01*
X266420Y291591D01*
X266304Y291765D01*
X266173Y291915D01*
X266880Y292622D01*
X267030Y292491D01*
D02*
G37*
G36*
X192005Y302748D02*
X192020Y302576D01*
X192045Y302425D01*
X192080Y302293D01*
X192125Y302182D01*
X192180Y302091D01*
X192245Y302020D01*
X192320Y301969D01*
X192405Y301939D01*
X192500Y301929D01*
X190500D01*
X190595Y301939D01*
X190680Y301969D01*
X190755Y302020D01*
X190820Y302091D01*
X190875Y302182D01*
X190920Y302293D01*
X190955Y302425D01*
X190980Y302576D01*
X190995Y302748D01*
X191000Y302941D01*
X192000D01*
X192005Y302748D01*
D02*
G37*
G36*
X143412Y296724D02*
X143273Y296542D01*
X143150Y296345D01*
X143044Y296133D01*
X142954Y295906D01*
X142881Y295665D01*
X142824Y295409D01*
X142783Y295139D01*
X142758Y294853D01*
X142750Y294553D01*
X140250D01*
X140242Y294853D01*
X140217Y295139D01*
X140176Y295409D01*
X140119Y295665D01*
X140046Y295906D01*
X139956Y296133D01*
X139850Y296345D01*
X139727Y296542D01*
X139588Y296724D01*
X139433Y296891D01*
X143567D01*
X143412Y296724D01*
D02*
G37*
G36*
X123012Y295759D02*
X123050Y295563D01*
X123112Y295360D01*
X123200Y295153D01*
X123312Y294939D01*
X123450Y294720D01*
X123612Y294495D01*
X123800Y294264D01*
X124250Y293785D01*
X120750D01*
X120987Y294027D01*
X121388Y294495D01*
X121550Y294720D01*
X121687Y294939D01*
X121800Y295153D01*
X121888Y295360D01*
X121950Y295563D01*
X121987Y295759D01*
X122000Y295950D01*
X123000D01*
X123012Y295759D01*
D02*
G37*
G36*
X267030Y266901D02*
X267204Y266784D01*
X267403Y266682D01*
X267626Y266594D01*
X267873Y266520D01*
X268144Y266460D01*
X268440Y266414D01*
X268760Y266383D01*
X269473Y266362D01*
X266843Y263731D01*
X266839Y264100D01*
X266790Y264765D01*
X266745Y265060D01*
X266685Y265332D01*
X266611Y265579D01*
X266523Y265802D01*
X266420Y266000D01*
X266304Y266174D01*
X266173Y266324D01*
X266880Y267031D01*
X267030Y266901D01*
D02*
G37*
G36*
X271661Y265306D02*
X272165Y264871D01*
X272407Y264694D01*
X272641Y264545D01*
X272868Y264422D01*
X273088Y264327D01*
X273301Y264259D01*
X273506Y264218D01*
X273705Y264205D01*
Y263205D01*
X273506Y263191D01*
X273301Y263150D01*
X273088Y263082D01*
X272868Y262987D01*
X272641Y262865D01*
X272407Y262715D01*
X272165Y262538D01*
X271917Y262334D01*
X271398Y261844D01*
Y265565D01*
X271661Y265306D01*
D02*
G37*
G36*
X260161Y263309D02*
X260210Y262645D01*
X260255Y262349D01*
X260315Y262078D01*
X260389Y261830D01*
X260477Y261608D01*
X260580Y261409D01*
X260696Y261235D01*
X260827Y261085D01*
X260120Y260378D01*
X259970Y260509D01*
X259795Y260625D01*
X259597Y260727D01*
X259374Y260816D01*
X259127Y260890D01*
X258856Y260949D01*
X258560Y260995D01*
X258240Y261027D01*
X257527Y261047D01*
X260157Y263678D01*
X260161Y263309D01*
D02*
G37*
G36*
X122456Y269546D02*
X122507Y268786D01*
X122556Y268449D01*
X122619Y268142D01*
X122698Y267863D01*
X122792Y267615D01*
X122901Y267395D01*
X123025Y267204D01*
X123164Y267043D01*
X122457Y266336D01*
X122296Y266475D01*
X122105Y266599D01*
X121886Y266708D01*
X121636Y266802D01*
X121358Y266880D01*
X121051Y266944D01*
X120714Y266993D01*
X119954Y267044D01*
X119529Y267047D01*
X122453Y269970D01*
X122456Y269546D01*
D02*
G37*
G36*
X121776Y281912D02*
X121958Y281773D01*
X122155Y281650D01*
X122367Y281544D01*
X122594Y281454D01*
X122835Y281381D01*
X123091Y281324D01*
X123361Y281283D01*
X123647Y281258D01*
X123947Y281250D01*
Y278750D01*
X123647Y278742D01*
X123361Y278717D01*
X123091Y278677D01*
X122835Y278619D01*
X122594Y278546D01*
X122367Y278456D01*
X122155Y278350D01*
X121958Y278227D01*
X121776Y278088D01*
X121609Y277933D01*
Y282067D01*
X121776Y281912D01*
D02*
G37*
G36*
X237842Y275507D02*
X237830Y275601D01*
X237793Y275685D01*
X237733Y275759D01*
X237647Y275823D01*
X237538Y275877D01*
X237404Y275921D01*
X237245Y275956D01*
X237063Y275980D01*
X236855Y275995D01*
X236624Y276000D01*
Y277000D01*
X236855Y277005D01*
X237245Y277044D01*
X237404Y277079D01*
X237538Y277123D01*
X237647Y277177D01*
X237733Y277241D01*
X237793Y277315D01*
X237830Y277399D01*
X237842Y277493D01*
Y275507D01*
D02*
G37*
G36*
X245170Y272399D02*
X245206Y272315D01*
X245267Y272241D01*
X245353Y272177D01*
X245462Y272123D01*
X245596Y272079D01*
X245755Y272044D01*
X245937Y272020D01*
X246145Y272005D01*
X246376Y272000D01*
Y271000D01*
X246145Y270995D01*
X245755Y270956D01*
X245596Y270921D01*
X245462Y270877D01*
X245353Y270823D01*
X245267Y270759D01*
X245206Y270685D01*
X245170Y270601D01*
X245158Y270507D01*
Y272493D01*
X245170Y272399D01*
D02*
G37*
G36*
X272026Y211540D02*
X272171Y211436D01*
X272333Y211344D01*
X272512Y211265D01*
X272707Y211198D01*
X272920Y211143D01*
X273149Y211100D01*
X273396Y211070D01*
X273659Y211051D01*
X273940Y211045D01*
Y208545D01*
X273659Y208539D01*
X273149Y208490D01*
X272920Y208448D01*
X272707Y208393D01*
X272512Y208326D01*
X272333Y208246D01*
X272171Y208155D01*
X272026Y208051D01*
X271898Y207935D01*
Y211655D01*
X272026Y211540D01*
D02*
G37*
G36*
X207215Y205750D02*
X206973Y205988D01*
X206505Y206387D01*
X206280Y206550D01*
X206061Y206687D01*
X205847Y206800D01*
X205640Y206888D01*
X205437Y206950D01*
X205241Y206988D01*
X205050Y207000D01*
Y208000D01*
X205241Y208013D01*
X205437Y208050D01*
X205640Y208113D01*
X205847Y208200D01*
X206061Y208313D01*
X206280Y208450D01*
X206505Y208612D01*
X206736Y208800D01*
X207215Y209250D01*
Y205750D01*
D02*
G37*
G36*
X200911Y209269D02*
X201485Y208768D01*
X201758Y208564D01*
X202020Y208392D01*
X202272Y208251D01*
X202515Y208141D01*
X202747Y208063D01*
X202969Y208016D01*
X203182Y208000D01*
Y207000D01*
X202969Y206984D01*
X202747Y206937D01*
X202515Y206859D01*
X202272Y206749D01*
X202020Y206608D01*
X201758Y206436D01*
X201485Y206232D01*
X200911Y205731D01*
X200609Y205433D01*
Y209567D01*
X200911Y209269D01*
D02*
G37*
G36*
X216215Y210750D02*
X215972Y210987D01*
X215505Y211387D01*
X215280Y211550D01*
X215061Y211687D01*
X214847Y211800D01*
X214640Y211888D01*
X214438Y211950D01*
X214241Y211987D01*
X214051Y212000D01*
Y213000D01*
X214241Y213013D01*
X214438Y213050D01*
X214640Y213112D01*
X214847Y213200D01*
X215061Y213313D01*
X215280Y213450D01*
X215505Y213613D01*
X215736Y213800D01*
X216215Y214250D01*
Y210750D01*
D02*
G37*
G36*
X388528Y216580D02*
X388748Y216406D01*
X388980Y216252D01*
X389224Y216119D01*
X389481Y216006D01*
X389750Y215914D01*
X390031Y215842D01*
X390325Y215791D01*
X390631Y215760D01*
X390950Y215750D01*
Y213250D01*
X390631Y213240D01*
X390325Y213209D01*
X390031Y213158D01*
X389750Y213086D01*
X389481Y212994D01*
X389224Y212881D01*
X388980Y212748D01*
X388748Y212594D01*
X388528Y212420D01*
X388321Y212225D01*
Y216775D01*
X388528Y216580D01*
D02*
G37*
G36*
X383679Y212225D02*
X383472Y212420D01*
X383252Y212594D01*
X383020Y212748D01*
X382776Y212881D01*
X382519Y212994D01*
X382250Y213086D01*
X381969Y213158D01*
X381675Y213209D01*
X381369Y213240D01*
X381050Y213250D01*
Y215750D01*
X381369Y215760D01*
X381675Y215791D01*
X381969Y215842D01*
X382250Y215914D01*
X382519Y216006D01*
X382776Y216119D01*
X383020Y216252D01*
X383252Y216406D01*
X383472Y216580D01*
X383679Y216775D01*
Y212225D01*
D02*
G37*
G36*
X298528Y216580D02*
X298748Y216406D01*
X298980Y216252D01*
X299224Y216119D01*
X299481Y216006D01*
X299750Y215914D01*
X300031Y215842D01*
X300325Y215791D01*
X300631Y215760D01*
X300950Y215750D01*
Y213250D01*
X300631Y213240D01*
X300325Y213209D01*
X300031Y213158D01*
X299750Y213086D01*
X299481Y212994D01*
X299224Y212881D01*
X298980Y212748D01*
X298748Y212594D01*
X298528Y212420D01*
X298321Y212225D01*
Y216775D01*
X298528Y216580D01*
D02*
G37*
G36*
X200911Y199269D02*
X201485Y198768D01*
X201758Y198564D01*
X202020Y198392D01*
X202272Y198251D01*
X202515Y198141D01*
X202747Y198063D01*
X202969Y198016D01*
X203182Y198000D01*
Y197000D01*
X202969Y196984D01*
X202747Y196937D01*
X202515Y196859D01*
X202272Y196749D01*
X202020Y196608D01*
X201758Y196436D01*
X201485Y196232D01*
X200911Y195731D01*
X200609Y195433D01*
Y199567D01*
X200911Y199269D01*
D02*
G37*
G36*
X140911D02*
X141485Y198768D01*
X141758Y198564D01*
X142020Y198392D01*
X142272Y198251D01*
X142515Y198141D01*
X142747Y198063D01*
X142969Y198016D01*
X143182Y198000D01*
Y197000D01*
X142969Y196984D01*
X142747Y196937D01*
X142515Y196859D01*
X142272Y196749D01*
X142020Y196608D01*
X141758Y196436D01*
X141485Y196232D01*
X140911Y195731D01*
X140609Y195433D01*
Y199567D01*
X140911Y199269D01*
D02*
G37*
G36*
X245170Y193399D02*
X245206Y193315D01*
X245267Y193241D01*
X245353Y193177D01*
X245462Y193123D01*
X245596Y193079D01*
X245755Y193044D01*
X245937Y193020D01*
X246145Y193005D01*
X246376Y193000D01*
Y192000D01*
X246145Y191995D01*
X245755Y191956D01*
X245596Y191921D01*
X245462Y191877D01*
X245353Y191823D01*
X245267Y191759D01*
X245206Y191685D01*
X245170Y191601D01*
X245158Y191507D01*
Y193493D01*
X245170Y193399D01*
D02*
G37*
G36*
X129215Y198250D02*
X128972Y198487D01*
X128505Y198888D01*
X128280Y199050D01*
X128061Y199188D01*
X127847Y199300D01*
X127640Y199388D01*
X127437Y199450D01*
X127241Y199487D01*
X127050Y199500D01*
Y200500D01*
X127241Y200513D01*
X127437Y200550D01*
X127640Y200612D01*
X127847Y200700D01*
X128061Y200813D01*
X128280Y200950D01*
X128505Y201113D01*
X128736Y201300D01*
X129215Y201750D01*
Y198250D01*
D02*
G37*
G36*
X140911Y209269D02*
X141485Y208768D01*
X141758Y208564D01*
X142020Y208392D01*
X142272Y208251D01*
X142515Y208141D01*
X142747Y208063D01*
X142969Y208016D01*
X143182Y208000D01*
Y207000D01*
X142969Y206984D01*
X142747Y206937D01*
X142515Y206859D01*
X142272Y206749D01*
X142020Y206608D01*
X141758Y206436D01*
X141485Y206232D01*
X140911Y205731D01*
X140609Y205433D01*
Y209567D01*
X140911Y209269D01*
D02*
G37*
G36*
X260715Y199750D02*
X260472Y199987D01*
X260005Y200388D01*
X259780Y200550D01*
X259561Y200688D01*
X259347Y200800D01*
X259140Y200887D01*
X258938Y200950D01*
X258741Y200988D01*
X258551Y201000D01*
Y202000D01*
X258741Y202012D01*
X258938Y202050D01*
X259140Y202113D01*
X259347Y202200D01*
X259561Y202312D01*
X259780Y202450D01*
X260005Y202612D01*
X260236Y202800D01*
X260715Y203250D01*
Y199750D01*
D02*
G37*
G36*
X114939Y200905D02*
X114969Y200820D01*
X115020Y200745D01*
X115091Y200680D01*
X115182Y200625D01*
X115293Y200580D01*
X115425Y200545D01*
X115576Y200520D01*
X115749Y200505D01*
X115941Y200500D01*
Y199500D01*
X115749Y199495D01*
X115576Y199480D01*
X115425Y199455D01*
X115293Y199420D01*
X115182Y199375D01*
X115091Y199320D01*
X115020Y199255D01*
X114969Y199180D01*
X114939Y199095D01*
X114929Y199000D01*
Y201000D01*
X114939Y200905D01*
D02*
G37*
G36*
X200911Y229269D02*
X201485Y228768D01*
X201758Y228564D01*
X202020Y228392D01*
X202272Y228251D01*
X202515Y228141D01*
X202747Y228063D01*
X202969Y228016D01*
X203182Y228000D01*
Y227000D01*
X202969Y226984D01*
X202747Y226937D01*
X202515Y226859D01*
X202272Y226749D01*
X202020Y226608D01*
X201758Y226436D01*
X201485Y226232D01*
X200911Y225731D01*
X200609Y225433D01*
Y229567D01*
X200911Y229269D01*
D02*
G37*
G36*
X140911D02*
X141485Y228768D01*
X141758Y228564D01*
X142020Y228392D01*
X142272Y228251D01*
X142515Y228141D01*
X142747Y228063D01*
X142969Y228016D01*
X143182Y228000D01*
Y227000D01*
X142969Y226984D01*
X142747Y226937D01*
X142515Y226859D01*
X142272Y226749D01*
X142020Y226608D01*
X141758Y226436D01*
X141485Y226232D01*
X140911Y225731D01*
X140609Y225433D01*
Y229567D01*
X140911Y229269D01*
D02*
G37*
G36*
X267030Y226901D02*
X267204Y226784D01*
X267403Y226682D01*
X267626Y226594D01*
X267873Y226520D01*
X268144Y226460D01*
X268440Y226414D01*
X268760Y226383D01*
X269473Y226362D01*
X266843Y223731D01*
X266839Y224100D01*
X266790Y224765D01*
X266745Y225060D01*
X266685Y225332D01*
X266611Y225579D01*
X266523Y225802D01*
X266420Y226000D01*
X266304Y226174D01*
X266173Y226324D01*
X266880Y227031D01*
X267030Y226901D01*
D02*
G37*
G36*
X221715Y225750D02*
X221473Y225988D01*
X221005Y226388D01*
X220780Y226550D01*
X220561Y226688D01*
X220347Y226800D01*
X220140Y226887D01*
X219937Y226950D01*
X219741Y226988D01*
X219550Y227000D01*
Y228000D01*
X219741Y228012D01*
X219937Y228050D01*
X220140Y228113D01*
X220347Y228200D01*
X220561Y228312D01*
X220780Y228450D01*
X221005Y228612D01*
X221236Y228800D01*
X221715Y229250D01*
Y225750D01*
D02*
G37*
G36*
X245170Y232899D02*
X245206Y232815D01*
X245267Y232741D01*
X245353Y232677D01*
X245462Y232623D01*
X245596Y232579D01*
X245755Y232544D01*
X245937Y232520D01*
X246145Y232505D01*
X246376Y232500D01*
Y231500D01*
X246145Y231495D01*
X245755Y231456D01*
X245596Y231421D01*
X245462Y231377D01*
X245353Y231323D01*
X245267Y231259D01*
X245206Y231185D01*
X245170Y231101D01*
X245158Y231007D01*
Y232993D01*
X245170Y232899D01*
D02*
G37*
G36*
X152392Y234155D02*
X152517Y234070D01*
X152660Y233995D01*
X152821Y233930D01*
X153000Y233875D01*
X153197Y233830D01*
X153412Y233795D01*
X153645Y233770D01*
X154165Y233750D01*
Y231250D01*
X153896Y231245D01*
X153412Y231205D01*
X153197Y231170D01*
X153000Y231125D01*
X152821Y231070D01*
X152660Y231005D01*
X152517Y230930D01*
X152392Y230845D01*
X152285Y230750D01*
Y234250D01*
X152392Y234155D01*
D02*
G37*
G36*
X357715Y227750D02*
X357472Y227988D01*
X357005Y228387D01*
X356780Y228550D01*
X356561Y228688D01*
X356347Y228800D01*
X356140Y228888D01*
X355938Y228950D01*
X355741Y228988D01*
X355551Y229000D01*
Y230000D01*
X355741Y230012D01*
X355938Y230050D01*
X356140Y230113D01*
X356347Y230200D01*
X356561Y230312D01*
X356780Y230450D01*
X357005Y230612D01*
X357236Y230800D01*
X357715Y231250D01*
Y227750D01*
D02*
G37*
G36*
X260161Y223309D02*
X260210Y222645D01*
X260255Y222349D01*
X260315Y222078D01*
X260389Y221831D01*
X260477Y221608D01*
X260580Y221409D01*
X260696Y221235D01*
X260827Y221085D01*
X260120Y220378D01*
X259970Y220509D01*
X259795Y220625D01*
X259597Y220727D01*
X259374Y220816D01*
X259127Y220890D01*
X258856Y220949D01*
X258560Y220995D01*
X258240Y221027D01*
X257527Y221047D01*
X260157Y223678D01*
X260161Y223309D01*
D02*
G37*
G36*
X140911Y219269D02*
X141485Y218768D01*
X141758Y218564D01*
X142020Y218392D01*
X142272Y218251D01*
X142515Y218141D01*
X142747Y218063D01*
X142969Y218016D01*
X143182Y218000D01*
Y217000D01*
X142969Y216984D01*
X142747Y216937D01*
X142515Y216859D01*
X142272Y216749D01*
X142020Y216608D01*
X141758Y216436D01*
X141485Y216232D01*
X140911Y215731D01*
X140609Y215433D01*
Y219567D01*
X140911Y219269D01*
D02*
G37*
G36*
X408715Y212750D02*
X408608Y212845D01*
X408483Y212930D01*
X408340Y213005D01*
X408179Y213070D01*
X408000Y213125D01*
X407803Y213170D01*
X407588Y213205D01*
X407355Y213230D01*
X406835Y213250D01*
Y215750D01*
X407104Y215755D01*
X407588Y215795D01*
X407803Y215830D01*
X408000Y215875D01*
X408179Y215930D01*
X408340Y215995D01*
X408483Y216070D01*
X408608Y216155D01*
X408715Y216250D01*
Y212750D01*
D02*
G37*
G36*
X294205Y221791D02*
X294005Y221903D01*
X293799Y221978D01*
X293589Y222015D01*
X293375Y222014D01*
X293155Y221976D01*
X292931Y221900D01*
X292702Y221786D01*
X292468Y221635D01*
X292230Y221445D01*
X291986Y221218D01*
X290559Y223327D01*
X293149Y226061D01*
X294205Y221791D01*
D02*
G37*
G36*
X332715Y222750D02*
X332608Y222845D01*
X332483Y222930D01*
X332340Y223005D01*
X332179Y223070D01*
X332000Y223125D01*
X331803Y223170D01*
X331588Y223205D01*
X331355Y223230D01*
X330835Y223250D01*
Y225750D01*
X331104Y225755D01*
X331588Y225795D01*
X331803Y225830D01*
X332000Y225875D01*
X332179Y225930D01*
X332340Y225995D01*
X332483Y226070D01*
X332608Y226155D01*
X332715Y226250D01*
Y222750D01*
D02*
G37*
G36*
X298528Y226580D02*
X298748Y226406D01*
X298980Y226252D01*
X299224Y226119D01*
X299481Y226006D01*
X299750Y225914D01*
X300031Y225842D01*
X300325Y225791D01*
X300631Y225760D01*
X300950Y225750D01*
Y223250D01*
X300631Y223240D01*
X300325Y223209D01*
X300031Y223158D01*
X299750Y223086D01*
X299481Y222994D01*
X299224Y222881D01*
X298980Y222748D01*
X298748Y222594D01*
X298528Y222420D01*
X298321Y222225D01*
Y226775D01*
X298528Y226580D01*
D02*
G37*
G36*
X271661Y225307D02*
X272165Y224871D01*
X272407Y224694D01*
X272641Y224545D01*
X272868Y224422D01*
X273088Y224327D01*
X273301Y224259D01*
X273506Y224218D01*
X273705Y224205D01*
Y223205D01*
X273506Y223191D01*
X273301Y223150D01*
X273088Y223082D01*
X272868Y222987D01*
X272641Y222865D01*
X272407Y222715D01*
X272165Y222538D01*
X271917Y222334D01*
X271398Y221845D01*
Y225565D01*
X271661Y225307D01*
D02*
G37*
D10*
X239000Y255000D02*
X241500Y257500D01*
X217500Y255000D02*
X239000D01*
X257295Y263500D02*
X257500Y263705D01*
X252500Y263500D02*
X257295D01*
X251000Y265000D02*
X252500Y263500D01*
X217500Y265000D02*
X251000D01*
X203000Y172500D02*
X207500Y177000D01*
X179595Y172500D02*
X203000D01*
X174594Y177500D02*
X179595Y172500D01*
X193000Y182000D02*
X212000D01*
X190000Y185000D02*
X193000Y182000D01*
X167500Y172500D02*
X172500Y167500D01*
X134000Y172500D02*
X167500D01*
X130000Y176500D02*
X134000Y172500D01*
X171500Y192500D02*
X176500Y187500D01*
X118500Y192500D02*
X171500D01*
X113000Y187000D02*
X118500Y192500D01*
X174000Y185000D02*
X190000D01*
X171500Y187500D02*
X174000Y185000D01*
X127500Y309500D02*
X188000D01*
X122500Y304500D02*
X127500Y309500D01*
X122500Y292000D02*
Y304500D01*
X191500Y299000D02*
Y306000D01*
X188000Y309500D02*
X191500Y306000D01*
X247500Y118500D02*
X252500Y113500D01*
X213000Y118500D02*
X247500D01*
X210500Y116000D02*
X213000Y118500D01*
X209500Y116000D02*
X210500D01*
X202500Y163000D02*
X224000D01*
X202000Y162500D02*
X202500Y163000D01*
X194000Y162500D02*
X202000D01*
X192567Y163933D02*
X194000Y162500D01*
X171067Y163933D02*
X192567D01*
X167500Y167500D02*
X171067Y163933D01*
X138500Y167500D02*
X167500D01*
X112000Y200000D02*
X131000D01*
X198500Y207500D02*
X209000D01*
X298500Y187000D02*
X320000Y165500D01*
X272795Y187000D02*
X298500D01*
X270000Y184205D02*
X272795Y187000D01*
X320000Y165500D02*
X403500D01*
X247000Y180000D02*
X291000D01*
X240205Y182500D02*
X245205Y177500D01*
X233500Y182500D02*
X240205D01*
X245205Y170500D02*
Y177500D01*
X284500D02*
X301500Y160500D01*
X245205Y177500D02*
X284500D01*
X282500Y175000D02*
X311000Y146500D01*
X255000Y175000D02*
X282500D01*
X251000Y171000D02*
X255000Y175000D01*
X224500Y202500D02*
X247000Y180000D01*
X212000Y140500D02*
X252500D01*
X207000Y135000D02*
X257500D01*
X217000Y145000D02*
X262500D01*
X242500Y150000D02*
X257500Y165000D01*
X193500Y150000D02*
X242500D01*
X186500Y157000D02*
X193500Y150000D01*
Y157500D02*
X198500D01*
X190000Y161000D02*
X193500Y157500D01*
X164000Y161000D02*
X190000D01*
X163500Y161500D02*
X164000Y161000D01*
X218500Y197500D02*
X233500Y182500D01*
X198500Y197500D02*
X218500D01*
X258000Y201500D02*
X262500D01*
X226500Y233000D02*
X258000Y201500D01*
X198500Y227500D02*
X223500D01*
X207500Y177000D02*
X236000D01*
X138500Y177500D02*
X174594D01*
X241000Y160000D02*
X245205D01*
X238500Y157500D02*
X241000Y160000D01*
X198500Y157500D02*
X238500D01*
X261205Y232000D02*
X269500Y223705D01*
X241500Y232000D02*
X261205D01*
X264051Y294744D02*
X269500Y289295D01*
X239244Y294744D02*
X264051D01*
X234000Y276500D02*
X241500D01*
X232500Y278000D02*
X234000Y276500D01*
X232500Y278000D02*
Y288000D01*
X239244Y294744D01*
X290500Y229500D02*
X359500D01*
X279000Y218000D02*
X290500Y229500D01*
X263205Y218000D02*
X279000D01*
X257500Y223705D02*
X263205Y218000D01*
X261705Y271500D02*
X269500Y263705D01*
X241500Y271500D02*
X261705D01*
X361250Y239250D02*
X366000Y234500D01*
X277705Y223705D02*
X293250Y239250D01*
X361250D01*
X366000Y234500D02*
X386000D01*
X269500Y223705D02*
X277705D01*
X257500Y237000D02*
Y237500D01*
X253000Y242000D02*
X257500Y237500D01*
X241500Y242000D02*
X253000D01*
X292000Y249500D02*
X352500D01*
X285000Y256500D02*
X292000Y249500D01*
X264705Y256500D02*
X285000D01*
X257500Y263705D02*
X264705Y256500D01*
X255000Y281500D02*
X257500Y279000D01*
X241500Y281500D02*
X255000D01*
X269500Y263705D02*
X275705D01*
X281500Y269500D01*
X341000D01*
X366000Y244500D02*
X386000D01*
X341000Y269500D02*
X366000Y244500D01*
X301500Y160500D02*
X391000D01*
X311000Y146500D02*
X380000D01*
X245205Y160000D02*
X251000Y165795D01*
Y171000D01*
X265795Y184205D02*
X270000D01*
X257500Y192500D02*
X265795Y184205D01*
X241500Y192500D02*
X257500D01*
X362500Y123000D02*
Y129500D01*
X343500Y104000D02*
X362500Y123000D01*
X158500Y104000D02*
X343500D01*
X332500Y107500D02*
X352500Y127500D01*
Y129500D01*
X193000Y202500D02*
X224500D01*
X188000Y207500D02*
X193000Y202500D01*
X186500Y192500D02*
X214500D01*
X181500Y197500D02*
X186500Y192500D01*
X174500Y157000D02*
X186500D01*
X155500Y137000D02*
X164500Y128000D01*
X138000Y137000D02*
X155500D01*
X139000Y157000D02*
X174500D01*
X138500Y157500D02*
X139000Y157000D01*
X116000Y182500D02*
X180500D01*
X113250Y179750D02*
X116000Y182500D01*
X130000Y252000D02*
Y259500D01*
X119500Y270000D02*
X130000Y259500D01*
X109500Y250500D02*
Y260000D01*
Y250500D02*
X112500Y247500D01*
X138500D01*
X147000Y262000D02*
X164000D01*
X172500Y253500D01*
X185500Y177500D02*
X198500D01*
X180500Y182500D02*
X185500Y177500D01*
X172500Y167500D02*
X198500D01*
X194500Y233000D02*
X226500D01*
X189000Y227500D02*
X194500Y233000D01*
X196000Y212500D02*
X218000D01*
X191000Y217500D02*
X196000Y212500D01*
X138500Y207500D02*
X188000D01*
X138500Y197500D02*
X181500D01*
X138500Y187500D02*
X171500D01*
X138500Y227500D02*
X189000D01*
X172500Y253500D02*
X192500D01*
X198500Y247500D01*
X108000Y134000D02*
X148500D01*
X107500D02*
X108000D01*
X136000Y139000D02*
X138000Y137000D01*
X134000Y144000D02*
X153000D01*
X128000Y138000D02*
X134000Y144000D01*
X117205Y138000D02*
X128000D01*
X132295Y150500D02*
X152000D01*
X125000Y143205D02*
X132295Y150500D01*
X176500Y187500D02*
X198500D01*
X148500Y134000D02*
X154500Y128000D01*
X112000Y143205D02*
X117205Y138000D01*
X138500Y217500D02*
X191000D01*
X144500Y118000D02*
X158500Y104000D01*
X154500Y118000D02*
X165000Y107500D01*
X332500D01*
X420000Y100000D02*
Y320000D01*
X100000Y100000D02*
X420000D01*
X100000D02*
Y320000D01*
X420000D01*
D11*
X206500Y237500D02*
X216000D01*
X227795Y249295D01*
X207000Y237500D02*
Y276000D01*
X198500Y237500D02*
X207000D01*
X129000Y276000D02*
X207000D01*
X397000Y155500D02*
X403500D01*
X395000Y153500D02*
X397000Y155500D01*
X332500Y153500D02*
X395000D01*
X177000Y290500D02*
X184500Y283000D01*
X141500Y290500D02*
X177000D01*
X270000Y209795D02*
X278795D01*
X293500Y224500D01*
X296000D01*
X386000Y214500D02*
X410500D01*
X296000D02*
X386000D01*
X296000Y224500D02*
X334500D01*
X282500Y123500D02*
X306000D01*
X282000D02*
X282500D01*
X187500Y237500D02*
X198500D01*
X125000Y280000D02*
X129000Y276000D01*
X119500Y280000D02*
X125000D01*
X178500Y249500D02*
X184500D01*
X168250Y239250D02*
X178500Y249500D01*
X140250Y239250D02*
X168250D01*
X138500Y237500D02*
X140250Y239250D01*
X185000Y257500D02*
X198500D01*
X182500Y232500D02*
X187500Y237500D01*
X150500Y232500D02*
X182500D01*
X227795Y249295D02*
X257500D01*
X206000Y123500D02*
X222000D01*
X201500Y128000D02*
X206000Y123500D01*
X184500Y128000D02*
X201500D01*
X312000Y129500D02*
X322500D01*
X306000Y123500D02*
X312000Y129500D01*
X282000Y113500D02*
Y123500D01*
X141500Y290500D02*
Y299000D01*
D12*
X215000Y265000D02*
D03*
X109500Y280000D02*
D03*
X403500Y155500D02*
D03*
Y249000D02*
D03*
X112000Y200000D02*
D03*
D13*
X215000Y255000D02*
D03*
X119500Y280000D02*
D03*
X109500Y270000D02*
D03*
X119500D02*
D03*
X109500Y260000D02*
D03*
X119500D02*
D03*
X141500Y299000D02*
D03*
X151500D02*
D03*
X161500D02*
D03*
X171500D02*
D03*
X181500D02*
D03*
X282500Y123500D02*
D03*
X272500Y113500D02*
D03*
Y123500D02*
D03*
X262500Y113500D02*
D03*
Y123500D02*
D03*
X252500Y113500D02*
D03*
Y123500D02*
D03*
X242500Y113500D02*
D03*
Y123500D02*
D03*
X232500Y113500D02*
D03*
Y123500D02*
D03*
X222500Y113500D02*
D03*
Y123500D02*
D03*
X362500Y129500D02*
D03*
X352500D02*
D03*
X342500D02*
D03*
X332500D02*
D03*
X144500Y128000D02*
D03*
X154500Y118000D02*
D03*
Y128000D02*
D03*
X164500Y118000D02*
D03*
Y128000D02*
D03*
X174500Y118000D02*
D03*
Y128000D02*
D03*
X184500Y118000D02*
D03*
Y128000D02*
D03*
X403500Y185500D02*
D03*
Y175500D02*
D03*
Y165500D02*
D03*
Y279000D02*
D03*
Y269000D02*
D03*
Y259000D02*
D03*
X112000Y210000D02*
D03*
D14*
X241500Y192500D02*
D03*
Y202500D02*
D03*
Y232000D02*
D03*
Y242000D02*
D03*
Y271500D02*
D03*
Y281500D02*
D03*
D15*
Y197500D02*
D03*
Y237000D02*
D03*
Y276500D02*
D03*
D16*
X198500Y157500D02*
D03*
Y167500D02*
D03*
Y177500D02*
D03*
Y187500D02*
D03*
Y197500D02*
D03*
Y207500D02*
D03*
Y217500D02*
D03*
Y227500D02*
D03*
Y237500D02*
D03*
Y247500D02*
D03*
Y257500D02*
D03*
Y267500D02*
D03*
X138500D02*
D03*
Y257500D02*
D03*
Y247500D02*
D03*
Y237500D02*
D03*
Y227500D02*
D03*
Y217500D02*
D03*
Y207500D02*
D03*
Y197500D02*
D03*
Y187500D02*
D03*
Y177500D02*
D03*
Y167500D02*
D03*
Y157500D02*
D03*
D17*
X191500Y299000D02*
D03*
X282500Y113500D02*
D03*
X322500Y129500D02*
D03*
X144500Y118000D02*
D03*
D18*
X296000Y214500D02*
D03*
Y234500D02*
D03*
Y244500D02*
D03*
Y254500D02*
D03*
Y264500D02*
D03*
Y274500D02*
D03*
Y224500D02*
D03*
X386000D02*
D03*
Y274500D02*
D03*
Y264500D02*
D03*
Y254500D02*
D03*
Y244500D02*
D03*
Y234500D02*
D03*
Y214500D02*
D03*
D19*
X296000Y284500D02*
D03*
X386000D02*
D03*
D20*
X410000Y310000D02*
D03*
Y110000D02*
D03*
X110000D02*
D03*
Y310000D02*
D03*
D21*
X257500Y184205D02*
D03*
Y209795D02*
D03*
X270000Y209795D02*
D03*
Y184205D02*
D03*
X257500Y223705D02*
D03*
Y249295D02*
D03*
X269500Y249295D02*
D03*
Y223705D02*
D03*
X257500Y263705D02*
D03*
Y289295D02*
D03*
X269500Y289295D02*
D03*
Y263705D02*
D03*
X245205Y170500D02*
D03*
X270795D02*
D03*
X245205Y160000D02*
D03*
X270795D02*
D03*
X112000Y143205D02*
D03*
Y168795D02*
D03*
X125000Y143205D02*
D03*
Y168795D02*
D03*
D22*
X247000Y299000D02*
D03*
X207000D02*
D03*
D23*
X112000Y233500D02*
D03*
Y223500D02*
D03*
D24*
X241500Y257500D02*
D03*
X131000Y200000D02*
D03*
X209000Y207500D02*
D03*
X209500Y116000D02*
D03*
X291000Y180000D02*
D03*
X252500Y140500D02*
D03*
X262500Y145000D02*
D03*
X257500Y135000D02*
D03*
X217000Y145000D02*
D03*
X212000Y140500D02*
D03*
X207000Y135000D02*
D03*
X212000Y182000D02*
D03*
X163500Y161500D02*
D03*
X214500Y192500D02*
D03*
X218000Y212500D02*
D03*
X262500Y201500D02*
D03*
X223500Y227500D02*
D03*
X236000Y177000D02*
D03*
X359500Y229500D02*
D03*
X257500Y237000D02*
D03*
X352500Y249500D02*
D03*
X257500Y279000D02*
D03*
X391000Y160500D02*
D03*
X380000Y146500D02*
D03*
X410500Y214500D02*
D03*
X334500Y224500D02*
D03*
X224000Y163000D02*
D03*
X174500Y157000D02*
D03*
X113000Y179500D02*
D03*
Y187500D02*
D03*
X130000Y176500D02*
D03*
Y252000D02*
D03*
X147000Y262000D02*
D03*
X257500Y165000D02*
D03*
X184500Y249500D02*
D03*
X108000Y134000D02*
D03*
X136000Y139000D02*
D03*
X332500Y153500D02*
D03*
X150500Y232500D02*
D03*
X184500Y283000D02*
D03*
X122500Y292000D02*
D03*
X184500Y257500D02*
D03*
X152000Y150500D02*
D03*
X153000Y144000D02*
D03*
M02*
